<svg width="24" height="24" viewBox="0 0 24 24" fill="none" xmlns="http://www.w3.org/2000/svg">
<path fill-rule="evenodd" clip-rule="evenodd" d="M15.474 3.69752C14.3789 3.2393 13.1985 3 12 3C10.22 3 8.47991 3.52784 6.99987 4.51677C5.51983 5.50571 4.36628 6.91131 3.68509 8.55585C3.0039 10.2004 2.82567 12.01 3.17294 13.7558C3.29063 14.3475 3.4669 14.9229 3.69753 15.474L5.26472 13.9068C5.21429 13.7287 5.17081 13.5482 5.13451 13.3656C5.11033 13.2441 5.08944 13.1222 5.0718 13H6.09335C6.61357 13 7 12.5202 7 12C7 11.4798 6.61357 11 6.09335 11H5.0718C5.15459 10.4264 5.30871 9.86233 5.53285 9.32122C5.75698 8.78011 6.04686 8.27227 6.3939 7.80815L7.11653 8.53077C7.48438 8.89862 8.0966 8.83233 8.46445 8.46448C8.8323 8.09663 8.89859 7.48441 8.53074 7.11656L7.80811 6.39393C7.90699 6.31999 8.00798 6.24855 8.11101 6.17971C8.9828 5.5972 9.97057 5.22038 11 5.07179V6.09335C11 6.61357 11.4798 7 12 7C12.5202 7 13 6.61357 13 6.09335V5.07179C13.3066 5.11605 13.6096 5.18056 13.9068 5.26472L15.474 3.69752ZM18.9282 13C18.9106 13.1222 18.8897 13.2441 18.8655 13.3656C18.6609 14.394 18.2289 15.3589 17.6061 16.1919L16.2071 14.7929C15.8166 14.4024 15.1834 14.4024 14.7929 14.7929C14.4024 15.1834 14.4024 15.8166 14.7929 16.2071L16.9498 18.364C17.3403 18.7545 17.9734 18.7545 18.364 18.364C19.6226 17.1053 20.4798 15.5016 20.8271 13.7558C21.1743 12.01 20.9961 10.2004 20.3149 8.55585L20.3025 8.52595L18.7353 10.0931C18.8197 10.3914 18.8841 10.6943 18.9282 11H17.9067C17.3864 11 17 11.4798 17 12C17 12.5202 17.3864 13 17.9067 13H18.9282ZM19 3.5L20.5 5L5 20.5L3.5 19L19 3.5Z" fill="black"/>
</svg>
