<svg width="24" height="24" viewBox="0 0 24 24" fill="none" xmlns="http://www.w3.org/2000/svg">
<path d="M20 5L18.5 3.5L18 8L22.5 7.5L21 6L23 4L22 3L20 5Z" fill="black"/>
<path d="M17 6.5C17.1694 6.61357 17.2572 6.84808 17.2077 7.04594L16.9586 8.04255C16.8664 8.41123 16.4087 8.54987 16.1007 8.3273C15.7908 8.10336 15.4623 7.90429 15.1215 7.73453C14.454 7.40195 13.7377 7.17827 13 7.07179V8.09335C13 8.61357 12.5202 9 12 9C11.4798 9 11 8.61357 11 8.09335V7.07179C9.97057 7.22038 8.9828 7.5972 8.11101 8.17971C8.00798 8.24855 7.90699 8.31999 7.80811 8.39393L8.53074 9.11656C8.89859 9.48441 8.8323 10.0966 8.46445 10.4645C8.0966 10.8323 7.48438 10.8986 7.11653 10.5308L6.3939 9.80815C6.04686 10.2723 5.75698 10.7801 5.53285 11.3212C5.30871 11.8623 5.15459 12.4264 5.0718 13H6.09335C6.61357 13 7 13.4798 7 14C7 14.5202 6.61357 15 6.09335 15H5.0718C5.08944 15.1222 5.11033 15.2441 5.13451 15.3656C5.33906 16.394 5.77107 17.3589 6.39391 18.1919L7.7929 16.7929C8.18342 16.4024 8.81659 16.4024 9.20711 16.7929C9.59763 17.1834 9.59763 17.8166 9.20711 18.2071L7.05026 20.364C6.86272 20.5515 6.60837 20.6569 6.34315 20.6569C6.07793 20.6569 5.82358 20.5515 5.63604 20.364C4.37737 19.1053 3.5202 17.5016 3.17294 15.7558C2.82567 14.01 3.0039 12.2004 3.68509 10.5558C4.36628 8.91131 5.51983 7.50571 6.99987 6.51677C8.47991 5.52784 10.22 5 12 5C13.3515 5 14.6799 5.30427 15.889 5.88361C16.2769 6.06946 16.6407 6.25912 17 6.5Z" fill="black"/>
<path d="M17.9574 9.04142C17.5888 9.13358 17.4503 9.59111 17.673 9.89908C17.9905 10.3383 18.2576 10.8152 18.4672 11.3212C18.6913 11.8623 18.8454 12.4264 18.9282 13H17.9067C17.3864 13 17 13.4798 17 14C17 14.5202 17.3864 15 17.9067 15H18.9282C18.9106 15.1222 18.8897 15.2441 18.8655 15.3656C18.6609 16.394 18.2289 17.3589 17.6061 18.1919L16.2071 16.7929C15.8166 16.4024 15.1834 16.4024 14.7929 16.7929C14.4024 17.1834 14.4024 17.8166 14.7929 18.2071L16.9498 20.364C17.3403 20.7545 17.9734 20.7545 18.364 20.364C19.6226 19.1053 20.4798 17.5016 20.8271 15.7558C21.1743 14.01 20.9961 12.2004 20.3149 10.5558C20.0862 10.0038 19.8043 9.47862 19.4747 8.98712C19.3611 8.81774 19.1519 8.74279 18.9541 8.79226L17.9574 9.04142Z" fill="black"/>
<path fill-rule="evenodd" clip-rule="evenodd" d="M16.4724 9.5276C16.0819 9.13708 15.4487 9.13708 15.0582 9.5276L13.2934 11.2924C12.9018 11.105 12.4631 11 12 11C10.3431 11 9 12.3431 9 14C9 15.6569 10.3431 17 12 17C13.6569 17 15 15.6569 15 14C15 13.5369 14.895 13.0982 14.7076 12.7066L16.4724 10.9418C16.8629 10.5513 16.8629 9.91813 16.4724 9.5276ZM13 14C13 14.5523 12.5523 15 12 15C11.4477 15 11 14.5523 11 14C11 13.4477 11.4477 13 12 13C12.5523 13 13 13.4477 13 14Z" fill="black"/>
</svg>
