<svg width="24" height="24" viewBox="0 0 24 24" fill="none" xmlns="http://www.w3.org/2000/svg">
<path d="M7 6.5C6.8306 6.61357 6.74279 6.84808 6.79225 7.04594L7.0414 8.04255C7.13357 8.41123 7.59127 8.54987 7.8993 8.3273C8.20923 8.10336 8.53772 7.90429 8.87847 7.73453C9.54602 7.40195 10.2623 7.17827 11 7.07179V8.09335C11 8.61357 11.4798 9 12 9C12.5202 9 13 8.61357 13 8.09335V7.07179C14.0294 7.22038 15.0172 7.5972 15.889 8.17971C15.992 8.24855 16.093 8.31999 16.1919 8.39393L15.4693 9.11656C15.1014 9.48441 15.1677 10.0966 15.5355 10.4645C15.9034 10.8323 16.5156 10.8986 16.8835 10.5308L17.6061 9.80815C17.9531 10.2723 18.243 10.7801 18.4672 11.3212C18.6913 11.8623 18.8454 12.4264 18.9282 13H17.9067C17.3864 13 17 13.4798 17 14C17 14.5202 17.3864 15 17.9067 15H18.9282C18.9106 15.1222 18.8897 15.2441 18.8655 15.3656C18.6609 16.394 18.2289 17.3589 17.6061 18.1919L16.2071 16.7929C15.8166 16.4024 15.1834 16.4024 14.7929 16.7929C14.4024 17.1834 14.4024 17.8166 14.7929 18.2071L16.9497 20.364C17.1373 20.5515 17.3916 20.6569 17.6569 20.6569C17.9221 20.6569 18.1764 20.5515 18.364 20.364C19.6226 19.1053 20.4798 17.5016 20.8271 15.7558C21.1743 14.01 20.9961 12.2004 20.3149 10.5558C19.6337 8.91131 18.4802 7.50571 17.0001 6.51677C15.5201 5.52784 13.78 5 12 5C10.6485 5 9.32009 5.30427 8.111 5.88361C7.72312 6.06946 7.35929 6.25912 7 6.5Z" fill="black"/>
<path d="M6.04256 9.04142C6.41123 9.13358 6.54967 9.59111 6.32703 9.89908C6.00949 10.3383 5.74242 10.8152 5.53284 11.3212C5.3087 11.8623 5.15458 12.4264 5.07179 13H6.09335C6.61357 13 7 13.4798 7 14C7 14.5202 6.61357 15 6.09335 15H5.07179C5.08943 15.1222 5.11033 15.2441 5.1345 15.3656C5.33905 16.394 5.77106 17.3589 6.39391 18.1919L7.79289 16.7929C8.18341 16.4024 8.81658 16.4024 9.2071 16.7929C9.59763 17.1834 9.59763 17.8166 9.2071 18.2071L7.05025 20.364C6.65973 20.7545 6.02656 20.7545 5.63604 20.364C4.37736 19.1053 3.5202 17.5016 3.17293 15.7558C2.82566 14.01 3.00389 12.2004 3.68508 10.5558C3.91376 10.0038 4.19567 9.47862 4.5253 8.98712C4.6389 8.81774 4.84807 8.74279 5.04593 8.79226L6.04256 9.04142Z" fill="black"/>
<path fill-rule="evenodd" clip-rule="evenodd" d="M7.52761 9.5276C7.91813 9.13708 8.55129 9.13708 8.94182 9.5276L10.7066 11.2924C11.0982 11.105 11.5369 11 12 11C13.6569 11 15 12.3431 15 14C15 15.6569 13.6569 17 12 17C10.3431 17 9 15.6569 9 14C9 13.5369 9.10495 13.0982 9.29237 12.7066L7.52761 10.9418C7.13708 10.5513 7.13708 9.91813 7.52761 9.5276ZM11 14C11 14.5523 11.4477 15 12 15C12.5523 15 13 14.5523 13 14C13 13.4477 12.5523 13 12 13C11.4477 13 11 13.4477 11 14Z" fill="black"/>
<path fill-rule="evenodd" clip-rule="evenodd" d="M5 5.73244C5.5978 5.38663 6 4.74028 6 4C6 2.89543 5.10457 2 4 2C2.89543 2 2 2.89543 2 4C2 4.74028 2.4022 5.38663 3 5.73244V7C3 7.55228 3.44772 8 4 8C4.55228 8 5 7.55228 5 7V5.73244ZM5 4C5 4.55228 4.55228 5 4 5C3.44772 5 3 4.55228 3 4C3 3.44772 3.44772 3 4 3C4.55228 3 5 3.44772 5 4Z" fill="black"/>
</svg>
