<svg width="24" height="24" viewBox="0 0 24 24" fill="none" xmlns="http://www.w3.org/2000/svg">
<path fill-rule="evenodd" clip-rule="evenodd" d="M6 11C4.89543 11 4 11.8954 4 13V19C4 20.1046 4.89543 21 6 21H18C19.1046 21 20 20.1046 20 19V13C20 11.8954 19.1046 11 18 11H6ZM16 17V15H8V17H16Z" fill="black"/>
<path d="M6.1068 3.5356L6.98845 3.82948C7.24011 3.91337 7.5 3.72606 7.5 3.46078V2.84979C7.5 2.63542 7.37888 2.43944 7.18714 2.34357C6.73526 2.11763 6.23697 2 5.73176 2H5C3.89543 2 3 2.89543 3 4V4.26541C3 5.26071 3.73186 6.10455 4.71716 6.24531L5.8103 6.40147C6.20605 6.45801 6.5 6.79694 6.5 7.1967C6.5 7.64035 6.14035 8 5.6967 8H4.5L3.51155 7.67052C3.25989 7.58663 3 7.77394 3 8.03922V8.65021C3 8.86459 3.12112 9.06056 3.31286 9.15643C3.76474 9.38237 4.26302 9.5 4.76824 9.5H6C7.10457 9.5 8 8.60457 8 7.5V7.23459C8 6.23929 7.26814 5.39545 6.28284 5.25469L5.1897 5.09853C4.79395 5.04199 4.5 4.70306 4.5 4.3033C4.5 3.85965 4.85965 3.5 5.3033 3.5H5.88743C5.96199 3.5 6.03606 3.51202 6.1068 3.5356Z" fill="black"/>
<path d="M9 2.25C9 2.11193 9.11193 2 9.25 2H14.25C14.3881 2 14.5 2.11193 14.5 2.25V3.25C14.5 3.38807 14.3881 3.5 14.25 3.5H10.5V5H13.5V6.5H10.5V8H14.25C14.3881 8 14.5 8.11193 14.5 8.25V9.25C14.5 9.38807 14.3881 9.5 14.25 9.5H9.25C9.11193 9.5 9 9.38807 9 9.25V2.25Z" fill="black"/>
<path d="M15.5 2.25C15.5 2.11193 15.6119 2 15.75 2H20.75C20.8881 2 21 2.11193 21 2.25V3.25C21 3.38807 20.8881 3.5 20.75 3.5H19V9.25C19 9.38807 18.8881 9.5 18.75 9.5H17.75C17.6119 9.5 17.5 9.38807 17.5 9.25V3.5H15.75C15.6119 3.5 15.5 3.38807 15.5 3.25V2.25Z" fill="black"/>
</svg>
