<svg width="24" height="24" viewBox="0 0 24 24" fill="none" xmlns="http://www.w3.org/2000/svg">
<path fill-rule="evenodd" clip-rule="evenodd" d="M6 3C4.89543 3 4 3.89543 4 5V11C4 12.1046 4.89543 13 6 13H18C19.1046 13 20 12.1046 20 11V5C20 3.89543 19.1046 3 18 3H6ZM11 4H13V7H16V9H13V12H11V9H8V7H11V4Z" fill="black"/>
<path d="M18.6068 15.5356L19.4885 15.8295C19.7401 15.9134 20 15.7261 20 15.4608V14.8498C20 14.6354 19.8789 14.4394 19.6871 14.3436C19.2353 14.1176 18.737 14 18.2318 14H17.5C16.3954 14 15.5 14.8954 15.5 16V16.2654C15.5 17.2607 16.2319 18.1046 17.2172 18.2453L18.3103 18.4015C18.706 18.458 19 18.7969 19 19.1967C19 19.6403 18.6403 20 18.1967 20H17L16.0115 19.6705C15.7599 19.5866 15.5 19.7739 15.5 20.0392V20.6502C15.5 20.8646 15.6211 21.0606 15.8129 21.1564C16.2647 21.3824 16.763 21.5 17.2682 21.5H18.5C19.6046 21.5 20.5 20.6046 20.5 19.5V19.2346C20.5 18.2393 19.7681 17.3954 18.7828 17.2547L17.6897 17.0985C17.294 17.042 17 16.7031 17 16.3033C17 15.8597 17.3597 15.5 17.8033 15.5H18.3874C18.462 15.5 18.5361 15.512 18.6068 15.5356Z" fill="black"/>
<path d="M9 14.25C9 14.1119 9.11193 14 9.25 14H14.25C14.3881 14 14.5 14.1119 14.5 14.25V15.25C14.5 15.3881 14.3881 15.5 14.25 15.5H10.5V17H13.5V18.5H10.5V20H14.25C14.3881 20 14.5 20.1119 14.5 20.25V21.25C14.5 21.3881 14.3881 21.5 14.25 21.5H9.25C9.11193 21.5 9 21.3881 9 21.25V14.25Z" fill="black"/>
<path fill-rule="evenodd" clip-rule="evenodd" d="M8 16.4721C8 15.1068 6.89319 14 5.52786 14H3V21.5H4.5L4.5 19L5.49903 18.8249L6.5 21.5H8.5L7 18.5C7.61287 18.1936 8 17.5672 8 16.882V16.4721ZM4.5 17.5V15.5H5.5731C6.08501 15.5 6.5 15.915 6.5 16.4269C6.5 16.7781 6.3015 17.0992 5.9873 17.2561L5.96135 17.2691C5.65731 17.4209 5.3221 17.5 4.98223 17.5H4.5Z" fill="black"/>
</svg>
