<?xml version="1.0" encoding="UTF-8" standalone="no"?>
<!-- Created with Inkscape (http://www.inkscape.org/) -->

<svg
   xmlns:dc="http://purl.org/dc/elements/1.1/"
   xmlns:cc="http://creativecommons.org/ns#"
   xmlns:rdf="http://www.w3.org/1999/02/22-rdf-syntax-ns#"
   xmlns:svg="http://www.w3.org/2000/svg"
   xmlns="http://www.w3.org/2000/svg"
   xmlns:sodipodi="http://sodipodi.sourceforge.net/DTD/sodipodi-0.dtd"
   xmlns:inkscape="http://www.inkscape.org/namespaces/inkscape"
   width="192.10052mm"
   height="19.595116mm"
   viewBox="0 0 680.67115 69.431512"
   id="svg4997"
   version="1.1"
   inkscape:version="0.92.4 (5da689c313, 2019-01-14)"
   sodipodi:docname="drive.svg">
  <defs
     id="defs4999" />
  <sodipodi:namedview
     id="base"
     pagecolor="#ffffff"
     bordercolor="#666666"
     borderopacity="1.0"
     inkscape:pageopacity="0.0"
     inkscape:pageshadow="2"
     inkscape:zoom="1.979899"
     inkscape:cx="267.29428"
     inkscape:cy="35.085787"
     inkscape:document-units="px"
     inkscape:current-layer="layer1"
     showgrid="false"
     inkscape:window-width="2560"
     inkscape:window-height="1017"
     inkscape:window-x="-8"
     inkscape:window-y="-8"
     inkscape:window-maximized="1"
     fit-margin-top="0"
     fit-margin-left="0"
     fit-margin-right="0"
     fit-margin-bottom="0" />
  <metadata
     id="metadata5002">
    <rdf:RDF>
      <cc:Work
         rdf:about="">
        <dc:format>image/svg+xml</dc:format>
        <dc:type
           rdf:resource="http://purl.org/dc/dcmitype/StillImage" />
        <dc:title />
      </cc:Work>
    </rdf:RDF>
  </metadata>
  <g
     inkscape:label="Layer 1"
     inkscape:groupmode="layer"
     id="layer1"
     transform="translate(-122.52156,-466.21787)">
    <path
       style="display:inline;fill:#ff6600;fill-opacity:1;stroke-width:1.33024216"
       d="m 182.09665,535.58425 c -7.19022,-1.10994 -12.3983,-7.52224 -11.8812,-14.62838 0.39486,-5.4263 3.84034,-10.0296 8.99199,-12.01363 2.02856,-0.78125 5.8151,-0.98462 8.01367,-0.43038 4.52512,1.14073 8.32699,4.60613 9.76154,8.89766 0.72255,2.16155 0.89604,5.59184 0.38561,7.62473 -1.23484,4.91802 -4.79947,8.63456 -9.69636,10.1095 -1.28201,0.38615 -4.35471,0.62892 -5.57525,0.4405 z"
       id="path7769-0"
       inkscape:connector-curvature="0" />
    <path
       style="display:inline;fill:#ff6600;fill-opacity:1;stroke-width:1.33024216"
       d="m 556.00153,529.03495 c -4.9066,-2.06736 -6.167,-8.43939 -2.41213,-12.19433 3.82498,-3.82494 10.38175,-2.41326 12.2808,2.64407 1.35259,3.60203 -0.27509,7.66672 -3.76552,9.40347 -1.68927,0.84056 -4.30706,0.90351 -6.10315,0.14679 z"
       id="path7771-5"
       inkscape:connector-curvature="0" />
    <path
       style="display:inline;fill:#ffffff;fill-opacity:1;stroke-width:1.33024216"
       d="m 338.08821,485.03506 c -0.62733,-0.009 -1.27272,-0.002 -1.93349,0.0207 -3.48596,0.12034 -6.04208,0.5035 -8.87405,1.32857 -1.7478,0.50921 -5.30004,1.921 -5.73637,2.28022 -0.20748,0.17081 0.19746,1.17324 1.64138,4.0573 l 1.91652,3.82928 1.99945,-0.78583 c 4.05384,-1.59297 6.00147,-2.01061 9.39416,-2.0164 2.7201,-0.004 3.17785,0.0513 3.9838,0.4862 2.02519,1.09278 2.77599,2.47415 2.99069,5.49893 l 0.14322,2.01263 -4.87705,0.14699 c -6.33099,0.19047 -8.95375,0.52712 -12.25293,1.57166 -6.24013,1.97568 -9.09646,5.7478 -9.09454,12.00984 10e-4,7.82753 4.22106,12.62385 11.59902,13.18763 1.189,0.0909 2.5187,0.13263 2.95676,0.0923 0.43805,-0.0403 4.53567,-0.17773 9.10395,-0.30529 4.56829,-0.12757 9.55891,-0.29585 11.09209,-0.37313 l 2.78904,-0.13945 v -15.11546 c 0,-12.85229 -0.0536,-15.37851 -0.35805,-16.86993 -1.44066,-7.0593 -7.07378,-10.77999 -16.4836,-10.91684 z m 5.34816,23.51274 -0.0245,2.72308 c -0.0208,2.20695 -0.11998,2.96921 -0.52011,4.01019 -0.68495,1.7817 -2.01203,3.21147 -3.80291,4.0931 h -10e-4 c -1.32306,0.65136 -1.72724,0.73612 -3.79912,0.79903 -3.10953,0.0943 -4.55569,-0.43414 -5.50459,-2.00887 -0.71475,-1.18616 -0.6481,-4.25338 0.12438,-5.76652 1.30446,-2.55522 4.36495,-3.62757 10.7981,-3.78405 l 2.73062,-0.066 z"
       id="path7773-7"
       inkscape:connector-curvature="0" />
    <path
       style="display:inline;fill:#ffffff;fill-opacity:1;stroke-width:1.33024216"
       d="m 293.01882,485.05767 c -3.4343,0.0669 -6.84678,0.81129 -9.55436,2.21993 -6.48746,3.37514 -10.02715,10.47554 -9.9953,20.05282 0.0168,5.05301 1.14891,9.45917 3.29785,12.8409 1.20455,1.89557 4.04185,4.57366 6.04166,5.70246 1.97851,1.11676 4.4568,1.98448 6.95941,2.43663 2.42284,0.43774 9.13467,0.45471 11.91184,0.0302 2.40718,-0.368 3.82392,-0.75523 6.42798,-1.75445 l 1.76389,-0.67654 v -4.51334 -4.51335 l -1.87696,0.79902 c -4.18745,1.782 -10.3351,2.78669 -14.1751,2.31793 -4.87834,-0.59554 -7.88531,-3.69822 -8.49527,-8.76475 l -0.17526,-1.44917 h 13.64368 13.6437 l -0.13196,-4.72064 c -0.14145,-5.06815 -0.39264,-6.67016 -1.47743,-9.44882 -1.5423,-3.95049 -4.34039,-6.95186 -8.12403,-8.71387 -2.79464,-1.30143 -6.25008,-1.91182 -9.68438,-1.84491 z m 0.47112,8.28609 c 1.3345,-0.0254 2.67216,0.21669 3.79724,0.76133 2.12117,1.02683 3.78793,3.71956 4.08934,6.60324 l 0.14134,1.34176 h -7.99776 -7.99777 v -0.63507 c 0,-1.7318 1.0715,-4.44359 2.31415,-5.85887 1.21283,-1.38135 3.42929,-2.17009 5.65346,-2.21239 z"
       id="path7775-0"
       inkscape:connector-curvature="0" />
    <path
       style="display:inline;fill:#ffffff;fill-opacity:1;stroke-width:1.33024216"
       d="m 519.42405,528.42985 c -3.90208,-0.57315 -8.32691,-2.33313 -11.04568,-4.39345 -4.58858,-3.47733 -7.50533,-8.78134 -8.8708,-16.13077 -0.57033,-3.06982 -0.57425,-11.56168 -0.007,-14.3613 1.75457,-8.65391 6.11138,-14.71192 13.10361,-18.22064 7.87073,-3.94952 18.95115,-4.2906 28.78376,-0.88603 1.26626,0.43842 2.39537,0.88684 2.5091,0.9965 0.12238,0.11822 -0.56469,2.06224 -1.68887,4.7762 -1.49174,3.60139 -1.97235,4.55204 -2.2549,4.46045 -0.19754,-0.064 -1.33197,-0.49351 -2.52099,-0.95445 -3.27223,-1.26854 -5.92615,-1.75608 -9.5575,-1.75577 -2.41262,2e-4 -3.45312,0.10334 -4.84715,0.48051 -5.71513,1.54622 -9.796,5.9292 -11.32269,12.16095 -0.60506,2.47018 -0.80904,6.90143 -0.45667,9.92566 0.91006,7.81031 4.32343,12.53177 10.13196,14.0147 1.64103,0.41896 6.65733,0.44421 9.33905,0.047 l 1.8205,-0.26965 0.0608,-5.74592 0.0608,-5.7459 h -5.12406 -5.12398 v -4.89255 -4.89256 h 10.92286 10.92295 v 14.30684 14.30684 l -2.44631,0.71129 c -5.64777,1.64224 -10.66841,2.31924 -16.89493,2.27821 -2.31623,-0.0153 -4.78858,-0.11254 -5.49418,-0.21617 z"
       id="path7777-4"
       inkscape:connector-curvature="0" />
    <path
       style="display:inline;fill:#ff6600;fill-opacity:1;stroke-width:1.33024216"
       d="m 622.39325,469.54646 c -1.66972,0.005 -2.71928,0.0208 -2.74389,0.0452 -0.19661,0.19652 -5.26257,12.42524 -5.73254,13.83779 -0.27749,0.8339 -0.78538,2.6702 -1.12885,4.07991 -0.34333,1.40971 -0.73017,2.59704 -0.85933,2.64016 -0.12904,0.0431 -0.72458,-0.54573 -1.32479,-1.30971 -2.52746,-3.21706 -4.76945,-4.20418 -9.45443,-4.16095 -2.27285,0.021 -3.3006,0.14591 -5.11452,0.62 -8.1621,2.13315 -15.31295,8.75037 -19.94352,18.45666 -1.93563,4.0573 -2.89301,7.67993 -3.09813,11.72339 -0.37407,7.37307 2.80428,11.78935 9.32446,12.95775 1.74901,0.3134 7.08341,0.11533 8.69127,-0.32225 2.97017,-0.80851 5.22759,-2.01808 7.5059,-4.02339 0.58397,-0.51412 1.11407,-0.88324 1.17779,-0.81975 0.0958,0.0951 -0.49658,2.75895 -0.95924,4.32112 -0.11041,0.37344 0.33576,0.39953 7.14793,0.39953 h 7.26472 l 2.64199,-6.20186 c 1.45369,-3.41055 7.04363,-16.54405 12.4206,-29.18505 l 9.77675,-22.9832 -9.1228,-0.0603 c -2.5087,-0.0164 -4.79978,-0.0204 -6.46937,-0.0151 z m -18.53772,26.75406 c 1.30457,-0.0524 2.34309,0.46264 2.83807,1.5057 1.23327,2.59902 -0.8459,9.91164 -4.05364,14.25615 -1.17793,1.59526 -3.43935,3.67082 -4.64135,4.25894 -2.31116,1.13072 -4.45206,0.86412 -5.59327,-0.6935 -0.39096,-0.53402 -0.46771,-0.95852 -0.45042,-2.5026 0.0678,-5.82143 4.70626,-13.83413 9.32633,-16.10858 0.91294,-0.44937 1.79143,-0.68466 2.57428,-0.71611 z"
       id="path7779-7"
       inkscape:connector-curvature="0" />
    <path
       style="display:inline;fill:#ff6600;fill-opacity:1;stroke-width:1.33024216"
       d="m 786.03074,484.59409 c -1.1508,-0.005 -2.33897,0.0408 -3.55428,0.13945 -9.67844,0.78605 -16.82862,3.8866 -22.84358,9.90486 -5.45945,5.46238 -8.63208,12.23209 -9.11721,19.45544 -0.51507,7.66769 4.84979,13.19236 13.90941,14.32398 2.29027,0.28607 7.98717,0.29341 11.03542,0.015 3.64154,-0.33249 7.72312,-1.19053 11.48225,-2.41404 1.75725,-0.57191 3.21999,-1.05896 3.24885,-1.08357 0.11041,-0.0943 1.66041,-9.98385 1.5774,-10.06693 -0.0479,-0.0483 -1.76682,0.46862 -3.81792,1.14953 -5.51027,1.82924 -6.87124,2.07203 -11.5803,2.07294 -3.73971,6.6e-4 -4.04885,-0.0313 -5.07487,-0.54085 -0.601,-0.29842 -1.36775,-0.90487 -1.7055,-1.3474 -0.53303,-0.699 -0.61431,-1.01636 -0.61431,-2.41592 v -1.61123 l 4.50207,-0.14699 c 13.09291,-0.42933 21.002,-2.90281 25.9078,-8.10329 3.49415,-3.70403 4.77916,-9.07334 3.02843,-12.64868 -2.03155,-4.14917 -8.32838,-6.65063 -16.38366,-6.68239 z m -3.8746,9.84644 c 2.55832,0.003 3.78188,1.05343 3.46941,2.97938 -0.39961,2.46276 -3.24407,4.45904 -7.43433,5.21625 -0.93862,0.16964 -2.65476,0.31274 -3.8142,0.3166 l -2.1087,0.008 0.3581,-0.85367 c 1.15079,-2.75614 3.817,-5.6472 6.36388,-6.90099 1.32479,-0.65217 1.79516,-0.76703 3.16584,-0.76511 z"
       id="path7781-3"
       inkscape:connector-curvature="0" />
    <path
       style="display:inline;fill:#ffffff;fill-opacity:1;stroke-width:1.33024216"
       d="m 226.585,472.92158 v 27.53423 27.53612 l 11.54812,-10e-4 c 7.02376,-3.8e-4 12.35099,-0.098 13.59658,-0.25063 6.67046,-0.81745 11.87512,-3.9738 14.22223,-8.62341 1.21909,-2.41502 1.4739,-3.67738 1.46425,-7.28166 -0.008,-2.96669 -0.0708,-3.48626 -0.62565,-5.15596 -1.16505,-3.50603 -3.32538,-5.63893 -7.00276,-6.9123 -1.90267,-0.65883 -2.54217,-1.13046 -1.53396,-1.13069 1.01949,-3.4e-4 3.38376,-1.3333 4.63207,-2.61189 2.3271,-2.38357 3.46969,-5.9873 3.22058,-10.16304 -0.21847,-3.66232 -1.28732,-6.10401 -3.64836,-8.33697 -2.45815,-2.32482 -6.45967,-3.72459 -12.48286,-4.36636 -1.21536,-0.1295 -6.97463,-0.23556 -12.79944,-0.23556 H 226.585 Z m 11.83269,9.55811 3.92538,0.004 c 6.20967,0.007 8.6103,0.50199 10.29872,2.1257 1.20757,1.1613 1.5806,2.37102 1.40207,4.53408 -0.2273,2.75387 -1.57436,4.32149 -4.36071,5.06926 -0.96159,0.25807 -2.82915,0.40319 -6.31493,0.49186 l -4.95053,0.12626 v -6.17546 -6.17546 z m 0,21.57549 5.51777,0.098 c 6.1285,0.10747 7.00368,0.2649 8.96828,1.61878 0.74586,0.514 1.31122,1.15597 1.74881,1.98813 0.61002,1.16001 0.64044,1.35784 0.55592,3.50515 -0.0689,1.74963 -0.20085,2.48886 -0.57101,3.19797 -0.95842,1.83604 -2.59344,2.97013 -5.02404,3.4863 -0.6844,0.14534 -3.36497,0.2563 -6.19996,0.2563 h -4.99577 v -7.07437 -7.07625 z"
       id="path7783-6"
       inkscape:connector-curvature="0" />
    <path
       style="display:inline;fill:#ffffff;fill-opacity:1;stroke-width:1.33024216"
       d="m 365.16927,506.94191 v -21.04936 h 4.40532 4.40531 l 0.74691,2.61695 c 0.79846,2.79765 1.1885,3.22893 1.83225,2.02606 0.62001,-1.15852 3.01553,-3.1115 4.88079,-3.97915 2.48105,-1.15408 4.03064,-1.45138 7.39572,-1.4189 5.4896,0.053 9.41143,1.74833 11.70699,5.06082 0.89997,1.29865 1.4308,1.23753 2.5903,-0.29822 2.59585,-3.43818 8.27713,-5.35733 13.91806,-4.70154 6.36247,0.73968 9.91093,3.61814 11.51563,9.34129 0.37961,1.35391 0.42117,2.8326 0.49102,17.46527 l 0.0764,15.98614 h -5.81284 -5.81283 v -13.55182 c 0,-14.89852 -0.0568,-15.63779 -1.36033,-17.69321 -0.39159,-0.61745 -1.0916,-1.28685 -1.75097,-1.67443 -1.00196,-0.58894 -1.2887,-0.64509 -3.2604,-0.63842 -1.70193,0.006 -2.38559,0.10923 -3.21371,0.48637 -2.22062,1.01134 -3.61295,2.89847 -4.45015,6.03163 -0.33408,1.25026 -0.39564,3.12056 -0.46864,14.2396 l -0.0841,12.80028 h -5.79064 -5.79061 l -10e-4,-13.14162 c 0,-8.03357 -0.0942,-13.71657 -0.2395,-14.62077 -0.67237,-4.18241 -2.91387,-6.1395 -6.70342,-5.8529 -3.77848,0.28577 -5.78203,2.10796 -7.0114,6.37666 -0.4473,1.55312 -0.47599,2.30177 -0.55352,14.43835 l -0.0817,12.80028 h -5.78907 -5.78908 v -21.04936 z"
       id="path7785-5"
       inkscape:connector-curvature="0" />
    <path
       style="display:inline;fill:#ffffff;fill-opacity:1;stroke-width:1.33024216"
       d="m 440.26429,500.45332 v -27.53794 l 7.43472,0.06 7.4347,0.06 10.29778,17.74973 10.29773,17.74973 1.5533,0.0658 1.55331,0.0658 -0.0708,-17.8724 -0.0706,-17.87241 h 5.24764 5.24769 v 27.53484 27.53484 l -7.4526,-0.003 -7.45262,-0.003 -10.33387,-17.9743 -10.33389,-17.97428 -1.49928,-2e-5 -1.49929,-1e-5 0.0804,17.97731 0.0804,17.97732 h -5.25743 -5.25742 v -27.53796 z"
       id="path7787-8"
       inkscape:connector-curvature="0" />
    <path
       style="display:inline;fill:#ff6600;fill-opacity:1;stroke-width:1.33024216"
       d="m 626.26692,523.61074 c 1.02495,-2.40929 5.0794,-11.9698 9.00973,-21.24558 l 7.14606,-16.86504 7.41025,-0.15226 c 4.07573,-0.0838 10.12407,-0.31418 13.44077,-0.51209 5.35914,-0.31979 12.7932,-0.33454 13.10182,-0.026 0.0612,0.0606 -1.28781,3.33163 -2.99624,7.26902 l -3.10638,7.15889 -1.16716,-0.31591 c -0.64184,-0.17375 -2.19117,-0.37044 -3.44266,-0.43711 -6.67143,-0.35536 -11.15821,2.66859 -14.54354,9.80194 -0.65887,1.38813 -2.82743,6.38581 -4.81894,11.10594 l -3.62118,8.58207 -9.13823,0.008 -9.13797,0.009 1.86367,-4.38056 z"
       id="path7789-7"
       inkscape:connector-curvature="0" />
    <path
       style="display:inline;fill:#ff6600;fill-opacity:1;stroke-width:1.33024216"
       d="m 664.9344,527.70944 c 0.0652,-0.15788 4.1151,-9.70806 9.00002,-21.22263 l 8.88163,-20.93558 9.11628,-0.0594 c 5.01408,-0.0327 9.11522,0.0185 9.11402,0.11378 0,0.0953 -4.04061,9.64546 -8.97594,21.22261 l -8.97341,21.04937 -9.14063,0.0596 c -7.28574,0.0474 -9.11642,9.6e-4 -9.02197,-0.22756 z"
       id="path7791-3"
       inkscape:connector-curvature="0" />
    <path
       style="display:inline;fill:#ff6600;fill-opacity:1;stroke-width:1.33024216"
       d="m 704.46188,520.8826 c 0,-3.91261 -0.0692,-13.48839 -0.15098,-21.2795 l -0.15098,-14.16566 h 9.15366 9.1538 l -0.13037,0.96714 c -0.0718,0.53192 -0.487,4.55121 -0.92239,8.93176 -0.43539,4.38053 -0.84111,8.24623 -0.90164,8.59041 l -0.11041,0.62579 2.09926,-0.008 2.09925,-0.008 7.10523,-9.55015 7.10549,-9.55016 h 9.69267 9.69268 l -0.4604,0.6258 c -0.25328,0.34418 -8.22821,9.8932 -17.72215,21.22003 l -17.26149,20.59424 -9.14555,0.0595 -9.14568,0.0595 -2.6e-4,-7.11385 z"
       id="path7793-3"
       inkscape:connector-curvature="0" />
    <path
       style="display:inline;fill:#ffffff;fill-opacity:1;stroke-width:1.33024216"
       d="m 161.8913,516.56783 c -3.09253,-1.52466 -5.62277,-2.83979 -5.62277,-2.92253 0,-0.0827 0.50533,-0.90924 1.12297,-1.83667 1.00178,-1.50424 2.51799,-4.76587 2.51799,-5.41662 0,-0.1356 0.10083,-0.24654 0.224,-0.24654 0.12318,0 2.67388,1.18919 5.66818,2.64266 l 5.44415,2.64265 -1.00202,1.49409 c -1.03091,1.53712 -1.7114,3.10416 -2.16961,4.99617 -0.14408,0.59489 -0.32904,1.15749 -0.41104,1.25024 -0.0819,0.0927 -2.67933,-1.07881 -5.77185,-2.60345 z"
       id="path7795-7"
       inkscape:connector-curvature="0" />
    <path
       style="display:inline;fill:#ff6600;fill-opacity:1;stroke-width:1.33024216"
       d="m 137.09958,517.97115 c -5.46391,-0.92002 -10.42697,-4.71706 -12.92897,-9.89142 -1.2621,-2.61012 -1.66035,-4.47896 -1.64881,-7.73706 0.008,-2.28833 0.10894,-3.06253 0.62274,-4.77877 3.56662,-11.91482 17.36078,-16.60846 27.51523,-9.36239 2.90037,2.06967 5.10768,5.1101 6.35131,8.74854 0.85938,2.51422 1.09829,6.48088 0.54653,9.07412 -1.48749,6.99127 -6.90116,12.39294 -13.85222,13.82153 -1.83773,0.37769 -4.77638,0.43351 -6.60581,0.12544 z"
       id="path7797-0"
       inkscape:connector-curvature="0" />
    <path
       style="display:inline;fill:#ffffff;fill-opacity:1;stroke-width:1.33024216"
       d="m 178.34191,506.05532 c 0,-0.20393 -0.51202,-4.372 -1.13781,-9.26238 -0.62578,-4.89038 -1.13781,-8.91894 -1.13781,-8.95236 0,-0.0334 0.76716,-0.1256 1.7048,-0.20486 1.99531,-0.16866 4.11645,-0.83086 5.63075,-1.75788 l 1.07761,-0.65969 0.11214,0.50788 c 0.0616,0.27934 0.62508,4.60397 1.25198,9.61031 0.62689,5.00633 1.18856,9.37807 1.24816,9.71498 l 0.10828,0.61257 -2.32416,-0.1237 c -2.16647,-0.11531 -3.77658,0.0816 -6.02202,0.73657 -0.38259,0.11159 -0.51201,0.0556 -0.51201,-0.22144 z"
       id="path7799-8"
       inkscape:connector-curvature="0" />
    <path
       style="display:inline;fill:#ffffff;fill-opacity:1;stroke-width:1.33024216"
       d="m 157.9274,489.95518 c -0.59286,-0.99666 -1.77391,-2.56743 -2.62455,-3.4906 l -1.54663,-1.6785 5.58224,-3.78233 c 3.07024,-2.08028 5.6701,-3.72804 5.77747,-3.66167 0.10735,0.0664 0.26166,0.53599 0.34283,1.04362 0.234,1.46339 1.43706,3.75475 2.69275,5.12868 l 1.15535,1.26413 -0.5407,0.38636 c -0.29737,0.21249 -2.61522,1.78497 -5.15076,3.49439 l -4.61009,3.10804 z"
       id="path7801-5"
       inkscape:connector-curvature="0" />
    <path
       style="display:inline;fill:#ff6600;fill-opacity:1;stroke-width:1.33024216"
       d="m 174.08051,484.55529 c -4.29203,-1.49991 -6.98263,-5.99778 -6.24623,-10.4418 1.40723,-8.49243 12.60672,-10.82107 17.22397,-3.58127 1.17103,1.83614 1.54351,3.27618 1.43492,5.54741 -0.077,1.60943 -0.22522,2.24999 -0.81016,3.49996 -0.92639,1.97966 -2.56249,3.61817 -4.55558,4.56232 -1.34766,0.6384 -1.79647,0.73285 -3.69577,0.77782 -1.61227,0.0382 -2.46417,-0.0544 -3.35115,-0.36444 z"
       id="path7803-8"
       inkscape:connector-curvature="0" />
    <path
       style="display:inline;fill:#ff6600;fill-opacity:1;stroke-width:1.33024216"
       d="m 690.69481,480.79493 c -3.28597,-0.80907 -4.50247,-2.38884 -3.97942,-5.16754 0.94407,-5.01485 5.44149,-7.68156 12.51292,-7.41931 3.36139,0.12466 4.89689,0.54179 6.14492,1.66931 1.57155,1.41977 1.71961,3.30145 0.46638,5.92787 -1.19682,2.50808 -3.66668,4.27173 -6.95277,4.9647 -1.92407,0.40578 -6.58776,0.41999 -8.19203,0.025 z"
       id="path7805-2"
       inkscape:connector-curvature="0" />
  </g>
</svg>
