<?xml version="1.0" encoding="UTF-8" standalone="no"?>
<!-- Created with Inkscape (http://www.inkscape.org/) -->

<svg
   xmlns:osb="http://www.openswatchbook.org/uri/2009/osb"
   xmlns:dc="http://purl.org/dc/elements/1.1/"
   xmlns:cc="http://creativecommons.org/ns#"
   xmlns:rdf="http://www.w3.org/1999/02/22-rdf-syntax-ns#"
   xmlns:svg="http://www.w3.org/2000/svg"
   xmlns="http://www.w3.org/2000/svg"
   xmlns:sodipodi="http://sodipodi.sourceforge.net/DTD/sodipodi-0.dtd"
   xmlns:inkscape="http://www.inkscape.org/namespaces/inkscape"
   width="873.59912"
   height="72.193909"
   id="svg2"
   version="1.1"
   inkscape:version="0.91 r13725"
   sodipodi:docname="research.svg">
  <defs
     id="defs4">
    <linearGradient
       osb:paint="solid"
       id="linearGradient4006">
      <stop
         id="stop4008"
         offset="0"
         style="stop-color:#ff6600;stop-opacity:1;" />
    </linearGradient>
  </defs>
  <sodipodi:namedview
     id="base"
     pagecolor="#ffffff"
     bordercolor="#666666"
     borderopacity="1.0"
     inkscape:pageopacity="0.0"
     inkscape:pageshadow="2"
     inkscape:zoom="4.5168799"
     inkscape:cx="76.943485"
     inkscape:cy="43.451664"
     inkscape:document-units="px"
     inkscape:current-layer="layer2"
     showgrid="false"
     inkscape:window-width="1440"
     inkscape:window-height="906"
     inkscape:window-x="-8"
     inkscape:window-y="-8"
     inkscape:window-maximized="1"
     fit-margin-top="0"
     fit-margin-left="0"
     fit-margin-right="0"
     fit-margin-bottom="0" />
  <metadata
     id="metadata7">
    <rdf:RDF>
      <cc:Work
         rdf:about="">
        <dc:format>image/svg+xml</dc:format>
        <dc:type
           rdf:resource="http://purl.org/dc/dcmitype/StillImage" />
        <dc:title />
      </cc:Work>
    </rdf:RDF>
  </metadata>
  <g
     inkscape:groupmode="layer"
     id="layer3"
     inkscape:label="base"
     style="display:inline"
     transform="translate(-10.798082,-965.85219)" />
  <g
     inkscape:label="Misc"
     inkscape:groupmode="layer"
     id="layer1"
     style="display:inline"
     transform="translate(-10.798082,-965.85219)">
    <g
       id="text2985-8-5-6-8-4-8-1"
       style="font-style:normal;font-variant:normal;font-weight:bold;font-stretch:normal;font-size:119.38450623px;line-height:125%;font-family:'Open Sans';-inkscape-font-specification:'Open Sans Bold';letter-spacing:-0.10446144px;word-spacing:0px;fill:#000000;fill-opacity:1;stroke:none"
       transform="matrix(1,0,-0.19270189,1,-680.7901,-311.11261)" />
    <g
       id="g4334" />
  </g>
  <g
     inkscape:groupmode="layer"
     id="layer4"
     inkscape:label="LOGO"
     transform="translate(-10.798082,-965.85219)" />
  <g
     inkscape:groupmode="layer"
     id="layer2"
     inkscape:label="Logo Research"
     transform="translate(-10.798082,-965.85219)">
    <g
       id="g4231"
       transform="matrix(0.70560385,0,0,0.70560385,3.6171149,284.78595)">
      <path
         inkscape:export-ydpi="61.085434"
         inkscape:export-xdpi="61.085434"
         inkscape:export-filename="C:\Users\sam\Desktop\bitmap.png"
         id="path4084-39-1-8-9-5-4-1-1-2"
         d="m 47.713692,1001.5037 c 0,10.194 -8.26387,18.4578 -18.45781,18.4578 -10.19397,0 -18.4578,-8.2638 -18.4578,-18.4578 0,-10.19378 8.26383,-18.45763 18.4578,-18.45763 10.19394,0 18.45781,8.26385 18.45781,18.45763 z"
         style="color:#000000;display:inline;overflow:visible;visibility:visible;fill:#ff6600;fill-opacity:1;fill-rule:nonzero;stroke:none;stroke-width:20.59053993;marker:none;enable-background:accumulate"
         inkscape:connector-curvature="0" />
      <path
         inkscape:export-ydpi="61.085434"
         inkscape:export-xdpi="61.085434"
         inkscape:export-filename="C:\Users\sam\Desktop\bitmap.png"
         id="path4084-3-1-2-3-8-1-8-23-7-9"
         d="m 77.449462,975.72548 c 0,5.45288 -4.42043,9.87329 -9.8733,9.87329 -5.4529,0 -9.87332,-4.42041 -9.87332,-9.87329 0,-5.45288 4.42042,-9.87329 9.87332,-9.87329 5.45287,0 9.8733,4.42041 9.8733,9.87329 z"
         style="color:#000000;display:inline;overflow:visible;visibility:visible;fill:#ff6600;fill-opacity:1;fill-rule:nonzero;stroke:none;stroke-width:20.59053993;marker:none;enable-background:accumulate"
         inkscape:connector-curvature="0" />
      <path
         inkscape:export-ydpi="61.085434"
         inkscape:export-xdpi="61.085434"
         inkscape:export-filename="C:\Users\sam\Desktop\bitmap.png"
         id="path4084-3-4-2-2-9-5-7-8-3-4-1"
         d="m 88.979982,1023.6939 c 0,7.9266 -6.42569,14.3522 -14.35219,14.3522 -7.92649,0 -14.35215,-6.4256 -14.35215,-14.3522 0,-7.9264 6.42566,-14.352 14.35215,-14.352 7.9265,0 14.35219,6.4256 14.35219,14.352 z"
         style="color:#000000;display:inline;overflow:visible;visibility:visible;fill:#ff6600;fill-opacity:1;fill-rule:nonzero;stroke:none;stroke-width:20.59053993;marker:none;enable-background:accumulate"
         inkscape:connector-curvature="0" />
      <path
         inkscape:export-ydpi="61.085434"
         inkscape:export-xdpi="61.085434"
         inkscape:export-filename="C:\Users\sam\Desktop\bitmap.png"
         inkscape:connector-curvature="0"
         id="path3193-3"
         d="m 55.123332,977.27737 -11.8125,8 c 2.27646,1.97805 4.15328,4.4192 5.4375,7.1875 l 10.6875,-7.21875 c -2.31777,-1.98299 -3.91632,-4.78929 -4.3125,-7.96875 z m 20.09375,8.375 c -2.11231,1.63169 -4.74757,2.625 -7.625,2.625 -0.38019,0 -0.75337,-0.0293 -1.125,-0.0625 l 2.46875,19.40623 c 1.78026,-0.6304 3.69135,-1 5.6875,-1 1.13281,0 2.24145,0.1017 3.3125,0.3125 l -2.71875,-21.28123 z m -25.28125,21.62503 c -0.82487,2.9549 -2.27816,5.6431 -4.1875,7.9375 l 12.03125,5.875 c 0.47211,-3.0894 1.75997,-5.9091 3.65625,-8.2188 l -11.5,-5.5937 z"
         style="color:#000000;font-style:normal;font-variant:normal;font-weight:normal;font-stretch:normal;font-size:medium;line-height:normal;font-family:Sans;-inkscape-font-specification:Sans;text-indent:0;text-align:start;text-decoration:none;text-decoration-line:none;letter-spacing:normal;word-spacing:normal;text-transform:none;direction:ltr;block-progression:tb;writing-mode:lr-tb;baseline-shift:baseline;text-anchor:start;display:inline;overflow:visible;visibility:visible;fill:#000000;fill-opacity:1;stroke:none;stroke-width:9;marker:none;enable-background:accumulate" />
      <path
         d="m 118.9164,972.90796 17.77344,0 q 12.14844,0 17.61719,3.47656 5.50781,3.4375 5.50781,10.97656 0,5.11719 -2.42187,8.39844 -2.38282,3.28125 -6.36719,3.94531 l 0,0.39067 q 5.42969,1.2109 7.8125,4.5312 2.42187,3.3203 2.42187,8.8281 0,7.8125 -5.66406,12.1875 -5.625,4.375 -15.3125,4.375 l -21.36719,0 0,-57.10934 z m 12.10938,22.61719 7.03125,0 q 4.92187,0 7.10937,-1.52344 2.22657,-1.52344 2.22657,-5.03906 0,-3.28125 -2.42188,-4.6875 -2.38281,-1.44532 -7.57812,-1.44532 l -6.36719,0 0,12.69532 z m 0,9.60935 0,14.8828 7.89062,0 q 5,0 7.38282,-1.914 2.38281,-1.9141 2.38281,-5.8594 0,-7.1094 -10.15625,-7.1094 l -7.5,0 z"
         style="font-style:normal;font-variant:normal;font-weight:bold;font-stretch:normal;font-size:medium;line-height:125%;font-family:'Open Sans';-inkscape-font-specification:'Open Sans Bold';letter-spacing:-1.63999891px;word-spacing:0px;fill:#000000;fill-opacity:1;stroke:none"
         id="path4174"
         inkscape:connector-curvature="0" />
      <path
         d="m 188.17484,994.00171 q -3.78906,0 -5.9375,2.42187 -2.14843,2.38282 -2.46093,6.79692 l 16.71875,0 q -0.0781,-4.4141 -2.30469,-6.79692 -2.22656,-2.42187 -6.01563,-2.42187 z m 1.67969,36.79689 q -10.54687,0 -16.48437,-5.8203 -5.9375,-5.8203 -5.9375,-16.4844 0,-10.97657 5.46875,-16.95313 5.50781,-6.01562 15.19531,-6.01562 9.25781,0 14.41406,5.27343 5.15625,5.27344 5.15625,14.57032 l 0,5.7812 -28.16406,0 q 0.19531,5.0782 3.00781,7.9297 2.8125,2.8516 7.89063,2.8516 3.94531,0 7.46093,-0.8203 3.51563,-0.8203 7.34375,-2.6172 l 0,9.2187 q -3.125,1.5625 -6.67968,2.3047 -3.55469,0.7813 -8.67188,0.7813 z"
         style="font-style:normal;font-variant:normal;font-weight:bold;font-stretch:normal;font-size:medium;line-height:125%;font-family:'Open Sans';-inkscape-font-specification:'Open Sans Bold';letter-spacing:-1.63999891px;word-spacing:0px;fill:#000000;fill-opacity:1;stroke:none"
         id="path4176"
         inkscape:connector-curvature="0" />
      <path
         d="m 243.52703,1030.0173 -2.30469,-5.9375 -0.3125,0 q -3.00781,3.7891 -6.21093,5.2735 -3.16407,1.4453 -8.28125,1.4453 -6.28907,0 -9.92188,-3.5938 -3.59375,-3.5937 -3.59375,-10.2343 0,-6.9532 4.84375,-10.2344 4.88281,-3.3203 14.6875,-3.6719 l 7.57813,-0.2344 0,-1.914 q 0,-6.64065 -6.79688,-6.64065 -5.23437,0 -12.30469,3.16406 l -3.94531,-8.04688 q 7.53906,-3.94531 16.71875,-3.94531 8.78906,0 13.47656,3.82813 4.6875,3.82812 4.6875,11.64065 l 0,29.1015 -8.32031,0 z m -3.51562,-20.2343 -4.60938,0.1562 q -5.19531,0.1563 -7.73437,1.875 -2.53907,1.7188 -2.53907,5.2344 0,5.039 5.78125,5.039 4.14063,0 6.60157,-2.3828 2.5,-2.3828 2.5,-6.3281 l 0,-3.5937 z"
         style="font-style:normal;font-variant:normal;font-weight:bold;font-stretch:normal;font-size:medium;line-height:125%;font-family:'Open Sans';-inkscape-font-specification:'Open Sans Bold';letter-spacing:-1.63999891px;word-spacing:0px;fill:#000000;fill-opacity:1;stroke:none"
         id="path4178"
         inkscape:connector-curvature="0" />
      <path
         d="m 301.53547,1030.0173 -11.91406,0 0,-25.5078 q 0,-4.72654 -1.60157,-7.07029 -1.5625,-2.38281 -4.96093,-2.38281 -4.57032,0 -6.64063,3.35937 -2.07031,3.35933 -2.07031,11.05473 l 0,20.5468 -11.91406,0 0,-43.67184 9.10156,0 1.60156,5.58594 0.66406,0 q 1.75782,-3.00782 5.07813,-4.6875 3.32031,-1.71875 7.61719,-1.71875 9.80468,0 13.28125,6.40625 l 1.05468,0 q 1.75782,-3.04688 5.15625,-4.72657 3.4375,-1.67968 7.73438,-1.67968 7.42187,0 11.21094,3.82812 3.82812,3.78906 3.82812,12.18753 l 0,28.4765 -11.95312,0 0,-25.5078 q 0,-4.72654 -1.60157,-7.07029 -1.5625,-2.38281 -4.96093,-2.38281 -4.375,0 -6.5625,3.125 -2.14844,3.125 -2.14844,9.9219 l 0,21.914 z"
         style="font-style:normal;font-variant:normal;font-weight:bold;font-stretch:normal;font-size:medium;line-height:125%;font-family:'Open Sans';-inkscape-font-specification:'Open Sans Bold';letter-spacing:-1.63999891px;word-spacing:0px;fill:#000000;fill-opacity:1;stroke:none"
         id="path4180"
         inkscape:connector-curvature="0" />
      <path
         d="m 390.98922,1030.0173 -15.39063,0 -24.84375,-43.20309 -0.35156,0 q 0.74219,11.44531 0.74219,16.32809 l 0,26.875 -10.82031,0 0,-57.10934 15.27343,0 24.80469,42.77344 0.27344,0 q -0.58594,-11.1328 -0.58594,-15.74219 l 0,-27.03125 10.89844,0 0,57.10934 z"
         style="font-style:normal;font-variant:normal;font-weight:bold;font-stretch:normal;font-size:medium;line-height:125%;font-family:'Open Sans';-inkscape-font-specification:'Open Sans Bold';letter-spacing:-1.63999891px;word-spacing:0px;fill:#000000;fill-opacity:1;stroke:none"
         id="path4182"
         inkscape:connector-curvature="0" />
      <path
         d="m 425.36486,997.94702 22.65625,0 0,29.60938 q -5.50781,1.7969 -10.39062,2.5 -4.84375,0.7422 -9.92188,0.7422 -12.92969,0 -19.76562,-7.5781 -6.79688,-7.6172 -6.79688,-21.836 0,-13.8281 7.89063,-21.56248 7.92968,-7.73437 21.95312,-7.73437 8.78906,0 16.95313,3.51562 l -4.02344,9.6875 q -6.25,-3.125 -13.00781,-3.125 -7.85157,0 -12.57813,5.27344 -4.72656,5.27344 -4.72656,14.17969 0,9.2969 3.78906,14.2187 3.82813,4.8829 11.09375,4.8829 3.78906,0 7.69531,-0.7813 l 0,-11.9141 -10.82031,0 0,-10.07808 z"
         style="font-style:normal;font-variant:normal;font-weight:bold;font-stretch:normal;font-size:medium;line-height:125%;font-family:'Open Sans';-inkscape-font-specification:'Open Sans Bold';letter-spacing:-1.63999891px;word-spacing:0px;fill:#000000;fill-opacity:1;stroke:none"
         id="path4184"
         inkscape:connector-curvature="0" />
      <path
         inkscape:export-ydpi="61.085434"
         inkscape:export-xdpi="61.085434"
         inkscape:export-filename="C:\Users\sam\Desktop\bitmap.png"
         sodipodi:nodetypes="ccccc"
         inkscape:connector-curvature="0"
         id="rect4720"
         d="m 226.47541,1022.4341 25.35795,0 0,7.5858 -24.7642,0.7813 z"
         style="fill:#000000;fill-opacity:1;fill-rule:nonzero;stroke:none" />
      <path
         id="rect4723"
         d="m 347.97858,985.01453 8.5,0 0,7.75 -8.5,0 z"
         style="fill:#000000;fill-opacity:1;fill-rule:nonzero;stroke:none"
         inkscape:connector-curvature="0" />
      <path
         id="rect4725"
         d="m 375.97858,1010.0145 9,0 0,5.75 -9,0 z"
         style="fill:#000000;fill-opacity:1;fill-rule:nonzero;stroke:none"
         inkscape:connector-curvature="0" />
      <path
         id="path3154-9-6"
         d="m 471.08572,1023.9431 a 7.8571429,7.8571429 0 0 1 -7.85714,7.8572 7.8571429,7.8571429 0 0 1 -7.85715,-7.8572 7.8571429,7.8571429 0 0 1 7.85715,-7.8571 7.8571429,7.8571429 0 0 1 7.85714,7.8571 z"
         style="color:#000000;display:inline;overflow:visible;visibility:visible;fill:#fc6b03;fill-opacity:1;fill-rule:nonzero;stroke:none;stroke-width:20.59053993;marker:none;enable-background:accumulate"
         inkscape:connector-curvature="0" />
      <path
         d="m 522.76374,984.97838 q 2.7467,0 3.87419,0.31253 l -6.49746,14.96089 q -2.51204,-0.85935 -5.89637,-0.85935 -5.05197,0 -8.53368,2.77345 -3.42646,2.7344 -5.89607,8.3985 l -8.29036,19.4531 -18.98168,0 18.75542,-44.25781 15.15592,0 -2.05605,7.3828 0.39239,0 q 3.88336,-4.37499 7.90898,-6.25005 4.03183,-1.91406 10.06477,-1.91406 z"
         style="font-style:oblique;font-variant:normal;font-weight:800;font-stretch:normal;font-size:89.64411926px;line-height:125%;font-family:'Open Sans Extrabold';-inkscape-font-specification:'Open Sans Extrabold, Ultra-Bold Oblique';text-align:start;letter-spacing:-2.67000008px;word-spacing:0px;writing-mode:lr-tb;text-anchor:start;fill:#fc6b03;fill-opacity:1;stroke:none"
         id="path4154"
         inkscape:connector-curvature="0" />
      <path
         d="m 538.33909,1030.7988 q -10.39823,0 -15.45345,-4.6095 -5.04903,-4.6484 -3.73928,-12.8906 1.30975,-8.2422 6.42979,-14.84374 5.17529,-6.64057 12.82734,-10.03907 7.70729,-3.43751 17.07551,-3.43751 9.31917,0 14.13159,3.35942 4.81244,3.35933 3.92479,8.94533 -1.24766,7.85147 -9.61864,12.07027 -8.31571,4.1797 -22.834,4.1797 l -2.89384,0 -0.0993,0.625 q -0.91869,5.7813 7.12523,5.7813 3.87482,0 7.74526,-0.8985 3.87664,-0.9375 8.95089,-2.9296 l -1.70081,10.7031 q -5.84721,2.2265 -10.74766,3.125 -4.89425,0.8594 -11.12339,0.8594 z m 13.40451,-35.58599 q -2.99195,0 -6.02602,2.73437 -3.02785,2.69532 -4.11363,6.13282 l 1.4224,0 q 5.34626,0 8.64175,-1.6016 3.30169,-1.6406 3.7238,-4.29688 0.19863,-1.25001 -0.64578,-2.10931 -0.8444,-0.8594 -3.00252,-0.8594 z"
         style="font-style:oblique;font-variant:normal;font-weight:800;font-stretch:normal;font-size:89.64411926px;line-height:125%;font-family:'Open Sans Extrabold';-inkscape-font-specification:'Open Sans Extrabold, Ultra-Bold Oblique';text-align:start;letter-spacing:-2.67000008px;word-spacing:0px;writing-mode:lr-tb;text-anchor:start;fill:#fc6b03;fill-opacity:1;stroke:none"
         id="path4156"
         inkscape:connector-curvature="0" />
      <path
         d="m 613.78853,1014.6659 q -1.23525,7.7734 -8.27572,11.9531 -7.04046,4.1798 -19.00824,4.1798 -10.88872,0 -17.0701,-2.4611 l 1.93047,-12.1483 q 4.20207,1.9531 7.95274,2.7343 3.75067,0.7812 7.72358,0.7812 3.33528,0 5.11465,-0.7031 1.78558,-0.7421 1.99043,-2.0312 0.21725,-1.3672 -0.90282,-2.3438 -1.11387,-1.0156 -5.84866,-3.3202 -4.83909,-2.2657 -6.7769,-5.1954 -1.88878,-2.9296 -1.21838,-7.14845 1.06766,-6.71875 7.57978,-10.35151 6.51213,-3.63286 17.44989,-3.63286 5.4934,0 9.84444,1.01566 4.35106,1.01566 8.28307,3.12498 l -7.49909,9.84373 q -2.97028,-1.67962 -6.29752,-2.6562 -3.27199,-1.01566 -5.77344,-1.01566 -3.72767,0 -4.14977,2.65629 -0.18002,1.13283 1.20393,1.99214 1.43298,0.85938 4.69815,2.22658 10.34063,4.375 9.04951,12.5 z"
         style="font-style:oblique;font-variant:normal;font-weight:800;font-stretch:normal;font-size:89.64411926px;line-height:125%;font-family:'Open Sans Extrabold';-inkscape-font-specification:'Open Sans Extrabold, Ultra-Bold Oblique';text-align:start;letter-spacing:-2.67000008px;word-spacing:0px;writing-mode:lr-tb;text-anchor:start;fill:#fc6b03;fill-opacity:1;stroke:none"
         id="path4158"
         inkscape:connector-curvature="0" />
      <path
         d="m 641.04632,1030.7988 q -10.39823,0 -15.45345,-4.6095 -5.04903,-4.6484 -3.73928,-12.8906 1.30974,-8.2422 6.42978,-14.84374 5.17529,-6.64057 12.82735,-10.03907 7.70728,-3.43751 17.07551,-3.43751 9.31917,0 14.13159,3.35942 4.81244,3.35933 3.92479,8.94533 -1.24767,7.85147 -9.61865,12.07027 -8.31571,4.1797 -22.83399,4.1797 l -2.89385,0 -0.0993,0.625 q -0.91869,5.7813 7.12523,5.7813 3.87481,0 7.74526,-0.8985 3.87664,-0.9375 8.95088,-2.9296 l -1.70081,10.7031 q -5.84721,2.2265 -10.74767,3.125 -4.89424,0.8594 -11.12337,0.8594 z m 13.4045,-35.58599 q -2.99194,0 -6.02602,2.73437 -3.02785,2.69532 -4.11362,6.13282 l 1.42239,0 q 5.34627,0 8.64175,-1.6016 3.3017,-1.6406 3.72381,-4.29688 0.19863,-1.25001 -0.64578,-2.10931 -0.8444,-0.8594 -3.00253,-0.8594 z"
         style="font-style:oblique;font-variant:normal;font-weight:800;font-stretch:normal;font-size:89.64411926px;line-height:125%;font-family:'Open Sans Extrabold';-inkscape-font-specification:'Open Sans Extrabold, Ultra-Bold Oblique';text-align:start;letter-spacing:-2.67000008px;word-spacing:0px;writing-mode:lr-tb;text-anchor:start;fill:#fc6b03;fill-opacity:1;stroke:none"
         id="path4160"
         inkscape:connector-curvature="0" />
      <path
         d="m 699.87286,1018.6503 q 2.45241,0 5.0196,-2.2656 2.62247,-2.3048 4.55508,-6.1329 1.93262,-3.8281 2.51611,-7.4999 0.40348,-2.5391 -0.3354,-4.06259 -0.73268,-1.56245 -2.79271,-1.56245 -3.72766,0 -7.55699,4.96094 -3.77406,4.9219 -4.7362,10.9766 -0.88764,5.5859 3.33051,5.5859 z m 18.59774,11.3672 -15.15591,0 1.25398,-4.8047 -0.39238,0 q -3.23088,3.0469 -6.62386,4.336 -3.38678,1.25 -7.40874,1.25 -7.74962,0 -11.08256,-4.336 -3.32673,-4.375 -2.0294,-12.5391 1.11111,-6.9922 5.8462,-14.25782 4.73508,-7.26562 10.76913,-10.97656 6.08311,-3.71094 12.70463,-3.71094 4.12004,0 7.02324,1.48445 2.90943,1.44527 4.83422,4.7656 l 0.39238,0 3.46858,-5.46874 15.20497,0 -18.80448,44.25781 z"
         style="font-style:oblique;font-variant:normal;font-weight:800;font-stretch:normal;font-size:89.64411926px;line-height:125%;font-family:'Open Sans Extrabold';-inkscape-font-specification:'Open Sans Extrabold, Ultra-Bold Oblique';text-align:start;letter-spacing:-2.67000008px;word-spacing:0px;writing-mode:lr-tb;text-anchor:start;fill:#fc6b03;fill-opacity:1;stroke:none"
         id="path4162"
         inkscape:connector-curvature="0" />
      <path
         d="m 779.72797,984.97838 q 2.74669,0 3.87419,0.31253 l -6.49746,14.96089 q -2.51204,-0.85935 -5.89637,-0.85935 -5.05197,0 -8.53368,2.77345 -3.42647,2.7344 -5.89608,8.3985 l -8.29035,19.4531 -18.98169,0 18.75543,-44.25781 15.15592,0 -2.05605,7.3828 0.39238,0 q 3.88336,-4.37499 7.90899,-6.25005 4.03183,-1.91406 10.06477,-1.91406 z"
         style="font-style:oblique;font-variant:normal;font-weight:800;font-stretch:normal;font-size:89.64411926px;line-height:125%;font-family:'Open Sans Extrabold';-inkscape-font-specification:'Open Sans Extrabold, Ultra-Bold Oblique';text-align:start;letter-spacing:-2.67000008px;word-spacing:0px;writing-mode:lr-tb;text-anchor:start;fill:#fc6b03;fill-opacity:1;stroke:none"
         id="path4164"
         inkscape:connector-curvature="0" />
      <path
         d="m 794.02808,1030.7988 q -9.7606,0 -14.50913,-4.6875 -4.69326,-4.7266 -3.32145,-13.3595 1.24768,-7.8515 5.98714,-14.21866 4.79472,-6.40631 12.12825,-9.96099 7.38879,-3.59377 16.02128,-3.59377 9.56441,0 17.50411,3.12507 l -7.81443,11.21091 q -6.15097,-2.34376 -10.66341,-2.34376 -3.041,0 -5.9385,1.87497 -2.89752,1.87503 -5.16105,5.62503 -2.25735,3.7109 -2.82842,7.3047 -0.56487,3.5547 0.63966,5.2344 1.21075,1.6406 4.39889,1.6406 3.53147,0 6.96046,-0.8984 3.47807,-0.8985 7.45401,-2.4609 l -1.90564,11.9921 q -4.19699,1.7188 -8.70505,2.6172 -4.45901,0.8985 -10.24672,0.8985 z"
         style="font-style:oblique;font-variant:normal;font-weight:800;font-stretch:normal;font-size:89.64411926px;line-height:125%;font-family:'Open Sans Extrabold';-inkscape-font-specification:'Open Sans Extrabold, Ultra-Bold Oblique';text-align:start;letter-spacing:-2.67000008px;word-spacing:0px;writing-mode:lr-tb;text-anchor:start;fill:#fc6b03;fill-opacity:1;stroke:none"
         id="path4166"
         inkscape:connector-curvature="0" />
      <path
         d="m 848.3016,1030.0175 10.16335,-24.1407 q 1.36704,-3.0469 1.76431,-5.5469 0.2669,-1.67959 -0.6818,-2.4999 -0.94249,-0.8594 -2.46299,-0.8594 -6.13103,0 -10.89269,11.4453 l -9.12224,21.6016 -18.98167,0 25.79546,-60.78128 18.98169,0 -4.14518,9.72655 q -2.69744,6.17187 -6.07293,11.05474 l 0.39239,0 q 5.75462,-5.03913 14.19093,-5.03913 6.9158,0 10.25678,3.35942 3.34719,3.32033 2.40988,9.21876 -0.65797,4.14064 -2.64768,8.94534 l -9.96594,23.5156 -18.98167,0 z"
         style="font-style:oblique;font-variant:normal;font-weight:800;font-stretch:normal;font-size:89.64411926px;line-height:125%;font-family:'Open Sans Extrabold';-inkscape-font-specification:'Open Sans Extrabold, Ultra-Bold Oblique';text-align:start;letter-spacing:-2.67000008px;word-spacing:0px;writing-mode:lr-tb;text-anchor:start;fill:#fc6b03;fill-opacity:1;stroke:none"
         id="path4168"
         inkscape:connector-curvature="0" />
      <path
         sodipodi:nodetypes="ccc"
         inkscape:connector-curvature="0"
         id="path3423"
         d="m 496.71198,985.78128 c 13.36653,-0.22139 19.4548,-1.06545 27.32805,-0.77487 -4.70458,3.91587 -21.41966,9.21543 -21.41966,9.21543"
         style="fill:#fc6b03;fill-opacity:1;fill-rule:evenodd;stroke:none;stroke-width:1px;stroke-linecap:butt;stroke-linejoin:miter;stroke-opacity:1" />
    </g>
  </g>
</svg>
