<svg width="24" height="24" viewBox="0 0 24 24" fill="none" xmlns="http://www.w3.org/2000/svg">
<path d="M14.5985 13.5002L17.1962 15C17.7228 14.0879 18 13.0532 18 12C18 10.9468 17.7228 9.91212 17.1962 9C16.6695 8.08788 15.9121 7.33046 15 6.80385C14.0879 6.27724 13.0532 6 12 6V9C10.8897 9 9.92024 9.60319 9.40149 10.4998L6.80385 9C6.27724 9.91212 6 10.9468 6 12C6 13.0532 6.27724 14.0879 6.80385 15C7.33046 15.9121 8.08788 16.6695 9 17.1962C9.91212 17.7228 10.9468 18 12 18V15C13.1103 15 14.0798 14.3968 14.5985 13.5002Z" fill="black"/>
<path fill-rule="evenodd" clip-rule="evenodd" d="M22 12C22 17.5228 17.5228 22 12 22C6.47715 22 2 17.5228 2 12C2 6.47715 6.47715 2 12 2C17.5228 2 22 6.47715 22 12ZM20 12C20 16.4183 16.4183 20 12 20C7.58172 20 4 16.4183 4 12C4 7.58172 7.58172 4 12 4C16.4183 4 20 7.58172 20 12Z" fill="black"/>
</svg>
