<svg width="24" height="24" viewBox="0 0 24 24" fill="none" xmlns="http://www.w3.org/2000/svg">
<path d="M12 15C13.6569 15 15 13.6569 15 12C15 10.3431 13.6569 9 12 9C10.3431 9 9 10.3431 9 12C9 13.6569 10.3431 15 12 15Z" fill="black"/>
<path fill-rule="evenodd" clip-rule="evenodd" d="M22 12C22 17.5228 17.5228 22 12 22C6.47715 22 2 17.5228 2 12C2 6.47715 6.47715 2 12 2C17.5228 2 22 6.47715 22 12ZM18.9294 16.0007C17.546 18.3915 14.9609 20 12 20V17C11.1223 17 10.2601 16.769 9.5 16.3301C8.7399 15.8913 8.10871 15.2601 7.66987 14.5C7.23103 13.7399 7 12.8777 7 12C7 11.1223 7.23103 10.2601 7.66987 9.5L5.07064 7.99933C6.45398 5.6085 9.03915 4 12 4V7C12.8777 7 13.7399 7.23103 14.5 7.66987C15.2601 8.10871 15.8913 8.7399 16.3301 9.5C16.769 10.2601 17 11.1223 17 12C17 12.8777 16.769 13.7399 16.3301 14.5L18.9294 16.0007Z" fill="black"/>
</svg>
