<svg width="24" height="24" viewBox="0 0 24 24" fill="none" xmlns="http://www.w3.org/2000/svg">
<path fill-rule="evenodd" clip-rule="evenodd" d="M13 6V3C13 2.44771 12.5523 2 12 2H10C9.44771 2 9 2.44771 9 3V6H6.5C5.67157 6 5 6.67157 5 7.5V10H3C2.44772 10 2 10.4477 2 11V13C2 13.5523 2.44772 14 3 14H5V17C5 17.5523 5.44772 18 6 18H9V21C9 21.5523 9.44771 22 10 22H12C12.5523 22 13 21.5523 13 21V18H15C16.1046 18 17 17.1046 17 16V15.5L18.0299 15.2425C18.6 15.1 19 14.5877 19 14H21C21.5523 14 22 13.5523 22 13V11C22 10.4477 21.5523 10 21 10H19C19 9.41229 18.6 8.9 18.0299 8.75746L17 8.5V7.5C17 6.67157 16.3284 6 15.5 6H13ZM9.1 8.8C8.85279 8.47038 9.08798 8 9.5 8H12.5C12.912 8 13.1472 8.47038 12.9 8.8L12.15 9.8C12.0556 9.9259 11.9074 10 11.75 10H10.25C10.0926 10 9.94443 9.9259 9.85 9.8L9.1 8.8ZM12.9 15.2C13.1472 15.5296 12.912 16 12.5 16H9.5C9.08798 16 8.85279 15.5296 9.1 15.2L9.85 14.2C9.94443 14.0741 10.0926 14 10.25 14H11.75C11.9074 14 12.0556 14.0741 12.15 14.2L12.9 15.2ZM13.2 13.15C13.1453 13.1089 13.1003 13.0577 13.067 13H8.93301C8.89969 13.0577 8.85474 13.1089 8.8 13.15L7.8 13.9C7.47038 14.1472 7 13.912 7 13.5L7 10.5C7 10.088 7.47038 9.85279 7.8 10.1L8.8 10.85C8.85474 10.8911 8.89969 10.9423 8.93301 11H13.067C13.1003 10.9423 13.1453 10.8911 13.2 10.85L14.2 10.1C14.5296 9.85279 15 10.088 15 10.5V13.5C15 13.912 14.5296 14.1472 14.2 13.9L13.2 13.15Z" fill="black"/>
</svg>
