<svg width="24" height="24" viewBox="0 0 24 24" fill="none" xmlns="http://www.w3.org/2000/svg">
<path fill-rule="evenodd" clip-rule="evenodd" d="M13 6V3C13 2.44771 12.5523 2 12 2H10C9.44771 2 9 2.44771 9 3V6H6.5C5.67157 6 5 6.67157 5 7.5V10H3C2.44772 10 2 10.4477 2 11V13C2 13.5523 2.44772 14 3 14H5V17C5 17.5523 5.44772 18 6 18H9V21C9 21.5523 9.44771 22 10 22H12C12.5523 22 13 21.5523 13 21V18H15C16.1046 18 17 17.1046 17 16V15.5L18.0299 15.2425C18.6 15.1 19 14.5877 19 14H21C21.5523 14 22 13.5523 22 13V11C22 10.4477 21.5523 10 21 10H19C19 9.41229 18.6 8.9 18.0299 8.75746L17 8.5V7.5C17 6.67157 16.3284 6 15.5 6H13ZM9.5 8C9.08798 8 8.85279 8.47038 9.1 8.8L9.85 9.8C9.94443 9.9259 10.0926 10 10.25 10H11.75C11.9074 10 12.0556 9.9259 12.15 9.8L12.9 8.8C13.1472 8.47038 12.912 8 12.5 8H9.5ZM12.5 16C12.912 16 13.1472 15.5296 12.9 15.2L12.15 14.2C12.0556 14.0741 11.9074 14 11.75 14H10.25C10.0926 14 9.94443 14.0741 9.85 14.2L9.1 15.2C8.85279 15.5296 9.08798 16 9.5 16H12.5ZM13.2 13.15C13.0741 13.0556 13 12.9074 13 12.75V11.25C13 11.0926 13.0741 10.9444 13.2 10.85L14.2 10.1C14.5296 9.85279 15 10.088 15 10.5V13.5C15 13.912 14.5296 14.1472 14.2 13.9L13.2 13.15ZM9 11.25C9 11.0926 8.9259 10.9444 8.8 10.85L7.8 10.1C7.47038 9.85279 7 10.088 7 10.5L7 13.5C7 13.912 7.47038 14.1472 7.8 13.9L8.8 13.15C8.9259 13.0556 9 12.9074 9 12.75V11.25Z" fill="black"/>
</svg>
