<svg width="24" height="24" viewBox="0 0 24 24" fill="none" xmlns="http://www.w3.org/2000/svg">
<path fill-rule="evenodd" clip-rule="evenodd" d="M13.1334 4.13342C13.0461 4.04613 12.9367 3.98421 12.817 3.95427C11.624 3.65603 10.376 3.65603 9.18301 3.95427C9.06326 3.98421 8.95389 4.04613 8.86661 4.13342L8.58579 4.41424C8.21071 4.78931 7.70201 5.00003 7.17157 5.00003H7C5.89543 5.00003 5 5.89546 5 7.00003V8.00002H3C2.44772 8.00002 2 8.44774 2 9.00002V11C2 11.5523 2.44772 12 3 12H5V14C5 15.1046 5.89543 16 7 16H9V21C9 21.5523 9.44771 22 10 22H12C12.5523 22 13 21.5523 13 21V16H15.5C16.3284 16 17 15.3285 17 14.5V13.5L18.0299 13.2426C18.6 13.1 19 12.5877 19 12H21C21.5523 12 22 11.5523 22 11V9.00002C22 8.44774 21.5523 8.00002 21 8.00002H19C19 7.41232 18.6 6.90003 18.0299 6.75749L17 6.50003C17 5.6716 16.3284 5.00003 15.5 5.00003H14.8284C14.298 5.00003 13.7893 4.78931 13.4142 4.41424L13.1334 4.13342ZM8.8 11.15C8.85474 11.1089 8.89969 11.0577 8.93301 11H13.067C13.1003 11.0577 13.1453 11.1089 13.2 11.15L14.2 11.9C14.5296 12.1472 15 11.912 15 11.5V8.49999C15 8.08797 14.5296 7.85278 14.2 8.09999L13.2 8.84999C13.1453 8.89105 13.1003 8.94227 13.067 8.99999H8.93301C8.89969 8.94227 8.85474 8.89105 8.8 8.84999L7.8 8.09999C7.47038 7.85278 7 8.08797 7 8.49999L7 11.5C7 11.912 7.47038 12.1472 7.8 11.9L8.8 11.15ZM9.5 14C9.08798 14 8.85279 13.5296 9.1 13.2L9.85 12.2C9.94443 12.0741 10.0926 12 10.25 12H11.75C11.9074 12 12.0556 12.0741 12.15 12.2L12.9 13.2C13.1472 13.5296 12.912 14 12.5 14H9.5Z" fill="black"/>
</svg>
