<svg width="24" height="24" viewBox="0 0 24 24" fill="none" xmlns="http://www.w3.org/2000/svg">
<path fill-rule="evenodd" clip-rule="evenodd" d="M13 3V8H15.5C16.3284 8 17 8.67157 17 9.5V10.5L18.0299 10.7575C18.6 10.9 19 11.4123 19 12H21C21.5523 12 22 12.4477 22 13V15C22 15.5523 21.5523 16 21 16H19C19 16.5877 18.6 17.1 18.0299 17.2425L17 17.5C17 18.3284 16.3284 19 15.5 19H14.8284C14.298 19 13.7893 19.2107 13.4142 19.5858L13.1334 19.8666C13.0461 19.9539 12.9367 20.0158 12.817 20.0458C11.624 20.344 10.376 20.344 9.18301 20.0458C9.06326 20.0158 8.95389 19.9539 8.86661 19.8666L8.58579 19.5858C8.21071 19.2107 7.70201 19 7.17157 19H7C5.89543 19 5 18.1046 5 17V16H3C2.44772 16 2 15.5523 2 15V13C2 12.4477 2.44772 12 3 12H5V10C5 8.89543 5.89543 8 7 8H9V3C9 2.44771 9.44771 2 10 2H12C12.5523 2 13 2.44771 13 3ZM9.5 10C9.08798 10 8.85279 10.4704 9.1 10.8L9.85 11.8C9.94443 11.9259 10.0926 12 10.25 12H11.75C11.9074 12 12.0556 11.9259 12.15 11.8L12.9 10.8C13.1472 10.4704 12.912 10 12.5 10H9.5ZM13.2 15.15C13.1453 15.1089 13.1003 15.0577 13.067 15H8.93301C8.89969 15.0577 8.85474 15.1089 8.8 15.15L7.8 15.9C7.47038 16.1472 7 15.912 7 15.5L7 12.5C7 12.088 7.47038 11.8528 7.8 12.1L8.8 12.85C8.85474 12.8911 8.89969 12.9423 8.93301 13H13.067C13.1003 12.9423 13.1453 12.8911 13.2 12.85L14.2 12.1C14.5296 11.8528 15 12.088 15 12.5V15.5C15 15.912 14.5296 16.1472 14.2 15.9L13.2 15.15Z" fill="black"/>
</svg>
