<svg width="24" height="24" viewBox="0 0 24 24" fill="none" xmlns="http://www.w3.org/2000/svg">
<path fill-rule="evenodd" clip-rule="evenodd" d="M13 3V8H15.5C16.3284 8 17 8.67157 17 9.5V10.5L18.0299 10.7575C18.6 10.9 19 11.4123 19 12H21C21.5523 12 22 12.4477 22 13V15C22 15.5523 21.5523 16 21 16H19C19 16.5877 18.6 17.1 18.0299 17.2425L17 17.5C17 18.3284 16.3284 19 15.5 19H14.8284C14.298 19 13.7893 19.2107 13.4142 19.5858L13.1334 19.8666C13.0461 19.9539 12.9367 20.0158 12.817 20.0458C11.624 20.344 10.376 20.344 9.18301 20.0458C9.06326 20.0158 8.95389 19.9539 8.86661 19.8666L8.58579 19.5858C8.21071 19.2107 7.70201 19 7.17157 19H7C5.89543 19 5 18.1046 5 17V16H3C2.44772 16 2 15.5523 2 15V13C2 12.4477 2.44772 12 3 12H5V10C5 8.89543 5.89543 8 7 8H9V3C9 2.44771 9.44771 2 10 2H12C12.5523 2 13 2.44771 13 3ZM9.1 10.8C8.85279 10.4704 9.08798 10 9.5 10H12.5C12.912 10 13.1472 10.4704 12.9 10.8L12.15 11.8C12.0556 11.9259 11.9074 12 11.75 12H10.25C10.0926 12 9.94443 11.9259 9.85 11.8L9.1 10.8ZM13.2 15.15C13.0741 15.0556 13 14.9074 13 14.75V13.25C13 13.0926 13.0741 12.9444 13.2 12.85L14.2 12.1C14.5296 11.8528 15 12.088 15 12.5V15.5C15 15.912 14.5296 16.1472 14.2 15.9L13.2 15.15ZM9 13.25C9 13.0926 8.9259 12.9444 8.8 12.85L7.8 12.1C7.47038 11.8528 7 12.088 7 12.5L7 15.5C7 15.912 7.47038 16.1472 7.8 15.9L8.8 15.15C8.9259 15.0556 9 14.9074 9 14.75V13.25Z" fill="black"/>
</svg>
