<svg width="24" height="24" viewBox="0 0 24 24" fill="none" xmlns="http://www.w3.org/2000/svg">
<path d="M8.99828 10.0699H6.21228V5.07189H8.99828V6.03789H7.47928V6.99689H8.89328V7.96289H7.47928V9.08989H8.99828V10.0699Z" fill="black"/>
<path d="M13.1957 8.62089C13.1957 8.90556 13.1327 9.16456 13.0067 9.39789C12.8807 9.62656 12.68 9.80856 12.4047 9.94389C12.134 10.0746 11.7863 10.1399 11.3617 10.1399C11.1423 10.1399 10.951 10.1282 10.7877 10.1049C10.629 10.0816 10.4797 10.0489 10.3397 10.0069C10.2043 9.96023 10.062 9.90189 9.91266 9.83189V8.74689C10.1647 8.86356 10.419 8.96156 10.6757 9.04089C10.937 9.12023 11.175 9.15989 11.3897 9.15989C11.5157 9.15989 11.6183 9.14123 11.6977 9.10389C11.777 9.06189 11.8353 9.00823 11.8727 8.94289C11.91 8.87289 11.9287 8.79356 11.9287 8.70489C11.9287 8.59756 11.9007 8.50656 11.8447 8.43189C11.7933 8.35256 11.7047 8.27789 11.5787 8.20789C11.4527 8.13323 11.287 8.05389 11.0817 7.96989C10.909 7.89523 10.7527 7.81589 10.6127 7.73189C10.4727 7.64323 10.3537 7.54289 10.2557 7.43089C10.1577 7.31423 10.0807 7.17656 10.0247 7.01789C9.97332 6.85456 9.94766 6.66323 9.94766 6.44389C9.94766 6.13123 10.0223 5.86989 10.1717 5.65989C10.321 5.44523 10.5263 5.28189 10.7877 5.16989C11.0537 5.05789 11.3617 5.00189 11.7117 5.00189C12.0197 5.00189 12.295 5.03456 12.5377 5.09989C12.785 5.16523 13.0067 5.24923 13.2027 5.35189L12.8107 6.28289C12.6147 6.18489 12.4187 6.11023 12.2227 6.05889C12.0267 6.00289 11.8447 5.97489 11.6767 5.97489C11.5647 5.97489 11.4737 5.99356 11.4037 6.03089C11.3337 6.06356 11.2823 6.11256 11.2497 6.17789C11.217 6.23856 11.2007 6.31089 11.2007 6.39489C11.2007 6.49289 11.2287 6.57923 11.2847 6.65389C11.3453 6.72389 11.4433 6.79623 11.5787 6.87089C11.714 6.94556 11.896 7.04123 12.1247 7.15789C12.3533 7.26523 12.547 7.38423 12.7057 7.51489C12.869 7.64089 12.9903 7.79256 13.0697 7.96989C13.1537 8.14256 13.1957 8.35956 13.1957 8.62089Z" fill="black"/>
<path d="M16.3528 5.98889C16.1988 5.98889 16.0588 6.02623 15.9328 6.10089C15.8068 6.17089 15.6994 6.27589 15.6108 6.41589C15.5268 6.55589 15.4638 6.72389 15.4218 6.91989C15.3798 7.11589 15.3588 7.33756 15.3588 7.58489C15.3588 7.92089 15.3984 8.20556 15.4778 8.43889C15.5571 8.67223 15.6738 8.84956 15.8278 8.97089C15.9864 9.09223 16.1871 9.15289 16.4298 9.15289C16.6304 9.15289 16.8241 9.12723 17.0108 9.07589C17.2021 9.01989 17.3958 8.94989 17.5918 8.86589V9.87389C17.3864 9.96723 17.1741 10.0349 16.9548 10.0769C16.7354 10.1189 16.5044 10.1399 16.2618 10.1399C15.7484 10.1399 15.3308 10.0349 15.0088 9.82489C14.6868 9.61023 14.4488 9.31156 14.2948 8.92889C14.1408 8.54156 14.0638 8.09123 14.0638 7.57789C14.0638 7.19989 14.1128 6.85456 14.2108 6.54189C14.3088 6.22456 14.4534 5.95156 14.6448 5.72289C14.8408 5.49423 15.0788 5.31689 15.3588 5.19089C15.6434 5.06489 15.9701 5.00189 16.3388 5.00189C16.5674 5.00189 16.8148 5.03456 17.0808 5.09989C17.3468 5.16056 17.5824 5.24456 17.7878 5.35189L17.4028 6.30389C17.2348 6.21523 17.0668 6.14056 16.8988 6.07989C16.7308 6.01923 16.5488 5.98889 16.3528 5.98889Z" fill="black"/>
<path fill-rule="evenodd" clip-rule="evenodd" d="M7.98183 2.29927C9.25575 1.77159 10.6211 1.5 12 1.5C13.3789 1.5 14.7443 1.77159 16.0182 2.29926C17.2921 2.82694 18.4496 3.60036 19.4246 4.57538C20.3996 5.55039 21.1731 6.70791 21.7007 7.98182C22.0942 8.93172 22.3453 9.93246 22.4475 10.9517C22.5356 11.8292 21.8134 12.5 21 12.5L3 12.5C2.18664 12.5 1.46442 11.8292 1.55246 10.9517C1.65473 9.93247 1.90581 8.93172 2.29927 7.98182C2.82694 6.70791 3.60037 5.55039 4.57538 4.57538C5.5504 3.60036 6.70791 2.82694 7.98183 2.29927ZM12 2.5C10.7524 2.5 9.5171 2.74572 8.36451 3.22314C7.21192 3.70056 6.16465 4.40033 5.28249 5.28249C4.40033 6.16464 3.70057 7.21192 3.22315 8.36451C2.86716 9.22394 2.64 10.1294 2.54746 11.0516C2.52523 11.2731 2.7088 11.5 3 11.5L21 11.5C21.2912 11.5 21.4748 11.2731 21.4525 11.0516C21.36 10.1294 21.1328 9.22394 20.7769 8.36451C20.2994 7.21191 19.5997 6.16464 18.7175 5.28249C17.8354 4.40033 16.7881 3.70056 15.6355 3.22314C14.4829 2.74572 13.2476 2.5 12 2.5Z" fill="black"/>
<rect x="7" y="14" width="10" height="3" rx="1" fill="black"/>
</svg>
