<svg width="24" height="24" viewBox="0 0 24 24" fill="none" xmlns="http://www.w3.org/2000/svg">
<rect x="15" y="21" width="2" height="6" transform="rotate(-90 15 21)" fill="black"/>
<path d="M17 3H15V10H17V7L19 7V10H21V3H19V5.5L17 5.5V3Z" fill="black"/>
<path d="M17 14H15V21H17V14Z" fill="black"/>
<path d="M3 18C3 19.1046 3.89543 20 5 20H11C12.1046 20 13 19.1046 13 18V17C13 15.8954 12.1046 15 11 15H5C3.89543 15 3 15.8954 3 17V18Z" fill="black"/>
<path fill-rule="evenodd" clip-rule="evenodd" d="M5 7V13H11V7C11 5.89543 10.1046 5 9 5H7C5.89543 5 5 5.89543 5 7ZM7 11V7H9V11H7Z" fill="black"/>
</svg>
