<svg width="24" height="24" viewBox="0 0 24 24" fill="none" xmlns="http://www.w3.org/2000/svg">
<path d="M11.5 2C10.9477 2 10.5 2.44772 10.5 3L10.5 5L9.32798 5.293C8.79906 5.42523 8.34706 5.76765 8.07656 6.24101L6.89527 8.30828C6.63625 8.76157 6.5 9.27461 6.5 9.79669V13.75C6.5 14.4404 7.05964 15 7.75 15C8.44036 15 9 14.4404 9 13.75V10.5C9 9.39543 9.89543 8.5 11 8.5H13C14.1046 8.5 15 9.39543 15 10.5V13.75C15 14.4404 15.5596 15 16.25 15C16.9404 15 17.5 14.4404 17.5 13.75V9.79669C17.5 9.27461 17.3638 8.76157 17.1047 8.30828L15.9234 6.24101C15.6529 5.76765 15.2009 5.42523 14.672 5.293L13.5 5L13.5 3C13.5 2.44771 13.0523 2 12.5 2H11.5Z" fill="black"/>
<path d="M11.5 16C10.9477 16 10.5 16.4477 10.5 17V21C10.5 21.5523 10.9477 22 11.5 22H12.5C13.0523 22 13.5 21.5523 13.5 21V17C13.5 16.4477 13.0523 16 12.5 16H11.5Z" fill="black"/>
</svg>
