<svg width="24" height="24" viewBox="0 0 24 24" fill="none" xmlns="http://www.w3.org/2000/svg">
<path d="M11.5 2C10.9477 2 10.5 2.44772 10.5 3L10.5 7L9.32798 7.293C8.79906 7.42523 8.34706 7.76765 8.07656 8.24101L6.89527 10.3083C6.63625 10.7616 6.5 11.2746 6.5 11.7967V15.75C6.5 16.4404 7.05964 17 7.75 17C8.44036 17 9 16.4404 9 15.75V12.5C9 11.3954 9.89543 10.5 11 10.5H13C14.1046 10.5 15 11.3954 15 12.5V15.75C15 16.4404 15.5596 17 16.25 17C16.9404 17 17.5 16.4404 17.5 15.75V11.7967C17.5 11.2746 17.3638 10.7616 17.1047 10.3083L15.9234 8.24101C15.6529 7.76765 15.2009 7.42523 14.672 7.293L13.5 7L13.5 3C13.5 2.44771 13.0523 2 12.5 2H11.5Z" fill="black"/>
<path d="M11.5 12C10.9477 12 10.5 12.4477 10.5 13V21C10.5 21.5523 10.9477 22 11.5 22H12.5C13.0523 22 13.5 21.5523 13.5 21V13C13.5 12.4477 13.0523 12 12.5 12H11.5Z" fill="black"/>
</svg>
