<svg width="24" height="24" viewBox="0 0 24 24" fill="none" xmlns="http://www.w3.org/2000/svg">
<path d="M4.52041 5.35839C4.53743 5.55163 4.57046 5.74917 4.62086 5.95024L5.0276 7.57289C5.0932 7.83463 4.93929 8.10121 4.67982 8.17526L3.07119 8.63435C2.87309 8.69088 2.68658 8.76053 2.51166 8.84177C2.93407 7.57114 3.61115 6.38207 4.52041 5.35839Z" fill="black"/>
<path d="M9.98795 2.20169C10.1468 2.31305 10.3014 2.44043 10.4503 2.58461L11.6522 3.74819C11.8461 3.93587 12.1539 3.93587 12.3477 3.74819L13.5496 2.58461C13.6976 2.44132 13.8512 2.31462 14.009 2.20375C12.6974 1.93426 11.3291 1.92608 9.98795 2.20169Z" fill="black"/>
<path d="M19.4794 5.35939C19.4624 5.55231 19.4294 5.74952 19.3791 5.95024L18.9723 7.57289C18.9067 7.83463 19.0606 8.10121 19.3201 8.17526L20.9287 8.63434C21.1277 8.69113 21.315 8.76115 21.4906 8.84285C21.2806 8.21388 21.0047 7.59655 20.6602 6.99996C20.3158 6.40337 19.9191 5.85571 19.4794 5.35939Z" fill="black"/>
<path d="M21.4883 15.1582C21.3133 15.2394 21.1268 15.3091 20.9287 15.3656L19.3201 15.8247C19.0606 15.8987 18.9067 16.1653 18.9723 16.427L19.3791 18.0497C19.4295 18.2508 19.4625 18.4483 19.4795 18.6415C20.3888 17.6179 21.0658 16.4288 21.4883 15.1582Z" fill="black"/>
<path d="M14.0119 21.7982C13.8531 21.6869 13.6986 21.5595 13.5496 21.4153L12.3477 20.2518C12.1539 20.0641 11.8461 20.0641 11.6522 20.2518L10.4503 21.4153C10.3023 21.5586 10.1487 21.6853 9.9909 21.7962C11.3025 22.0657 12.6708 22.0738 14.0119 21.7982Z" fill="black"/>
<path d="M4.5205 18.6405C4.53754 18.4476 4.57055 18.2504 4.62086 18.0497L5.0276 16.427C5.0932 16.1653 4.93929 15.8987 4.67981 15.8247L3.07119 15.3656C2.87221 15.3088 2.68493 15.2388 2.50934 15.1571C2.71929 15.7861 2.99527 16.4034 3.33971 17C3.68415 17.5965 4.08078 18.1442 4.5205 18.6405Z" fill="black"/>
<path d="M13.75 11V10.5C13.75 9.5335 12.9665 8.75 12 8.75C11.0335 8.75 10.25 9.5335 10.25 10.5V11H13.75Z" fill="black"/>
<path fill-rule="evenodd" clip-rule="evenodd" d="M9.40693 3.66233C7.9613 2.26279 5.58661 3.63383 6.07583 5.58555L6.48257 7.2082C6.51681 7.34482 6.53611 7.48177 6.54146 7.6173C6.09674 8.17048 5.73438 8.79268 5.47299 9.4653C5.35357 9.52791 5.22606 9.57928 5.09145 9.6177L3.48282 10.0768C1.54796 10.629 1.54796 13.371 3.48282 13.9232L5.09144 14.3823C5.22606 14.4207 5.35357 14.4721 5.47298 14.5347C5.73437 15.2073 6.09674 15.8295 6.54146 16.3827C6.53611 16.5182 6.51681 16.6552 6.48257 16.7918L6.07583 18.4144C5.58661 20.3662 7.96131 21.7372 9.40694 20.3376L10.6088 19.1741C10.7097 19.0764 10.8184 18.9914 10.9327 18.9191C11.2807 18.9724 11.6371 19 12 19C12.3628 19 12.7192 18.9724 13.0672 18.9192C13.1816 18.9914 13.2902 19.0764 13.3911 19.1741L14.593 20.3376C16.0386 21.7372 18.4133 20.3662 17.9241 18.4144L17.5173 16.7918C17.4831 16.6552 17.4638 16.5183 17.4584 16.3828C17.9032 15.8296 18.2656 15.2073 18.527 14.5346C18.6464 14.472 18.7739 14.4207 18.9084 14.3823L20.5171 13.9232C22.4519 13.371 22.4519 10.629 20.5171 10.0768L18.9084 9.6177C18.7739 9.57929 18.6464 9.52793 18.527 9.46535C18.2656 8.79268 17.9032 8.17043 17.4584 7.61722C17.4638 7.48172 17.4831 7.34479 17.5173 7.2082L17.9241 5.58555C18.4133 3.63383 16.0386 2.26279 14.593 3.66234L13.3911 4.82591C13.2902 4.92359 13.1815 5.00857 13.0672 5.08083C12.7192 5.0276 12.3628 4.99999 12 4.99999C11.6371 4.99999 11.2807 5.02761 10.9327 5.08084C10.8184 5.00858 10.7097 4.9236 10.6088 4.82591L9.40693 3.66233ZM12 7.25C10.2051 7.25 8.75 8.70508 8.75 10.5V11.0315C8.31869 11.1425 8 11.534 8 12V14C8 15.1046 8.89543 16 10 16H14C15.1046 16 16 15.1046 16 14V12C16 11.534 15.6813 11.1425 15.25 11.0315V10.5C15.25 8.70508 13.7949 7.25 12 7.25Z" fill="black"/>
</svg>
