<svg width="24" height="24" viewBox="0 0 24 24" fill="none" xmlns="http://www.w3.org/2000/svg">
<path d="M5.27924 3C6.22959 3 7 3.77041 7 4.72076C7 4.90571 6.97018 5.08945 6.9117 5.26491L6.5 6.5C6.36376 7.04496 6.05196 7.56709 5.74757 8.07681C5.59334 8.33508 5.44101 8.59017 5.31438 8.84342C4.33051 10.8112 4.27248 13.8044 4.81721 15.7412C5.22249 17.1823 6.66286 18 8.15981 18H15.8402C17.3372 18 18.7776 17.1823 19.1829 15.7412C19.7276 13.8044 19.6696 10.8112 18.6857 8.84344C18.559 8.59016 18.4067 8.33506 18.2524 8.07677C17.948 7.56706 17.6362 7.04495 17.5 6.5L17.0883 5.26491C17.0298 5.08945 17 4.90571 17 4.72076C17 3.77041 17.7704 3 18.7208 3H18.9109C19.4968 3 19.9571 3.5014 19.9073 4.08516L19.7452 5.98082C19.9146 6.65824 20.1623 7.32447 20.4745 7.94902C22.032 11.0638 21.915 15.8084 20.1233 18.7946C20.0414 18.9311 19.9746 19.0762 19.9243 19.2273L19 22H17V20H15V22H13V20H11V22H9V20H7V22H5.00004L4.07578 19.2273C4.02543 19.0762 3.95869 18.9311 3.87675 18.7946C2.08504 15.8084 1.96812 11.0638 3.52552 7.949C3.83779 7.32446 4.08546 6.65825 4.25481 5.98084L4.09276 4.08517C4.04286 3.50141 4.50324 3 5.08913 3H5.27924Z" fill="white"/>
<path d="M10.5 6.5H13.5V10H17V13H13.5V16.5H10.5V13H7V10H10.5V6.5Z" fill="white"/>
</svg>
