<svg width="24" height="24" viewBox="0 0 24 24" fill="none" xmlns="http://www.w3.org/2000/svg">
<path fill-rule="evenodd" clip-rule="evenodd" d="M5.81954 3C6.30838 3 6.80593 3.8356 6.80593 3.8356L17.1941 3.8356C17.1941 3.8356 17.6916 3 18.1805 3H18.9109C19.4968 3 19.9571 3.5014 19.9073 4.08516L19.7452 5.98082C19.9146 6.65824 20.1623 7.32447 20.4745 7.94902C22.032 11.0638 21.915 15.8084 20.1233 18.7946C20.0414 18.9312 19.9746 19.0763 19.9243 19.2274L19 22L17 22.0001V20.0001H15V22.0001H13V20.0001H11V22.0001H9V20.0001H7V22.0001H5.00004L4.07578 19.2274C4.02543 19.0763 3.95869 18.9312 3.87675 18.7946C2.08505 15.8084 1.96812 11.0638 3.52552 7.949C3.83779 7.32446 4.08546 6.65825 4.25481 5.98084L4.09276 4.08517C4.04286 3.50141 4.50324 3 5.08913 3H5.81954ZM16 8H8V16H16V8Z" fill="white"/>
</svg>
