<svg width="24" height="24" viewBox="0 0 24 24" fill="none" xmlns="http://www.w3.org/2000/svg">
<path d="M5.27924 3C6.22959 3 7 3.77041 7 4.72076C7 4.90571 6.97018 5.08945 6.9117 5.26491L6.5 6.5C6.36376 7.04496 6.05196 7.56709 5.74757 8.07681C5.59334 8.33508 5.44101 8.59017 5.31438 8.84342C4.33051 10.8112 4.27248 13.8044 4.81721 15.7412C5.22249 17.1823 6.66286 18 8.15982 18H15.8402C17.3372 18 18.7776 17.1823 19.1829 15.7412C19.7276 13.8044 19.6696 10.8112 18.6857 8.84344C18.559 8.59016 18.4067 8.33506 18.2524 8.07677C17.948 7.56706 17.6362 7.04495 17.5 6.5L17.0883 5.26491C17.0298 5.08945 17 4.90571 17 4.72076C17 3.77041 17.7704 3 18.7208 3H18.9109C19.4968 3 19.9571 3.5014 19.9073 4.08516L19.7452 5.98082C19.9146 6.65824 20.1623 7.32447 20.4745 7.94902C22.032 11.0638 21.915 15.8084 20.1233 18.7946C20.0414 18.9311 19.9746 19.0762 19.9243 19.2273L19 22H17V20H15V22H13V20H11V22H9V20H7V22H5.00004L4.07578 19.2273C4.02543 19.0762 3.95869 18.9311 3.87675 18.7946C2.08504 15.8084 1.96812 11.0638 3.52552 7.949C3.83779 7.32446 4.08546 6.65825 4.25481 5.98084L4.09276 4.08517C4.04286 3.50141 4.50324 3 5.08913 3H5.27924Z" fill="white"/>
<path d="M13.8633 13.2717L16.5 9.5L16 9L12.3013 12.0226C12.2031 12.0077 12.1024 12 12 12C10.8954 12 10 12.8954 10 14C10 15.1046 10.8954 16 12 16C13.1046 16 14 15.1046 14 14C14 13.743 13.9515 13.4974 13.8633 13.2717Z" fill="white"/>
<path d="M10.9593 10.1377C11.1995 10.073 11.4445 10.0311 11.691 10.012C12.2416 9.96929 12.7642 9.61843 12.8591 9.07436C12.954 8.53029 12.5883 8.00343 12.036 8.00011C11.4983 7.99688 10.9611 8.06593 10.439 8.20661C9.59395 8.43431 8.80893 8.84413 8.13901 9.40732C7.46908 9.97051 6.93048 10.6734 6.56097 11.4668C6.33268 11.957 6.17234 12.4744 6.08314 13.0046C5.99152 13.5492 6.44771 14 7 14C7.55228 14 7.98771 13.5455 8.12435 13.0104C8.18553 12.7708 8.26897 12.5367 8.37398 12.3112C8.62032 11.7823 8.97939 11.3137 9.426 10.9382C9.87262 10.5628 10.396 10.2895 10.9593 10.1377Z" fill="white"/>
<path d="M16.3695 12.8292C16.0901 12.9041 15.928 13.1912 15.9658 13.4779C16.0035 13.7646 16.2344 14 16.5236 14H17.2146C17.6484 14 18.0053 13.6469 17.9487 13.2168C17.892 12.7868 17.4559 12.5381 17.0369 12.6504L16.3695 12.8292Z" fill="white"/>
</svg>
