<svg width="24" height="24" viewBox="0 0 24 24" fill="none" xmlns="http://www.w3.org/2000/svg">
<path fill-rule="evenodd" clip-rule="evenodd" d="M6.80593 3.8356C6.72557 3.35341 6.30838 3 5.81954 3H5.08913C4.50324 3 4.04286 3.50141 4.09276 4.08517L4.25481 5.98084C4.08546 6.65825 3.83779 7.32446 3.52552 7.949C1.96812 11.0638 2.08505 15.8084 3.87675 18.7946C3.95869 18.9312 4.02543 19.0763 4.07578 19.2274L5.00004 22.0001H7V20.0001H9V22.0001H11V20.0001H13V22.0001H15V20.0001H17V22.0001L19 22L19.9243 19.2274C19.9746 19.0763 20.0414 18.9312 20.1233 18.7946C21.915 15.8084 22.032 11.0638 20.4745 7.94902C20.1623 7.32447 19.9146 6.65824 19.7452 5.98082L19.9073 4.08516C19.9571 3.5014 19.4968 3 18.9109 3H18.1805C17.6916 3 17.2744 3.35341 17.1941 3.8356L17.0757 4.54577C17.026 4.84406 17.05 5.14998 17.1456 5.43686L17.6358 6.90735C17.7548 7.26431 17.3548 7.56984 17.0417 7.36112C13.9887 5.32579 10.0113 5.32579 6.95832 7.36112C6.64524 7.56984 6.24523 7.26431 6.36422 6.90735L6.85438 5.43686C6.95001 5.14998 6.97401 4.84406 6.9243 4.54577L6.80593 3.8356ZM16.5 10.5L13.8633 14.2717C13.9515 14.4974 14 14.743 14 15C14 16.1046 13.1046 17 12 17C10.8954 17 10 16.1046 10 15C10 13.8954 10.8954 13 12 13C12.1024 13 12.2031 13.0077 12.3013 13.0226L16 10L16.5 10.5ZM13.0309 9.08923C12.936 9.6333 12.4155 9.98678 11.8634 10.0019C11.4711 10.0126 11.0803 10.0695 10.6992 10.1722C9.99496 10.3619 9.34077 10.7034 8.78251 11.1728C8.22424 11.6421 7.7754 12.2279 7.46748 12.889C7.30083 13.2468 7.17763 13.6221 7.09967 14.0066C6.98995 14.5479 6.55228 15 6 15C5.44772 15 4.99268 14.55 5.07131 14.0034C5.16857 13.3272 5.36454 12.6671 5.65447 12.0446C6.08557 11.119 6.71393 10.2989 7.49551 9.64187C8.27708 8.98481 9.19294 8.5067 10.1789 8.24105C10.8419 8.06239 11.5259 7.98275 12.2087 8.00311C12.7607 8.01958 13.1258 8.54516 13.0309 9.08923ZM17.4618 13.5365C17.1127 13.6301 16.91 13.989 16.9572 14.3474C17.0044 14.7057 17.293 15 17.6545 15H18.0837C18.5898 15 19.0062 14.588 18.9401 14.0863C18.8741 13.5846 18.3652 13.2944 17.8764 13.4254L17.4618 13.5365Z" fill="white"/>
</svg>
