<?xml version="1.0" encoding="utf-8"?>
<!-- Generator: Adobe Illustrator 22.1.0, SVG Export Plug-In . SVG Version: 6.00 Build 0)  -->
<svg version="1.1" id="Layer_1" xmlns="http://www.w3.org/2000/svg" xmlns:xlink="http://www.w3.org/1999/xlink" x="0px" y="0px"
     viewBox="0 0 112 112" style="enable-background:new 0 0 112 112;" xml:space="preserve">
<defs>
    <linearGradient id="SVGID_1_" gradientUnits="userSpaceOnUse" x1="56.0001" y1="110.7543" x2="56.0001" y2="1.2453">
        <stop offset="0.3995" style="stop-color: #AEB0B4"/>
        <stop offset="0.4499" style="stop-color: #C5C6CA"/>
        <stop offset="0.5089" style="stop-color: #D9DADE"/>
        <stop offset="0.5624" style="stop-color: #E6E6EA"/>
        <stop offset="0.6050" style="stop-color: #EBEBEE"/>
        <stop offset="0.7385" style="stop-color: #E2E2E6"/>
        <stop offset="0.9691" style="stop-color: #CBCCD0"/>
        <stop offset="0.9849" style="stop-color: #C9CACE"/>
    </linearGradient>
</defs>
    <path fill="url(#SVGID_1_)" d="M67.9,25.9c-3.7-1.5-7.7-2.3-11.9-2.3c-17.9,0-32.4,14.5-32.4,32.4c0,17.9,14.5,32.4,32.4,32.4
        c17.9,0,32.4-14.5,32.4-32.4c0-6.5-2-12.6-5.3-17.7l14.8-17.9C106.1,30,111,42.4,111,56c0,30.4-24.6,55-55,55S1,86.4,1,56
        S25.6,1,56,1c9.7,0,18.8,2.5,26.7,6.9L67.9,25.9z M56,72c8.8,0,16-7.2,16-16s-7.2-16-16-16s-16,7.2-16,16S47.2,72,56,72z"/>
    <path fill="#56575A" opacity="0.26" d="M56,1.8c8.9,0,17.7,2.2,25.5,6.4L67.7,25c-3.8-1.4-7.7-2.1-11.7-2.1c-18.3,0-33.2,14.9-33.2,33.2
            S37.7,89.2,56,89.2S89.2,74.3,89.2,56c0-6.3-1.8-12.4-5.1-17.7l13.8-16.8c8,9.7,12.4,21.9,12.4,34.5c0,29.9-24.3,54.2-54.2,54.2
            S1.8,85.9,1.8,56S26.1,1.8,56,1.8 M56,40.8c8.4,0,15.3,6.8,15.3,15.3S64.4,71.3,56,71.3S40.8,64.4,40.8,56S47.6,40.8,56,40.8
             M56,1C25.6,1,1,25.6,1,56s24.6,55,55,55s55-24.6,55-55c0-13.6-4.9-26-13.1-35.6L83.1,38.3c3.3,5.1,5.3,11.2,5.3,17.7
            c0,17.9-14.5,32.4-32.4,32.4c-17.9,0-32.4-14.5-32.4-32.4c0-17.9,14.5-32.4,32.4-32.4c4.2,0,8.2,0.8,11.9,2.3l14.8-18
            C74.8,3.5,65.7,1,56,1L56,1z M56,40c-8.8,0-16,7.2-16,16s7.2,16,16,16s16-7.2,16-16S64.8,40,56,40L56,40z"/>
</svg>
