<svg width="24" height="24" viewBox="0 0 24 24" fill="none" xmlns="http://www.w3.org/2000/svg">
<path d="M12.454 4.9843C12.2753 4.59687 11.7247 4.59687 11.5459 4.9843L9.86011 8.6392C9.78727 8.7971 9.63763 8.90582 9.46495 8.9263L5.46798 9.4002C5.04429 9.45044 4.87413 9.97413 5.18738 10.2638L8.14244 12.9966C8.27011 13.1146 8.32726 13.2906 8.29337 13.4611L7.50895 17.4089C7.4258 17.8274 7.87128 18.151 8.24359 17.9426L11.7558 15.9767C11.9075 15.8917 12.0925 15.8917 12.2442 15.9767L15.7564 17.9426C16.1287 18.151 16.5742 17.8274 16.491 17.4089L15.7066 13.4611C15.6727 13.2905 15.7298 13.1146 15.8575 12.9966L18.8126 10.2638C19.1258 9.97413 18.9557 9.45044 18.532 9.4002L14.535 8.9263C14.3623 8.90582 14.2127 8.7971 14.1398 8.6392L12.454 4.9843Z" fill="#E7EC00"/>
</svg>
