<svg width="24" height="24" viewBox="0 0 24 24" fill="none" xmlns="http://www.w3.org/2000/svg">
<path d="M14.454 4.98433C14.2753 4.5969 13.7247 4.5969 13.546 4.98433L11.8601 8.63923C11.7873 8.79713 11.6377 8.90585 11.465 8.92633L7.46801 9.40023C7.04431 9.45047 6.87415 9.97416 7.1874 10.2638L10.1425 12.9966C10.2701 13.1147 10.3273 13.2906 10.2934 13.4611L9.50898 17.4089C9.42582 17.8274 9.8713 18.1511 10.2436 17.9427L13.7558 15.9767C13.9075 15.8918 14.0925 15.8918 14.2442 15.9767L17.7564 17.9427C18.1287 18.1511 18.5742 17.8274 18.491 17.4089L17.7066 13.4611C17.6727 13.2906 17.7299 13.1147 17.8575 12.9966L20.8126 10.2638C21.1258 9.97416 20.9557 9.45047 20.532 9.40023L16.535 8.92633C16.3623 8.90585 16.2127 8.79713 16.1399 8.63923L14.454 4.98433Z" fill="#E7EC00"/>
<path d="M13.546 4.9843C13.7247 4.59687 14.2753 4.59687 14.4541 4.9843L16.1399 8.6392C16.2127 8.7971 16.3624 8.90582 16.535 8.9263L20.532 9.4002C20.9557 9.45044 21.1259 9.97413 20.8126 10.2638L17.8576 12.9966C17.7299 13.1146 17.6727 13.2906 17.7066 13.4611L18.491 17.4089C18.5742 17.8274 18.1287 18.151 17.7564 17.9426L14.2442 15.9767C14.0925 15.8917 13.9075 15.8917 13.7558 15.9767L10.2436 17.9426C9.87133 18.151 9.42585 17.8274 9.509 17.4089L10.2934 13.4611C10.3273 13.2906 10.2702 13.1146 10.1425 12.9966L7.18742 10.2638C6.87417 9.97413 7.04433 9.45044 7.46803 9.4002L11.465 8.9263C11.6377 8.90582 11.7873 8.7971 11.8602 8.6392L13.546 4.9843Z" fill="#E7EC00"/>
<path d="M9.454 5.9843L10.1843 7.5676L7.6786 7.8647L8.54594 5.9843C8.72465 5.59687 9.27529 5.59687 9.454 5.9843Z" fill="#E7EC00"/>
<path d="M6.16897 11.3651C5.59441 10.8337 5.42642 10.1056 5.57637 9.45343L3.41903 9.70922C2.99534 9.75946 2.82518 10.2831 3.13843 10.5728L5.59894 12.8482C5.72661 12.9663 5.78376 13.1422 5.74987 13.3128L5.09673 16.5999C5.01358 17.0184 5.45906 17.342 5.83137 17.1336L8.31003 15.7462L8.71307 13.7178L6.16897 11.3651Z" fill="#E7EC00"/>
</svg>
