<svg width="24" height="24" viewBox="0 0 24 24" fill="none" xmlns="http://www.w3.org/2000/svg">
<path d="M11.4767 2.50005C11.298 2.11261 10.7474 2.11261 10.5686 2.50005L9.16494 5.54328C9.09211 5.70118 8.94247 5.8099 8.76978 5.83037L5.44174 6.22497C5.01804 6.2752 4.84788 6.7989 5.16113 7.08858L6.63245 8.44921C6.66893 8.41477 6.70685 8.38162 6.74618 8.34987C7.02151 8.12762 7.36585 7.97395 7.76701 7.92638L11.2081 7.51839L12.4998 4.71806L11.4767 2.50005Z" fill="#E7EC00"/>
<path d="M9.18868 14.5241L8.68893 17.0392L8.2669 16.803C8.11516 16.718 7.93019 16.718 7.77846 16.803L4.85407 18.4399C4.48177 18.6483 4.03628 18.3247 4.11944 17.9062L4.77258 14.6191C4.80647 14.4485 4.74931 14.2726 4.62164 14.1545L2.16113 11.8791C1.84788 11.5895 2.01804 11.0658 2.44174 11.0155L5.76978 10.6209C5.85791 10.6105 5.94003 10.5771 6.009 10.5258C5.95446 11.1038 6.14715 11.7114 6.64459 12.1714L9.18868 14.5241Z" fill="#E7EC00"/>
<path d="M15.4537 5.98433C15.275 5.59689 14.7243 5.59689 14.5456 5.98433L12.8598 9.63923C12.787 9.79713 12.6373 9.90585 12.4646 9.92633L8.46766 10.4002C8.04396 10.4505 7.87381 10.9742 8.18706 11.2638L11.1421 13.9966C11.2698 14.1147 11.3269 14.2906 11.2931 14.4611L10.5086 18.4089C10.4255 18.8274 10.871 19.1511 11.2433 18.9427L14.7554 16.9767C14.9072 16.8918 15.0921 16.8918 15.2439 16.9767L18.756 18.9427C19.1284 19.1511 19.5738 18.8274 19.4907 18.4089L18.7063 14.4611C18.6724 14.2906 18.7295 14.1147 18.8572 13.9966L21.8123 11.2638C22.1255 10.9742 21.9553 10.4505 21.5317 10.4002L17.5347 9.92633C17.362 9.90585 17.2124 9.79713 17.1395 9.63923L15.4537 5.98433Z" fill="#E7EC00"/>
</svg>
