<svg xmlns="http://www.w3.org/2000/svg" viewBox="0 0 24 24">
  <path id="banknotes" d="M 12.78,7.75 l 2.75,4.76 -0.13,0.08 -0.09,0.05 -0.08,0.06 -0.08,0.06 -0.08,0.06 -0.07,0.07 -0.07,0.07 -0.06,0.08 -0.07,0.07 -0.05,0.08 -0.06,0.09 -0.05,0.08 -0.04,0.09 -0.04,0.09 -0.04,0.1 -0.03,0.09 -0.03,0.1 -0.29,1.14 -0.03,0.1 -0.03,0.1 -0.03,0.09 -0.05,0.09 -0.04,0.09 -0.05,0.09 -0.05,0.08 -0.06,0.08 -0.06,0.08 -0.07,0.07 -0.07,0.07 -0.07,0.07 -0.08,0.07 -0.08,0.06 -0.08,0.05 -0.09,0.06 -5.33,3.07 0.72,1.25 5.35,-3.08 0.08,-0.06 0.08,-0.05 0.08,-0.06 0.08,-0.06 0.07,-0.07 0.07,-0.07 0.06,-0.07 0.06,-0.08 0.06,-0.08 0.06,-0.08 0.04,-0.08 0.05,-0.09 0.04,-0.09 0.04,-0.09 0.03,-0.09 0.03,-0.1 0.3,-1.13 0.03,-0.1 0.03,-0.09 0.04,-0.09 0.04,-0.09 0.05,-0.09 0.05,-0.08 0.05,-0.08 0.06,-0.08 0.06,-0.08 0.06,-0.07 0.07,-0.07 0.07,-0.06 0.08,-0.07 0.08,-0.06 0.08,-0.05 0.08,-0.05 0.15,-0.09 0.73,1.26 0.02,0.05 0.02,0.05 0.02,0.05 0.01,0.05 0,0.06 0,0.05 0,0.05 -0.02,0.05 -0.01,0.05 -0.02,0.05 -0.03,0.05 -0.03,0.04 -0.03,0.04 -0.04,0.04 -0.04,0.03 -0.05,0.04 -0.05,0.02 -0.04,0.03 -0.04,0.04 -0.05,0.03 -0.04,0.04 -0.03,0.04 -0.04,0.04 -0.03,0.04 -0.03,0.04 -0.03,0.04 -0.03,0.05 -0.02,0.05 -0.03,0.05 -0.02,0.05 -0.02,0.05 -0.01,0.05 -0.4,1.49 -0.03,0.1 -0.03,0.09 -0.04,0.09 -0.04,0.09 -0.05,0.09 -0.04,0.08 -0.06,0.08 -0.06,0.08 -0.06,0.08 -0.06,0.07 -0.07,0.07 -0.07,0.07 -0.08,0.06 -0.08,0.06 -0.08,0.06 -0.08,0.05 -5.35,3.08 -0.04,0.03 -0.05,0.02 -0.05,0.02 -0.04,0.02 -0.05,0.01 -0.05,0.01 -0.05,0.01 -0.04,0.01 -0.05,0.01 -0.05,0 -0.05,0 -0.05,0 -0.04,-0.01 -0.05,-0.01 -0.05,0 -0.05,-0.02 -0.04,-0.01 -0.05,-0.02 -0.04,-0.01 -0.05,-0.02 -0.04,-0.03 -0.04,-0.02 -0.04,-0.03 -0.04,-0.02 -0.04,-0.03 -0.04,-0.04 -0.03,-0.03 -0.04,-0.04 -0.03,-0.04 -0.03,-0.04 -0.03,-0.04 -0.02,-0.04 -4,-6.93 -0.03,-0.05 -0.02,-0.04 -0.02,-0.05 -0.02,-0.05 -0.01,-0.04 -0.01,-0.05 -0.01,-0.05 -0.01,-0.05 0,-0.05 -0.01,-0.04 0,-0.05 0,-0.05 0.01,-0.05 0.01,-0.05 0.01,-0.04 0.01,-0.05 0.01,-0.05 0.02,-0.04 0.01,-0.05 0.02,-0.04 0.03,-0.04 0.02,-0.04 0.03,-0.04 0.02,-0.04 0.04,-0.04 0.03,-0.04 0.03,-0.03 0.04,-0.04 0.04,-0.03 0.04,-0.03 0.04,-0.03 0.04,-0.03 3.62,-2.08 0.08,-0.05 0.08,-0.06 0.08,-0.06 0.08,-0.06 0.07,-0.07 0.07,-0.07 0.06,-0.07 0.06,-0.08 0.06,-0.08 0.05,-0.08 0.05,-0.08 0.05,-0.09 0.04,-0.09 0.04,-0.09 0.03,-0.09 0.03,-0.1 0.3,-1.13 0.03,-0.09 0.03,-0.1 0.04,-0.09 0.04,-0.09 0.04,-0.08 0.05,-0.09 0.06,-0.08 0.06,-0.08 0.06,-0.07 0.06,-0.08 0.07,-0.07 0.07,-0.06 0.08,-0.07 0.08,-0.06 0.08,-0.05 0.08,-0.05 1.02,-0.59 0.04,-0.02 0.05,-0.03 0.04,-0.01 0.05,-0.02 0.05,-0.02 0.05,-0.01 0.04,-0.01 0.05,-0.01 0.05,0 0.05,0 0.05,0 0.05,0 0.04,0 0.05,0.01 0.05,0.01 0.05,0.01 0.04,0.02 0.05,0.01 0.04,0.02 0.05,0.02 0.04,0.02 0.04,0.03 0.04,0.02 0.04,0.03 0.04,0.03 0.04,0.03 0.03,0.04 0.03,0.03 0.04,0.04 0.03,0.04 0.03,0.04 0.02,0.05 Z M 18.08,13.93 l -4,-6.93 -0.02,-0.05 -0.02,-0.04 -0.02,-0.05 -0.02,-0.05 -0.02,-0.04 -0.01,-0.05 -0.01,-0.05 0,-0.05 -0.01,-0.05 0,-0.05 0,-0.04 0,-0.05 0,-0.05 0.01,-0.05 0.01,-0.04 0.01,-0.05 0.02,-0.05 0.01,-0.04 0.02,-0.05 0.02,-0.04 0.02,-0.04 0.03,-0.05 0.02,-0.04 0.03,-0.04 0.03,-0.03 0.03,-0.04 0.04,-0.04 0.03,-0.03 0.04,-0.03 0.04,-0.03 0.04,-0.03 0.05,-0.03 3.03,-1.75 0.04,-0.02 0.05,-0.03 0.05,-0.01 0.04,-0.02 0.05,-0.02 0.05,-0.01 0.05,-0.01 0.05,-0.01 0.04,0 0.05,0 0.05,0 0.05,0 0.05,0 0.04,0.01 0.05,0.01 0.05,0.01 0.04,0.02 0.05,0.01 0.04,0.02 0.05,0.02 0.04,0.02 0.04,0.03 0.04,0.02 0.04,0.03 0.04,0.03 0.04,0.03 0.03,0.04 0.04,0.03 0.03,0.04 0.03,0.04 0.03,0.04 0.03,0.05 4,6.93 0.02,0.04 0.02,0.05 0.02,0.04 0.02,0.05 0.01,0.05 0.01,0.05 0.01,0.04 0.01,0.05 0.01,0.05 0,0.05 0,0.05 0,0.05 -0.01,0.04 0,0.05 -0.01,0.05 -0.02,0.04 -0.01,0.05 -0.01,0.05 -0.02,0.04 -0.02,0.04 -0.02,0.05 -0.03,0.04 -0.02,0.04 -0.03,0.04 -0.03,0.04 -0.04,0.03 -0.03,0.04 -0.04,0.03 -0.03,0.04 -0.05,0.03 -0.04,0.02 -0.04,0.03 -3.03,1.75 -0.05,0.03 -0.04,0.02 -0.05,0.02 -0.05,0.01 -0.04,0.02 -0.05,0.01 -0.05,0.01 -0.05,0.01 -0.05,0 -0.05,0.01 -0.04,0 -0.05,-0.01 -0.05,0 -0.05,-0.01 -0.04,-0.01 -0.05,-0.01 -0.05,-0.01 -0.04,-0.02 -0.05,-0.02 -0.04,-0.02 -0.04,-0.02 -0.05,-0.02 -0.04,-0.03 -0.04,-0.03 -0.03,-0.03 -0.04,-0.03 -0.04,-0.03 -0.03,-0.04 -0.03,-0.04 -0.03,-0.04 -0.03,-0.04 -0.03,-0.04 Z M 8.91,7.38 l -0.05,0.04 -0.05,0.03 -0.05,0.04 -0.05,0.04 -0.04,0.04 -0.05,0.04 -0.04,0.05 -0.04,0.05 -0.03,0.05 -0.03,0.05 -0.04,0.05 -0.02,0.05 -0.03,0.06 -0.02,0.06 -0.02,0.05 -0.02,0.06 -0.3,1.14 -0.04,0.13 -0.05,0.12 -0.05,0.13 -0.06,0.12 -0.06,0.12 -0.07,0.12 -0.07,0.11 -0.08,0.11 -0.08,0.1 -0.09,0.1 -0.1,0.1 -0.1,0.09 -0.1,0.09 -0.11,0.08 -0.11,0.07 -0.12,0.08 -4.47,2.58 -0.03,0.01 -0.02,0.02 -0.01,0.02 -0.02,0.02 -0.01,0.02 -0.01,0.02 -0.01,0.02 -0.01,0.02 -0.01,0.03 0,0.02 0,0.02 0,0.03 0.01,0.02 0,0.03 0.01,0.02 0.01,0.02 3.5,6.06 -0.43,0.25 -0.04,0.03 -0.05,0.02 -0.05,0.02 -0.04,0.02 -0.05,0.01 -0.05,0.01 -0.05,0.01 -0.05,0.01 -0.04,0.01 -0.05,0 -0.05,0 -0.05,0 -0.05,-0.01 -0.04,0 -0.05,-0.01 -0.05,-0.02 -0.04,-0.01 -0.05,-0.01 -0.04,-0.02 -0.05,-0.02 -0.04,-0.02 -0.04,-0.03 -0.04,-0.03 -0.04,-0.02 -0.04,-0.03 -0.04,-0.04 -0.03,-0.03 -0.04,-0.04 -0.03,-0.04 -0.03,-0.04 -0.03,-0.04 -0.02,-0.04 -3,-5.2 -0.05,-0.08 -0.04,-0.08 -0.03,-0.08 -0.03,-0.08 -0.03,-0.08 -0.02,-0.09 -0.01,-0.08 -0.02,-0.09 0,-0.08 -0.01,-0.09 0,-0.08 0,-0.08 0.01,-0.09 0.01,-0.08 0.02,-0.08 0.02,-0.09 0.02,-0.08 0.03,-0.08 0.03,-0.07 0.04,-0.08 0.04,-0.07 0.04,-0.08 0.04,-0.07 0.05,-0.07 0.06,-0.07 0.05,-0.06 0.06,-0.06 0.07,-0.06 0.06,-0.06 0.08,-0.05 0.07,-0.05 0.08,-0.05 4.47,-2.58 0.06,-0.04 0.05,-0.03 0.05,-0.04 0.04,-0.04 0.05,-0.04 0.04,-0.04 0.04,-0.05 0.04,-0.05 0.04,-0.04 0.03,-0.06 0.03,-0.05 0.03,-0.05 0.03,-0.06 0.02,-0.06 0.02,-0.05 0.02,-0.06 0.3,-1.13 0.04,-0.14 0.04,-0.12 0.05,-0.13 0.06,-0.12 0.06,-0.12 0.07,-0.12 0.08,-0.11 0.07,-0.11 0.09,-0.1 0.09,-0.1 0.09,-0.1 0.1,-0.09 0.1,-0.09 0.11,-0.08 0.11,-0.07 0.12,-0.07 6.21,-3.59 0.05,-0.02 0.04,-0.03 0.05,-0.02 0.05,-0.01 0.04,-0.02 0.05,-0.01 0.05,-0.01 0.05,-0.01 0.05,0 0.05,0 0.04,0 0.05,0 0.05,0 0.05,0.01 0.04,0.01 0.05,0.01 0.05,0.01 0.04,0.02 0.05,0.02 0.04,0.02 0.04,0.02 0.05,0.02 0.04,0.03 0.04,0.03 0.03,0.03 0.04,0.03 0.04,0.04 0.03,0.03 0.03,0.04 0.03,0.04 0.03,0.04 0.03,0.05 0.25,0.43 -7.08,4.08 Z M 7.72,12.98 l -2.6,1.5 1,1.73 2.6,-1.5 -1,-1.73 Z M 18.38,11.44 l 1,1.74 2.6,-1.5 -1,-1.74 -2.6,1.5 Z" fill-rule="evenodd" fill="#000000" />
</svg>