<svg width="24" height="24" viewBox="0 0 24 24" fill="none" xmlns="http://www.w3.org/2000/svg">
<path fill-rule="evenodd" clip-rule="evenodd" d="M2 11.9478C2 10.8432 2.89543 9.94781 4 9.94781H7.81497L9.64313 14.0055L5.60081 19.2037H8.21135L10.5952 16.1382L11.948 19.1973H14.3867L14.3711 19.19L11.8701 14.3818L13.9381 11.8931H15.239L17.1046 9.94781H20.3832C20.8706 9.94781 21.2812 10.0291 21.6149 10.1915C21.9531 10.354 22.2253 10.5692 22.4317 10.837C22.6381 11.1005 22.7874 11.3925 22.8796 11.7131C22.9718 12.0337 23 12.3885 23 12.7091C23 13.1438 22.921 13.5544 22.7629 13.9408C22.6048 14.3272 22.3764 14.6676 22.0778 14.9618C21.7792 15.256 21.4148 15.4887 20.9844 15.66C20.5585 15.8269 20.0754 15.9103 19.5353 15.9103H17.3221L16.7425 19.2037H16.7407L16.5758 20.2257H4C2.89543 20.2257 2 19.3303 2 18.2257V11.9478ZM19.7329 14.0001H17.6646L18.0467 11.8923H20.1149C20.3301 11.8923 20.497 11.9384 20.6156 12.0306C20.7341 12.1184 20.8154 12.2392 20.8593 12.3929C20.9076 12.5466 20.9317 12.7178 20.9317 12.9067C20.9317 13.056 20.89 13.2162 20.8066 13.3875C20.7275 13.5544 20.6002 13.6993 20.4245 13.8222C20.2489 13.9408 20.0183 14.0001 19.7329 14.0001Z" fill="black"/>
<path d="M10 9.94781L11 12.4478L12.7825 9.94781H10Z" fill="black"/>
<path d="M2 8.91573L2.90889 4H5.23654C5.52965 4 5.78458 4.04682 6.00134 4.14045C6.21809 4.23408 6.38559 4.37102 6.50382 4.55126C6.62451 4.72917 6.68485 4.94569 6.68485 5.20084C6.68485 5.36938 6.65407 5.52856 6.59249 5.67837C6.53337 5.82584 6.4447 5.95927 6.32647 6.07865C6.2107 6.19803 6.06661 6.29635 5.89419 6.3736C6.11341 6.46489 6.27967 6.5948 6.39298 6.76334C6.50874 6.93188 6.56663 7.13202 6.56663 7.36376C6.56663 7.60253 6.51983 7.81788 6.42623 8.00983C6.33263 8.19944 6.19716 8.36213 6.01981 8.49789C5.84247 8.63366 5.62941 8.73783 5.38063 8.81039C5.13186 8.88062 4.85229 8.91573 4.54194 8.91573H2ZM3.30053 7.91854H4.51977C4.70204 7.91854 4.85599 7.8963 4.98161 7.85183C5.10723 7.80735 5.20206 7.74298 5.2661 7.65871C5.33014 7.57444 5.36216 7.47144 5.36216 7.34972C5.36216 7.24906 5.33876 7.16362 5.29196 7.0934C5.24516 7.02083 5.17496 6.96582 5.08136 6.92837C4.98777 6.89092 4.872 6.87219 4.73406 6.87219H3.49265L3.30053 7.91854ZM3.67739 5.875H4.83013C4.98284 5.875 5.11338 5.85627 5.22176 5.81882C5.3326 5.77903 5.41635 5.72285 5.473 5.65028C5.53212 5.57537 5.56167 5.48408 5.56167 5.3764C5.56167 5.29916 5.54074 5.23244 5.49886 5.17626C5.45945 5.11774 5.40157 5.0721 5.32521 5.03933C5.25132 5.00655 5.16265 4.99017 5.0592 4.99017H3.83995L3.67739 5.875Z" fill="black"/>
<path d="M6.93586 8.91573L7.84475 4H11.3695L11.1847 5.01124H8.79798L8.63542 5.875H9.9655L9.78077 6.88624H8.44329L8.25856 7.89747H10.8005L10.6084 8.91573H6.93586Z" fill="black"/>
<path d="M10.9186 8.91573L13.7709 4H14.8941L15.9212 8.91573H14.7685L14.5763 7.96067H12.6699L12.1231 8.91573H10.9186ZM13.1945 6.98455H14.399L14.1625 5.76966C14.1576 5.74391 14.1502 5.70529 14.1404 5.65379C14.1305 5.60229 14.1207 5.5508 14.1108 5.4993C14.1034 5.4478 14.0985 5.40918 14.096 5.38343C14.0837 5.41152 14.0652 5.44897 14.0406 5.49579C14.0184 5.5426 13.9938 5.58942 13.9667 5.63624C13.9421 5.68305 13.9212 5.72051 13.9039 5.7486L13.1945 6.98455Z" fill="black"/>
<path d="M18.6822 9L17.9728 6.59831C17.9556 6.53745 17.9408 6.47308 17.9285 6.4052C17.9161 6.33731 17.9038 6.26124 17.8915 6.17697C17.8891 6.21208 17.8817 6.27645 17.8693 6.37008C17.857 6.46372 17.8447 6.53745 17.8324 6.59129L17.4038 8.91573H16.288L17.1969 4H18.3497L18.963 6.29635C18.9975 6.42509 19.0196 6.52224 19.0295 6.58778C19.0418 6.65332 19.0516 6.71302 19.059 6.76685C19.0861 6.70599 19.112 6.64981 19.1366 6.59831C19.1637 6.54682 19.2044 6.48127 19.2585 6.40169L20.8694 4H22L21.0911 8.91573H19.9679L20.3891 6.59831C20.4014 6.54213 20.4174 6.4684 20.4371 6.37711C20.4593 6.28581 20.4753 6.22144 20.4852 6.18399C20.4384 6.27528 20.3977 6.35253 20.3633 6.41573C20.3288 6.47893 20.2906 6.54213 20.2487 6.60534L18.6822 9Z" fill="black"/>
</svg>
