<svg width="24" height="24" viewBox="0 0 24 24" fill="none" xmlns="http://www.w3.org/2000/svg">
<path fill-rule="evenodd" clip-rule="evenodd" d="M0.925201 5.71835L14.2684 4L15.2731 11.8012L1.92985 13.5196L0.925201 5.71835ZM5.29289 8.99998L3.64645 7.35353L4.35355 6.64642L6.70711 8.99998L4.35355 11.3535L3.64645 10.6464L5.29289 8.99998ZM6.64645 7.35353L8.29289 8.99998L6.64645 10.6464L7.35355 11.3535L9.70711 8.99998L7.35355 6.64642L6.64645 7.35353ZM9.64645 7.35353L11.2929 8.99998L9.64645 10.6464L10.3536 11.3535L12.7071 8.99998L10.3536 6.64642L9.64645 7.35353Z" fill="black"/>
<path fill-rule="evenodd" clip-rule="evenodd" d="M22 16C22.5523 16 23 15.5523 23 15V12.2218C23 12.0757 22.968 11.9313 22.9062 11.7989L20.936 7.57709C20.7717 7.22501 20.4183 6.99997 20.0298 6.99997H17C16.4477 6.99997 16 7.44769 16 7.99997V14H2V16H4.05001C4.01722 16.1615 4 16.3287 4 16.5C4 17.8807 5.11929 19 6.5 19C7.88071 19 9 17.8807 9 16.5C9 16.3287 8.98279 16.1615 8.94999 16H10V17H15V16H16.05C16.0172 16.1615 16 16.3287 16 16.5C16 17.8807 17.1193 19 18.5 19C19.8807 19 21 17.8807 21 16.5C21 16.3287 20.9828 16.1615 20.95 16H22ZM7.5 16.5C7.5 17.0523 7.05228 17.5 6.5 17.5C5.94772 17.5 5.5 17.0523 5.5 16.5C5.5 15.9477 5.94772 15.5 6.5 15.5C7.05228 15.5 7.5 15.9477 7.5 16.5ZM19.844 16.5057C19.844 17.2554 19.2362 17.8631 18.4866 17.8631C17.7369 17.8631 17.1292 17.2554 17.1292 16.5057C17.1292 15.7561 17.7369 15.1483 18.4866 15.1483C19.2362 15.1483 19.844 15.7561 19.844 16.5057Z" fill="black"/>
</svg>
