<svg width="24" height="24" viewBox="0 0 24 24" fill="none" xmlns="http://www.w3.org/2000/svg">
<path d="M4.22791 19L6.88984 15.6635L5.54976 12.6186H7.12686L7.91086 14.3598L9.33299 12.6186H11.056L8.53076 15.7729L9.97112 19H8.3849L7.50063 17.0765L5.94175 19H4.22791Z" fill="black"/>
<path d="M10.6719 19L11.7932 12.6186H14.5737C14.911 12.6186 15.1951 12.6749 15.426 12.7873C15.66 12.8997 15.8484 13.0486 15.9912 13.234C16.1341 13.4163 16.2374 13.6184 16.3012 13.8402C16.365 14.0621 16.3969 14.2839 16.3969 14.5057C16.3969 14.8065 16.3422 15.0907 16.2328 15.3581C16.1234 15.6255 15.9654 15.861 15.7588 16.0646C15.5521 16.2682 15.2999 16.4292 15.0021 16.5477C14.7074 16.6632 14.3731 16.7209 13.9993 16.7209H12.4678L12.0667 19H10.6719ZM12.7048 15.3991H14.1361C14.3336 15.3991 14.4931 15.3581 14.6147 15.276C14.7362 15.1909 14.8244 15.0907 14.8791 14.9752C14.9368 14.8567 14.9657 14.7458 14.9657 14.6424C14.9657 14.5118 14.949 14.3933 14.9155 14.2869C14.8851 14.1806 14.8289 14.097 14.7469 14.0362C14.6648 13.9724 14.5494 13.9405 14.4005 13.9405H12.9692L12.7048 15.3991Z" fill="black"/>
<path fill-rule="evenodd" clip-rule="evenodd" d="M11.5 4.5C10.9477 4.5 10.5 4.94772 10.5 5.5V6H21V8H4V6H8.5V5.5C8.5 3.84315 9.84315 2.5 11.5 2.5H17V4.5H11.5ZM13 9C13 9.27614 13.2239 9.5 13.5 9.5H18V11.5H13.5C12.1193 11.5 11 10.3807 11 9H13Z" fill="black"/>
</svg>
