<svg width="24" height="24" viewBox="0 0 24 24" fill="none" xmlns="http://www.w3.org/2000/svg">
<path d="M12.9472 4.77641L11.4472 1.77637L10.5528 2.22358L12.0528 5.22361L12.9472 4.77641Z" fill="black"/>
<path d="M16.4472 2.22363L14.9472 5.22362L14.0528 4.7764L15.5528 1.77641L16.4472 2.22363Z" fill="black"/>
<path d="M15.9178 6.00678L18.9178 5.50681L19.0822 6.49321L16.0822 6.99318L15.9178 6.00678Z" fill="black"/>
<path d="M8.0822 5.50681L11.0822 6.0068L10.9178 6.99319L7.9178 6.49321L8.0822 5.50681Z" fill="black"/>
<path fill-rule="evenodd" clip-rule="evenodd" d="M13 6.00001C12.4477 6.00001 12 6.44773 12 7.00001V8.00001C10.5289 8.00002 9.05777 8.13174 7.9142 8.39518C7.45591 8.50075 7.09919 8.84008 6.9244 9.2709L5.78458 12.0803C5.66436 12.3766 5.45581 12.63 5.18646 12.807L4.91474 12.9856C4.58353 13.2033 4.3465 13.5349 4.24996 13.9156L4.04777 14.713C4.01604 14.8381 4 14.9666 4 15.0956V17.1371C4 17.224 4.00728 17.3107 4.02177 17.3964L4.17717 18.3157C4.24733 18.7307 4.47791 19.0853 4.8 19.3218V21.2113C4.8 21.6469 5.15817 22 5.6 22H6.4C6.84183 22 7.2 21.6469 7.2 21.2113V19.6339L8.8 19.6338L9.6 19.2394H14.4L15.2 19.6338L16.8 19.6339V21.2113C16.8 21.6469 17.1582 22 17.6 22H18.4C18.8418 22 19.2 21.6469 19.2 21.2113V19.3218C19.5221 19.0853 19.7527 18.7307 19.8228 18.3157L19.9782 17.3964C19.9927 17.3107 20 17.224 20 17.1371V15.0956C20 14.9666 19.984 14.8381 19.9522 14.713L19.75 13.9156C19.6535 13.5349 19.4165 13.2033 19.0853 12.9856L18.8135 12.807C18.5442 12.63 18.3356 12.3766 18.2154 12.0803L17.0756 9.27088C16.9008 8.84007 16.5441 8.50075 16.0858 8.39517C15.744 8.31641 15.3728 8.24943 14.9812 8.19422C14.9935 8.13139 15 8.06646 15 8.00001V7.00001C15 6.44773 14.5523 6.00001 14 6.00001H13ZM6.5826 14.3549C6.02816 14.2182 5.46045 14.5255 5.27974 15.06C5.04372 15.7582 5.57082 16.4792 6.31726 16.4792H7.90148C8.39772 16.4792 8.8 16.0825 8.8 15.5933C8.8 15.1868 8.51944 14.8325 8.11948 14.7339L6.5826 14.3549ZM18.7203 15.06C18.5396 14.5255 17.9718 14.2182 17.4174 14.3549L15.8805 14.7339C15.4806 14.8325 15.2 15.1868 15.2 15.5933C15.2 16.0825 15.6023 16.4792 16.0985 16.4792H17.6827C18.4292 16.4792 18.9563 15.7582 18.7203 15.06ZM8.48742 9.32872C8.18818 9.35872 7.93351 9.55518 7.8279 9.83284L6.8 12.5353C10.9147 12.3027 13.1772 12.3821 17.2 12.5355L16.1723 9.83354C16.0666 9.55559 15.8114 9.35904 15.5118 9.32928C13.0177 9.08147 10.8809 9.0888 8.48742 9.32872Z" fill="black"/>
</svg>
