<svg width="24" height="24" viewBox="0 0 24 24" fill="none" xmlns="http://www.w3.org/2000/svg">
<path d="M14.5836 6.18204L13 4.9677L18.4232 2.82556L17.7612 8.61881L16.2426 7.45425C13.5744 11.4067 10.5885 14.1371 5 16L4 12C8.64094 11.0718 11.9896 9.28208 14.5836 6.18204Z" fill="black"/>
<path d="M21 9.99999C19.8956 11.9634 18.7446 13.5036 17.5308 14.725L18.8462 19H21V21H2C1.44772 21 1 20.5523 1 20C1 19.4477 1.44772 19 2 19H3.96415C10.7911 18.0135 16.5777 13.8705 19.5 8.99999L21 9.99999Z" fill="black"/>
</svg>
