<svg width="49" height="48" viewBox="0 0 49 48" fill="none" xmlns="http://www.w3.org/2000/svg">
<path fill-rule="evenodd" clip-rule="evenodd" d="M40.25 9.99908H34.25L32.4215 8.17114C31.6714 7.42126 30.6542 7 29.5935 7H18.9065C17.8458 7 16.8286 7.42126 16.0785 8.17114L14.25 9.99908H8.25C5.99439 9.99908 4.25 11.889 4.25 13.9991V33.9992C4.25 36.1093 5.99439 38.0015 8.25 38.0015L40.25 38.0014C42.5056 38.0014 44.25 36.1093 44.25 33.9992V13.9991C44.25 11.889 42.5056 9.99908 40.25 9.99908ZM32.25 24.0007C32.25 28.4189 28.6683 32.0007 24.25 32.0007C19.8317 32.0007 16.25 28.4189 16.25 24.0007C16.25 19.5824 19.8317 16.0007 24.25 16.0007C28.6683 16.0007 32.25 19.5824 32.25 24.0007ZM34.25 18.0007C35.3546 18.0007 36.25 17.1052 36.25 16.0007C36.25 14.8961 35.3546 14.0007 34.25 14.0007C33.1454 14.0007 32.25 14.8961 32.25 16.0007C32.25 17.1052 33.1454 18.0007 34.25 18.0007Z" fill="black"/>
</svg>
