<svg width="24" height="24" viewBox="0 0 24 24" fill="none" xmlns="http://www.w3.org/2000/svg">
<path d="M16.5 10.1573L12 12.9311L7.50005 10.1573V14.2263L12 17L16.5 14.2263V10.1573Z" fill="black"/>
<path fill-rule="evenodd" clip-rule="evenodd" d="M4 16.05V8L12 3L20 8V16.05L12 21L4 16.05ZM12 19.2361L5.5 15.2142V8.83137L12 4.76887L18.5 8.83137V15.2142L12 19.2361Z" fill="black"/>
<path d="M15.6192 20.6285L19.6971 18.1817C19.8304 18.1018 20 18.1978 20 18.3532V20.8C20 20.9105 19.9105 21 19.8 21H15.7221C15.5192 21 15.4452 20.7329 15.6192 20.6285Z" fill="black"/>
</svg>
