<svg width="24" height="24" viewBox="0 0 24 24" fill="none" xmlns="http://www.w3.org/2000/svg">
<path d="M14 3H10V6H11V10C10.2597 10 9.61337 10.4022 9.26756 11H7V8C7 7.44772 6.55228 7 6 7H3C2.44772 7 2 7.44772 2 8V16C2 16.5523 2.44772 17 3 17H6C6.55228 17 7 16.5523 7 16V13H9.26756C9.61337 13.5978 10.2597 14 11 14V18H10V21H14V18H13V14C13.7403 14 14.3866 13.5978 14.7324 13H17V16C17 16.5523 17.4477 17 18 17H21C21.5523 17 22 16.5523 22 16V8C22 7.44772 21.5523 7 21 7H18C17.4477 7 17 7.44772 17 8V11H14.7324C14.3866 10.4022 13.7403 10 13 10V6H14V3Z" fill="white"/>
</svg>
