<svg width="24" height="24" viewBox="0 0 24 24" fill="none" xmlns="http://www.w3.org/2000/svg">
<path d="M8 9H12V11H11V13C11.7403 13 12.3866 13.4022 12.7324 14H15V12C15 11.4477 15.4477 11 16 11H18C18.5523 11 19 11.4477 19 12V18C19 18.5523 18.5523 19 18 19H16C15.4477 19 15 18.5523 15 18V16H12.7324C12.3866 16.5978 11.7403 17 11 17V19H12V21H8V19H9V17C8.25972 17 7.61337 16.5978 7.26756 16H5V18C5 18.5523 4.55228 19 4 19H2C1.44772 19 1 18.5523 1 18V12C1 11.4477 1.44772 11 2 11H4C4.55228 11 5 11.4477 5 12V14H7.26756C7.61337 13.4022 8.25972 13 9 13V11H8V9Z" fill="white"/>
</svg>
