<svg width="24" height="24" viewBox="0 0 24 24" fill="none" xmlns="http://www.w3.org/2000/svg">
<path fill-rule="evenodd" clip-rule="evenodd" d="M18.3964 5.0029C18.1924 4.7739 17.837 4.85064 17.6911 5.12036L11.1381 17.229C11.0527 17.3868 10.8893 17.4867 10.7099 17.4909L8.72328 17.5368C8.53724 17.5411 8.3642 17.4417 8.27416 17.2789L5.10585 11.5485C4.97726 11.316 5.05307 11.0235 5.27842 10.8826L6.96039 9.83138C7.2082 9.67649 7.53546 9.76624 7.6696 10.0259L9.18898 12.9666C9.37366 13.324 9.88342 13.328 10.0737 12.9735L14.4956 4.73649C14.6744 4.4034 14.4331 4 14.0551 4H7C5.34315 4 4 5.34315 4 7V17C4 18.6569 5.34315 20 7 20H13.6577C15.0343 20 16.2342 19.0631 16.5681 17.7276L19.0681 7.72761C19.3224 6.71059 19.0269 5.71067 18.3964 5.0029Z" fill="black"/>
</svg>
