<svg width="24" height="24" viewBox="0 0 24 24" fill="none" xmlns="http://www.w3.org/2000/svg">
<path fill-rule="evenodd" clip-rule="evenodd" d="M16.1577 6H7C6.44772 6 6 6.44772 6 7V17C6 17.5523 6.44772 18 7 18H13.6577C14.1165 18 14.5165 17.6877 14.6278 17.2425L17.1278 7.24254C17.2856 6.61139 16.8082 6 16.1577 6ZM7 4C5.34315 4 4 5.34315 4 7V17C4 18.6569 5.34315 20 7 20H13.6577C15.0343 20 16.2342 19.0631 16.5681 17.7276L19.0681 7.72761C19.5415 5.83417 18.1094 4 16.1577 4H7Z" fill="black"/>
</svg>
