<svg width="24" height="24" viewBox="0 0 24 24" fill="none" xmlns="http://www.w3.org/2000/svg">
<path fill-rule="evenodd" clip-rule="evenodd" d="M16.0724 4.59911L16.6383 4.03788C16.4823 4.01298 16.3218 4 16.1577 4H7C5.34315 4 4 5.34315 4 7V17C4 18.6569 5.34315 20 7 20H13.6577C15.0343 20 16.2342 19.0631 16.5681 17.7276L19.0681 7.72761C19.2089 7.16453 19.1811 6.6067 19.0213 6.10079L17.3725 7.73592L16.0724 4.59911ZM15.2256 5.46385L16.5257 8.60066L13.1594 12.0381L16.0607 14.9393L13.9393 17.0607L11.0561 14.1775L6.66327 18.6368L5.36319 15.5L8.84643 11.9678L5.93934 9.06066L8.06066 6.93934L10.9505 9.82922L15.2256 5.46385Z" fill="black"/>
</svg>
