<svg width="24" height="24" viewBox="0 0 24 24" fill="none" xmlns="http://www.w3.org/2000/svg">
<path fill-rule="evenodd" clip-rule="evenodd" d="M16.8932 5H6.44366C5.29194 5 4.19611 5.49643 3.43662 6.36225L2.12412 7.8585C2.04411 7.94971 2 8.0669 2 8.18822V9.3L3.9005 9.10995C4.48918 9.05108 5 9.51337 5 10.105V11.895C5 12.4866 4.48918 12.9489 3.9005 12.89L2 12.7V13.7678C2 13.915 2.06491 14.0548 2.17741 14.1498L5.61909 17.0561C6.34088 17.6656 7.2551 18 8.19981 18H14.9631C15.7754 18 16.5685 17.7527 17.2368 17.2909L21.7842 14.1491C21.9193 14.0557 22 13.902 22 13.7377V13.0833L12 13.5L7.40946 13.0827C6.89439 13.0359 6.5 12.604 6.5 12.0868V9.91321C6.5 9.39601 6.89439 8.96415 7.40947 8.91732L12 8.5L22 8.91667V8.23766C22 8.08728 21.9323 7.94489 21.8157 7.84994L19.4189 5.89826C18.7054 5.31724 17.8134 5 16.8932 5ZM9 12C9.55228 12 10 11.5523 10 11C10 10.4477 9.55228 10 9 10C8.44772 10 8 10.4477 8 11C8 11.5523 8.44772 12 9 12Z" fill="black"/>
</svg>
