<svg width="49" height="48" viewBox="0 0 49 48" fill="none" xmlns="http://www.w3.org/2000/svg">
<path fill-rule="evenodd" clip-rule="evenodd" d="M14.75 8C14.75 6.89543 15.6454 6 16.75 6H32.75C33.8546 6 34.75 6.89543 34.75 8C34.75 9.10457 33.8546 10 32.75 10H30.75V14H31.9216C32.452 14 32.9607 14.2107 33.3358 14.5858L36.1642 17.4142C36.5393 17.7893 36.75 18.298 36.75 18.8284V22H40.75V20C40.75 18.8954 41.6454 18 42.75 18H44.75C45.8546 18 46.75 18.8954 46.75 20V32C46.75 33.1046 45.8546 34 44.75 34H42.75C41.6454 34 40.75 33.1046 40.75 32V30H36.75V33.6754C36.75 33.8904 36.7153 34.104 36.6474 34.3079L35.2058 38.6325C34.9336 39.4491 34.1693 40 33.3085 40H21.5784C21.048 40 20.5393 39.7893 20.1642 39.4142L15.3358 34.5858C14.9607 34.2107 14.452 34 13.9216 34H10.75C9.64543 34 8.75 33.1046 8.75 32V28H5.75V34.5C5.75 35.3284 5.07843 36 4.25 36C3.42157 36 2.75 35.3284 2.75 34.5V17.5C2.75 16.6716 3.42157 16 4.25 16C5.07843 16 5.75 16.6716 5.75 17.5V24H8.75V19.0704C8.75 18.4017 9.0842 17.7772 9.6406 17.4063L14.2462 14.3359C14.5747 14.1169 14.9607 14 15.3556 14H18.75V10H16.75C15.6454 10 14.75 9.10457 14.75 8ZM22.75 14H26.75V10H22.75V14Z" fill="black"/>
</svg>
