<svg width="24" height="24" viewBox="0 0 24 24" fill="none" xmlns="http://www.w3.org/2000/svg">
<path fill-rule="evenodd" clip-rule="evenodd" d="M18.5303 11.4696C17.7187 10.658 17.7187 9.34198 18.5303 8.53031C19.8803 7.1803 19.9262 5.01999 18.6679 3.61495C18.5942 3.53267 18.467 3.53296 18.3889 3.61107L17.6111 4.38889C17.533 4.46699 17.5339 4.59311 17.6042 4.67827C18.2785 5.49476 18.2337 6.70562 17.4697 7.46965C16.0722 8.86711 16.0722 11.1328 17.4697 12.5303C18.2813 13.342 18.2813 14.658 17.4697 15.4696C16.1197 16.8197 16.0738 18.98 17.3321 20.385C17.4058 20.4673 17.533 20.467 17.6111 20.3889L18.3889 19.6111C18.467 19.533 18.4661 19.4068 18.3958 19.3217C17.7215 18.5052 17.7663 17.2943 18.5303 16.5303C19.9278 15.1328 19.9278 12.8671 18.5303 11.4696ZM13.9131 7.92708L15.3917 7.66615C15.5589 7.63664 15.6879 7.81789 15.6167 7.97201C15.5 8.2242 15.4063 8.48438 15.3355 8.74942C15.3127 8.83493 15.2386 8.89771 15.1503 8.90291L14.0294 8.96884C13.7422 8.98574 13.5 8.75739 13.5 8.46971V8.41947C13.5 8.17685 13.6742 7.96925 13.9131 7.92708ZM13.9706 11.4723L15.217 11.399C15.3095 11.3935 15.3933 11.4526 15.4228 11.5405C15.5105 11.8018 15.6212 12.0571 15.7549 12.3033C15.8334 12.4477 15.726 12.6309 15.5619 12.6213L13.9706 12.5277C13.7064 12.5121 13.5 12.2933 13.5 12.0285V11.9714C13.5 11.7067 13.7064 11.4878 13.9706 11.4723ZM20.2494 11.103C20.0906 11.1123 20.0042 11.2955 20.089 11.4301C20.3552 11.8529 20.5496 12.3081 20.6721 12.7781C20.6945 12.8642 20.7688 12.9276 20.8576 12.9328L21.4706 12.9688C21.7578 12.9857 22 12.7574 22 12.4697V11.5303C22 11.2426 21.7578 11.0142 21.4706 11.0311L20.2494 11.103ZM14.0294 15.0311L15.733 15.1313C15.8911 15.1406 15.9777 15.3225 15.8942 15.4571C15.7481 15.6924 15.6243 15.9376 15.5225 16.1895C15.4861 16.2796 15.3926 16.334 15.297 16.3171L13.9131 16.0729C13.6742 16.0307 13.5 15.8231 13.5 15.5805V15.5303C13.5 15.2426 13.7422 15.0142 14.0294 15.0311ZM20.7733 15.4278C20.6812 15.4224 20.5977 15.4808 20.5678 15.5681C20.417 16.0087 20.2005 16.4318 19.9186 16.8223C19.8285 16.947 19.8954 17.1286 20.0469 17.1553L21.4131 17.3964C21.7193 17.4504 22 17.2149 22 16.904V15.9714C22 15.7067 21.7936 15.4878 21.5294 15.4723L20.7733 15.4278ZM20.9172 6.69107C20.8324 6.70602 20.7672 6.77353 20.752 6.85818C20.6641 7.34752 20.5003 7.8259 20.2606 8.27442C20.1835 8.41883 20.2908 8.60052 20.4543 8.59091L21.5294 8.52767C21.7936 8.51212 22 8.29327 22 8.02853V7.09594C22 6.78504 21.7193 6.54952 21.4131 6.60355L20.9172 6.69107ZM9.2 7.73139C9.2 6.96173 8.36694 6.48059 7.70028 6.8652L5.50083 8.13411C4.57216 8.66988 4 9.66053 4 10.7327V13.2673C4 14.3394 4.57216 15.3301 5.50083 15.8658L8.96805 17.8662C9.12001 17.9538 9.29235 18 9.46778 18H11C11.5523 18 12 17.5523 12 17V6.69998C12 6.31338 11.6866 5.99998 11.3 5.99998C10.9134 5.99998 10.6 6.31338 10.6 6.69998V9.79998C10.6 10.1866 10.2866 10.5 9.9 10.5C9.5134 10.5 9.2 10.1866 9.2 9.79998V7.73139Z" fill="black"/>
</svg>
