<svg width="24" height="24" viewBox="0 0 24 24" fill="none" xmlns="http://www.w3.org/2000/svg">
<path d="M3 5C2.44772 5 2 5.44772 2 6V14C2 14.5523 2.44772 15 3 15H6C6.55228 15 7 14.5523 7 14V11H9.26756C9.61337 11.5978 10.2597 12 11 12V16H10V21H14V16H13V12C13.7403 12 14.3866 11.5978 14.7324 11H17V14C17 14.5523 17.4477 15 18 15H21C21.5523 15 22 14.5523 22 14V6C22 5.44772 21.5523 5 21 5H18C17.4477 5 17 5.44772 17 6V9H14.7324C14.3866 8.4022 13.7403 8 13 8H11C10.2597 8 9.61337 8.4022 9.26756 9H7V6C7 5.44772 6.55228 5 6 5H3Z" fill="white"/>
</svg>
