<svg width="24" height="24" viewBox="0 0 24 24" fill="none" xmlns="http://www.w3.org/2000/svg">
<path d="M2 11C1.44772 11 1 11.4477 1 12V18C1 18.5523 1.44772 19 2 19H4C4.55228 19 5 18.5523 5 18V16H7.26756C7.61337 16.5978 8.25972 17 9 17V19H8V22H12V19H11V17C11.7403 17 12.3866 16.5978 12.7324 16H15V18C15 18.5523 15.4477 19 16 19H18C18.5523 19 19 18.5523 19 18V12C19 11.4477 18.5523 11 18 11H16C15.4477 11 15 11.4477 15 12V14H12.7324C12.3866 13.4022 11.7403 13 11 13H9C8.25972 13 7.61337 13.4022 7.26756 14H5V12C5 11.4477 4.55228 11 4 11H2Z" fill="white"/>
</svg>
