<svg width="24" height="24" viewBox="0 0 24 24" fill="none" xmlns="http://www.w3.org/2000/svg">
<path d="M10.8618 6.27639C10.9465 6.107 11.1196 6 11.309 6H12.691C12.8804 6 13.0535 6.107 13.1382 6.27639L13.9472 7.89443C13.9819 7.96385 14 8.04041 14 8.11803V8.5C14 8.77614 13.7761 9 13.5 9H10.5C10.2239 9 10 8.77614 10 8.5V8.11803C10 8.04041 10.0181 7.96385 10.0528 7.89443L10.8618 6.27639Z" fill="black"/>
<path d="M3.01851 8.30846C3.00717 8.11942 3.1036 7.94018 3.26762 7.84549L4.46443 7.15451C4.62845 7.05982 4.83188 7.06592 4.98993 7.17027L6.49958 8.16702C6.56435 8.20978 6.61828 8.26705 6.65709 8.33427L6.84808 8.66506C6.98615 8.90421 6.90421 9.21001 6.66506 9.34808L4.06699 10.8481C3.82784 10.9861 3.52205 10.9042 3.38397 10.6651L3.19299 10.3343C3.15418 10.267 3.13155 10.1917 3.1269 10.1142L3.01851 8.30846Z" fill="black"/>
<path d="M21.0796 8.30846C21.0909 8.11942 20.9945 7.94018 20.8305 7.84549L19.6336 7.15451C19.4696 7.05982 19.2662 7.06592 19.1082 7.17027L17.5985 8.16702C17.5337 8.20978 17.4798 8.26705 17.441 8.33427L17.25 8.66506C17.1119 8.90421 17.1939 9.21001 17.433 9.34808L20.0311 10.8481C20.2702 10.9861 20.576 10.9042 20.7141 10.6651L20.9051 10.3343C20.9439 10.267 20.9665 10.1917 20.9712 10.1142L21.0796 8.30846Z" fill="black"/>
<path d="M10.6314 10C10.2457 10 9.89437 10.2218 9.72854 10.5701L5.24723 19.9808C5.1078 20.2736 5.2177 20.6244 5.49929 20.7853C6.09565 21.1261 6.71586 21.4179 7.35378 21.6591C7.67047 21.7788 8 21.5383 8 21.1998V19C8 18.4477 8.44771 18 9 18H13.4891C13.81 18 14.1114 18.154 14.2994 18.414L16.1979 21.0391C16.4625 21.405 16.9412 21.5519 17.3535 21.3676C17.7442 21.193 18.1272 20.9988 18.5007 20.7853C18.7823 20.6244 18.8922 20.2736 18.7528 19.9808L14.2715 10.5701C14.1056 10.2218 13.7543 10 13.3686 10H10.6314Z" fill="black"/>
<path d="M20 3.5C20 3.22386 19.7761 3 19.5 3H4.5C4.22386 3 4 3.22386 4 3.5C4 3.77614 3.77614 4 3.5 4C3.22386 4 3 4.22386 3 4.5V5.5C3 5.77614 3.22386 6 3.5 6H4.5C4.77614 6 5 5.77614 5 5.5V5C5 4.72386 5.22386 4.5 5.5 4.5H10.75C10.8881 4.5 11 4.61193 11 4.75C11 4.88807 11.1119 5 11.25 5H12.75C12.8881 5 13 4.88807 13 4.75C13 4.61193 13.1119 4.5 13.25 4.5H18.5C18.7761 4.5 19 4.72386 19 5V5.5C19 5.77614 19.2239 6 19.5 6H20.5C20.7761 6 21 5.77614 21 5.5V4.5C21 4.22386 20.7761 4 20.5 4C20.2239 4 20 3.77614 20 3.5Z" fill="black"/>
</svg>
