<svg width="24" height="24" viewBox="0 0 24 24" fill="none" xmlns="http://www.w3.org/2000/svg">
<path d="M11 2C11 1.44772 11.4477 1 12 1C12.5523 1 13 1.44772 13 2V3.5C13 4.05228 12.5523 4.5 12 4.5C11.4477 4.5 11 4.05228 11 3.5V2Z" fill="black"/>
<path fill-rule="evenodd" clip-rule="evenodd" d="M15.5516 16.8364C15.2228 17.0783 15 17.4486 15 17.8567C15 18.4881 14.4881 19 13.8567 19H10.1433C9.51186 19 9 18.4881 9 17.8567C9.00001 17.4486 8.77717 17.0783 8.44843 16.8364C6.96358 15.7442 6 13.9846 6 12C6 8.68629 8.68629 6 12 6C15.3137 6 18 8.68629 18 12C18 13.9846 17.0364 15.7442 15.5516 16.8364ZM9 10C9.55228 10 10 10.4477 10 11V13C10 13.5523 9.55229 14 9 14C8.44772 14 8 13.5523 8 13V11C8 10.4477 8.44772 10 9 10ZM12 10C12.5523 10 13 10.4477 13 11V13C13 13.5523 12.5523 14 12 14C11.4477 14 11 13.5523 11 13V11C11 10.4477 11.4477 10 12 10ZM16 11C16 10.4477 15.5523 10 15 10C14.4477 10 14 10.4477 14 11V13C14 13.5523 14.4477 14 15 14C15.5523 14 16 13.5523 16 13V11Z" fill="black"/>
<path d="M14 20.5C14.2761 20.5 14.5 20.7239 14.5 21V21.1396C14.5 21.3548 14.3623 21.5459 14.1581 21.614L13.077 21.9743C13.026 21.9913 12.9726 22 12.9189 22H11.0811C11.0274 22 10.974 21.9913 10.923 21.9743L9.84188 21.614C9.63771 21.5459 9.5 21.3548 9.5 21.1396V21C9.5 20.7239 9.72386 20.5 10 20.5H14Z" fill="black"/>
<path d="M20.182 3.70708C20.5725 4.0976 20.5725 4.73077 20.182 5.12129L19.1213 6.18195C18.7308 6.57248 18.0976 6.57248 17.7071 6.18195C17.3166 5.79143 17.3166 5.15826 17.7071 4.76774L18.7678 3.70708C19.1583 3.31655 19.7915 3.31655 20.182 3.70708Z" fill="black"/>
<path d="M5.12132 3.70711C4.7308 3.31658 4.09763 3.31658 3.70711 3.70711C3.31658 4.09763 3.31658 4.7308 3.70711 5.12132L4.76777 6.18198C5.15829 6.5725 5.79146 6.5725 6.18198 6.18198C6.57251 5.79146 6.57251 5.15829 6.18198 4.76777L5.12132 3.70711Z" fill="black"/>
</svg>
