<svg width="24" height="24" viewBox="0 0 24 24" fill="none" xmlns="http://www.w3.org/2000/svg">
<path d="M11.8336 5.05873C11.9412 5.02073 12.0587 5.02073 12.1664 5.05873L20.1062 7.86104C20.3342 7.9415 20.5871 7.84733 20.7069 7.63736L20.9799 7.15903C21.1266 6.902 21.0191 6.57451 20.7487 6.45432L12.8631 2.94963C12.3136 2.70543 11.6865 2.70543 11.137 2.94963L3.25139 6.45433C2.98097 6.57452 2.87352 6.90199 3.02018 7.15902L3.29304 7.6373C3.41285 7.8473 3.66575 7.94149 3.89374 7.86102L11.8336 5.05873Z" fill="black"/>
<path d="M4.38594 17.1209C4.46713 17.0837 4.43337 16.958 4.34545 16.9738C3.49247 17.1266 3 17.3069 3 17.5V20.5C3 21.0523 7.02944 21.5 12 21.5C16.9706 21.5 21 21.0523 21 20.5V17.5C21 17.3069 20.5075 17.1266 19.6545 16.9738C19.5666 16.958 19.5329 17.0837 19.6141 17.1209C20 17.2979 20 17.372 20 17.5C20 18.0523 16.4183 18.5 12 18.5C7.58172 18.5 4 18.0523 4 17.5C4 17.372 4 17.2979 4.38594 17.1209Z" fill="black"/>
<path fill-rule="evenodd" clip-rule="evenodd" d="M17 10.5C17 10.2239 16.7761 10 16.5 10H15.5C15.2239 10 15 10.2239 15 10.5V12H13.5C13.2239 12 13 12.2239 13 12.5V13.4999C13 13.7761 13.2239 13.9999 13.5 13.9999H15V15.5C15 15.7761 15.2239 16 15.5 16H16.5C16.7761 16 17 15.7761 17 15.5V13.9999H18.5C18.7761 13.9999 19 13.7761 19 13.4999V12.5C19 12.2239 18.7761 12 18.5 12H17V10.5Z" fill="black"/>
<path d="M5 9.85714C5 9.35949 5.36593 8.93757 5.85858 8.86719L11.8586 8.01005C11.9524 7.99665 12.0476 7.99665 12.1414 8.01005L13.4783 8.20103C13.6835 8.23036 13.7249 8.54156 13.5444 8.64353C12.3527 9.31669 11.4648 10.4647 11.1375 11.8306C11.1154 11.9229 11.0339 11.9898 10.939 11.9898H8.5C8.22386 11.9898 8 12.2137 8 12.4898V16.9899C8 17.266 7.77564 17.4901 7.4995 17.4895C6.08863 17.4863 5.57155 17.4539 5.15452 17.1277C5.05006 17.046 5 16.9154 5 16.7828V9.85714Z" fill="black"/>
<path d="M18.5486 17.3026C18.658 17.2565 18.7541 17.1992 18.8455 17.1277C18.8553 17.12 18.8473 17.1107 18.837 17.1178C18.7432 17.1826 18.647 17.2442 18.5486 17.3026Z" fill="black"/>
</svg>
