<svg width="49" height="48" viewBox="0 0 49 48" fill="none" xmlns="http://www.w3.org/2000/svg">
<path d="M26.0129 31.75L25.0456 16.6629L27.0005 16.2402L32.3517 30.3796C34.1986 31.0724 35.666 32.6608 36.1138 34.732C36.814 37.9709 34.7561 41.1642 31.5172 41.8644C28.2783 42.5647 25.085 40.5067 24.3848 37.2678C23.937 35.1965 24.6172 33.1439 26.0129 31.75Z" fill="black"/>
<path d="M19.4804 17.3044C12.7136 20.8834 8.25 27.0247 8.25 34C8.25 35.3699 8.42215 36.7076 8.75009 38H4.60284C4.37053 36.6961 4.25 35.3603 4.25 34C4.25 25.2141 9.27835 17.446 16.977 12.7394L19.4804 17.3044Z" fill="black"/>
<path d="M22.2136 16.0493C24.3844 15.1935 26.733 14.5823 29.2031 14.2607L28.986 8.39893C25.6356 8.91287 22.4772 9.90873 19.6096 11.3009L22.2136 16.0493Z" fill="black"/>
<path d="M31.976 8.07358L32.1961 14.0174C32.5456 14.0059 32.8969 14 33.25 14C35.7371 14 38.1393 14.2905 40.4066 14.8315L42.4792 8.99036C39.8643 8.34531 37.1037 8 34.25 8C33.485 8 32.7266 8.02482 31.976 8.07358Z" fill="black"/>
</svg>
