<svg width="24" height="24" viewBox="0 0 24 24" fill="none" xmlns="http://www.w3.org/2000/svg">
<path fill-rule="evenodd" clip-rule="evenodd" d="M11.1346 8.49484C11.5197 7.82955 12.4803 7.82956 12.8654 8.49484L16.631 14.999C17.0169 15.6656 16.5359 16.5 15.7655 16.5H8.23444C7.46411 16.5 6.98305 15.6656 7.36901 14.999L11.1346 8.49484ZM9.10166 15L12 9.99381L14.8983 15H9.10166Z" fill="black"/>
<path fill-rule="evenodd" clip-rule="evenodd" d="M10.2809 3.89118C11.0562 2.58738 12.9438 2.58738 13.7191 3.89118L21.203 16.4779C21.9957 17.811 21.035 19.5 19.484 19.5L4.51602 19.5C2.96498 19.5 2.00425 17.811 2.79695 16.4778L10.2809 3.89118ZM12.4298 4.65779L19.9137 17.2445C20.1119 17.5778 19.8717 18 19.484 18L4.51602 18C4.12826 18 3.88808 17.5777 4.08625 17.2444L11.5702 4.65779C11.764 4.33184 12.236 4.33185 12.4298 4.65779Z" fill="black"/>
</svg>
