<svg width="24" height="24" viewBox="0 0 24 24" fill="none" xmlns="http://www.w3.org/2000/svg">
<path d="M9.2 7.73141C9.2 6.96175 8.36694 6.48061 7.70028 6.86522L5.50083 8.13413C4.57216 8.66991 4 9.66055 4 10.7327V13.2673C4 14.3394 4.57216 15.3301 5.50083 15.8659L8.96805 17.8662C9.12001 17.9539 9.29235 18 9.46778 18H11C11.5523 18 12 17.5523 12 17V6.7C12 6.3134 11.6866 6 11.3 6C10.9134 6 10.6 6.3134 10.6 6.7V9.8C10.6 10.1866 10.2866 10.5 9.9 10.5C9.5134 10.5 9.2 10.1866 9.2 9.8V7.73141Z" fill="black"/>
<path d="M21.5294 8.52769L14.0294 8.96887C13.7422 8.98576 13.5 8.75742 13.5 8.46973V8.4195C13.5 8.17688 13.6742 7.96927 13.9131 7.9271L21.4131 6.60357C21.7193 6.54954 22 6.78506 22 7.09596V8.02855C22 8.29329 21.7936 8.51214 21.5294 8.52769Z" fill="black"/>
<path d="M21.4131 17.3964L13.9131 16.0729C13.6742 16.0307 13.5 15.8231 13.5 15.5805V15.5303C13.5 15.2426 13.7422 15.0143 14.0294 15.0311L21.5294 15.4723C21.7936 15.4879 22 15.7067 22 15.9715V16.904C22 17.2149 21.7193 17.4505 21.4131 17.3964Z" fill="black"/>
<path d="M21.4706 12.9689L13.9706 12.5277C13.7064 12.5121 13.5 12.2933 13.5 12.0286V11.9715C13.5 11.7067 13.7064 11.4879 13.9706 11.4723L21.4706 11.0311C21.7578 11.0143 22 11.2426 22 11.5303V12.4697C22 12.7574 21.7578 12.9858 21.4706 12.9689Z" fill="black"/>
</svg>
