<svg width="24" height="24" viewBox="0 0 24 24" fill="none" xmlns="http://www.w3.org/2000/svg">
<g id="Atom/Icon/24/hydraulic_pump">
<g id="Subtract">
<path d="M12 8.39164C11.5582 8.39164 11.2 8.03347 11.2 7.59164C11.2 7.14981 11.5582 6.79164 12 6.79164C12.4418 6.79164 12.8 7.14981 12.8 7.59164C12.8 8.03347 12.4418 8.39164 12 8.39164Z" fill="black"/>
<path d="M11.5138 14.8461C11.6195 14.7246 11.7318 14.5953 11.8525 14.4549L12 14.2823C12.0498 14.3409 12.099 14.3985 12.1475 14.4549C12.2681 14.5953 12.3806 14.7246 12.4862 14.8461C12.7691 15.1716 13.0038 15.4415 13.2197 15.7207C13.7454 16.4004 14 16.9341 14 17.7727C14 18.8187 13.1521 19.6667 12.1061 19.6667H11.8939C10.8479 19.6667 10 18.8187 10 17.7727C10 16.9341 10.2546 16.4004 10.7803 15.7207C10.9962 15.4415 11.2309 15.1716 11.5138 14.8461Z" fill="black"/>
<path fill-rule="evenodd" clip-rule="evenodd" d="M22 8H19C19 4.13401 15.866 1 12 1C8.13401 1 5 4.13401 5 8H2V16H5C5 19.866 8.13401 23 12 23C15.866 23 19 19.866 19 16H22V8ZM14.3879 4.38232L13.7572 5.95697C14.0013 6.21918 14.1873 6.53608 14.295 6.88726L15.9735 7.1283C15.991 7.28031 16 7.43492 16 7.59163C16 7.74835 15.991 7.90297 15.9735 8.05499L14.295 8.29602C14.1873 8.6472 14.0013 8.9641 13.7572 9.22631L14.3879 10.8009C14.141 10.985 13.8721 11.1412 13.5859 11.2649L12.5374 9.93124C12.3646 9.97077 12.1848 9.99164 12 9.99164C11.8152 9.99164 11.6354 9.97077 11.4626 9.93124L10.4141 11.2649C10.1279 11.1412 9.859 10.985 9.61206 10.8009L10.2428 9.22631C9.99873 8.9641 9.81268 8.6472 9.70503 8.29602L8.02655 8.05499C8.00901 7.90297 8 7.74835 8 7.59163C8 7.43492 8.00901 7.28031 8.02655 7.1283L9.70503 6.88726C9.81268 6.53608 9.99873 6.21918 10.2428 5.95697L9.61205 4.38232C9.859 4.19828 10.1279 4.04206 10.4141 3.91833L11.4626 5.25204C11.6354 5.21252 11.8152 5.19164 12 5.19164C12.1848 5.19164 12.3646 5.21252 12.5374 5.25204L13.5859 3.91833C13.8721 4.04206 14.141 4.19828 14.3879 4.38232ZM21 12L19 14V10L21 12ZM10.4063 13.8335C10.6122 13.5968 10.8274 13.3493 11.048 13.0835L12 11.8333C12.3209 12.3002 12.6419 12.7099 12.952 13.0835C13.1727 13.3493 13.3878 13.5968 13.5937 13.8335C14.6761 15.0786 15.5 16.0262 15.5 17.7727C15.5 19.6472 13.9805 21.1667 12.1061 21.1667H11.8939C10.0195 21.1667 8.5 19.6472 8.5 17.7727C8.5 16.0262 9.32388 15.0786 10.4063 13.8335ZM3 14L5 12L3 10V14Z" fill="black"/>
</g>
</g>
</svg>
