<svg width="24" height="24" viewBox="0 0 24 24" fill="none" xmlns="http://www.w3.org/2000/svg">
<path fill-rule="evenodd" clip-rule="evenodd" d="M7.02588 9.00037C5.51029 9.00037 4.02588 10.3704 4.02588 12.0004C4.02588 13.6491 5.41099 15.0004 7.02588 15.0004C8.55048 15.0004 9.11487 14.1357 9.13105 14.1109L9.13109 14.1109C9.14513 14.0894 9.17156 14.0491 9.20609 14.0037L13.1903 8.75979C13.1908 8.75905 13.1913 8.75819 13.192 8.7572C13.4208 8.41501 14.5315 7.00049 16.9999 7.00049C19.7375 7.00049 21.9999 9.23574 21.9999 12.0005C21.9999 13.422 21.3421 14.6717 20.4235 15.5512C19.5109 16.425 18.2718 17.0005 16.9999 17.0005C15.7518 17.0005 14.7976 16.5511 14.1696 16.1156C13.7157 15.8009 13.6029 15.1779 13.9176 14.724C14.2324 14.2702 14.8554 14.1574 15.3092 14.4721C15.6889 14.7353 16.2529 15.0005 16.9999 15.0005C17.68 15.0005 18.4409 14.6806 19.0403 14.1066C19.6337 13.5385 19.9999 12.7881 19.9999 12.0005C19.9999 10.347 18.6396 9.00049 16.9999 9.00049C15.4301 9.00049 14.862 9.85775 14.8547 9.86871L14.8546 9.8688L14.8544 9.86917C14.8431 9.88604 14.8194 9.92158 14.789 9.96155L10.8061 15.2037C10.806 15.2039 10.8059 15.204 10.8058 15.2041C10.5798 15.5504 9.47344 17.0004 7.02588 17.0004C4.3227 17.0004 2.02588 14.7699 2.02588 12.0004C2.02588 9.2121 4.46018 7.00037 7.02588 7.00037C8.35059 7.00037 9.31722 7.46219 9.93943 7.91617C10.3856 8.2417 10.4834 8.86727 10.1578 9.31342C9.83232 9.75957 9.20676 9.85736 8.7606 9.53183C8.41991 9.28326 7.85734 9.00037 7.02588 9.00037Z" fill="black"/>
</svg>
