<svg width="24" height="24" viewBox="0 0 24 24" fill="none" xmlns="http://www.w3.org/2000/svg">
<path d="M8.00001 3.97343C7.68798 4.30205 7.56253 4.76577 7.66632 5.20688L9.44873 12.7821C9.48225 12.9246 9.55482 13.0548 9.65829 13.1583C9.86791 13.3679 9.94193 13.6776 9.84978 13.9593L8.30489 18.6827C8.2636 18.809 8.13084 18.8809 8.00257 18.8465L7.30892 18.6606C6.79656 18.5234 6.35972 18.1882 6.09451 17.7288L5.66193 16.9796C5.39672 16.5202 5.32485 15.9743 5.46213 15.4619L6.81148 11.4719L5.87959 10.8785C5.07697 10.3674 4.74555 9.36161 5.08713 8.47351L6.61305 4.5061C6.8219 3.96309 7.44843 3.71231 7.97427 3.96124L8.00001 3.97343Z" fill="black"/>
<path fill-rule="evenodd" clip-rule="evenodd" d="M17.212 2.85921C17.212 2.85921 18.716 8.46564 18.9191 9.23013C19.1223 9.99462 18.7858 10.4057 18.1418 10.5765C17.4979 10.7472 17.08 10.861 17.08 10.861L19.7443 20.8044C19.8158 21.0712 19.6575 21.3453 19.3908 21.4168L18.5503 21.642C18.038 21.7793 17.492 21.7074 17.0327 21.4422L15.7749 20.716C15.3155 20.4508 14.9803 20.014 14.843 19.5016L14.2803 17.4015C14.2446 17.2681 14.324 17.1261 14.4362 17.0455C14.7242 16.8384 15.1515 16.2899 14.7887 14.9359C14.4259 13.5819 13.7816 13.3205 13.4286 13.2852C13.2912 13.2715 13.1514 13.1882 13.1156 13.0548L12.8327 11.999C12.8327 11.999 12.3719 12.1085 11.7709 12.2835C11.1699 12.4586 10.7008 12.3513 10.4246 11.5062C10.1484 10.6612 8.71749 5.13532 8.71749 5.13532C8.71749 5.13532 8.54749 4.34956 9.49479 3.78899C10.4421 3.22841 14.6085 2.06852 15.8657 2.0819C17.1229 2.09528 17.212 2.85921 17.212 2.85921ZM15.459 6.74311C15.7257 6.67164 15.884 6.39747 15.8125 6.13073L15.6317 5.45598C15.6317 5.45598 15.0982 3.46492 12.9076 4.05189C10.851 4.60297 11.3845 6.59404 11.3845 6.59404L11.5653 7.26879C11.6367 7.53552 11.9109 7.69381 12.1776 7.62234L15.459 6.74311Z" fill="black"/>
</svg>
