<svg width="24" height="24" viewBox="0 0 24 24" fill="none" xmlns="http://www.w3.org/2000/svg">
<path d="M9.2 6.73141C9.2 5.96175 8.36694 5.48061 7.70028 5.86522L5.50083 7.13413C4.57216 7.66991 4 8.66055 4 9.73269V12.2673C4 13.3394 4.57216 14.3301 5.50083 14.8659L8.96805 16.8662C9.12001 16.9539 9.29235 17 9.46778 17H11C11.5523 17 12 16.5523 12 16V5.7C12 5.3134 11.6866 5 11.3 5C10.9134 5 10.6 5.3134 10.6 5.7V8.8C10.6 9.1866 10.2866 9.5 9.9 9.5C9.5134 9.5 9.2 9.1866 9.2 8.8V6.73141Z" fill="black"/>
<path d="M20.2427 19.0456L13.7427 15.1456C13.5921 15.0553 13.5 14.8925 13.5 14.7169V14.3333C13.5 13.9558 13.9022 13.7145 14.2353 13.8921L20.7353 17.3588C20.8982 17.4457 21 17.6153 21 17.8L21 18.6169C21 19.0055 20.576 19.2456 20.2427 19.0456Z" fill="black"/>
<path d="M20.2427 15.0456L13.7427 11.1456C13.5921 11.0553 13.5 10.8925 13.5 10.7169V10.3333C13.5 9.95585 13.9022 9.7145 14.2353 9.89213L20.7353 13.3588C20.8982 13.4457 21 13.6153 21 13.8L21 14.6169C21 15.0055 20.576 15.2456 20.2427 15.0456Z" fill="black"/>
<path d="M20.2427 11.0457L13.7427 7.14565C13.5921 7.05529 13.5 6.89254 13.5 6.7169V6.33333C13.5 5.95587 13.9022 5.71453 14.2353 5.89216L20.7353 9.35882C20.8982 9.44572 21 9.61534 21 9.8L21 10.6169C21 11.0056 20.576 11.2456 20.2427 11.0457Z" fill="black"/>
</svg>
