<svg width="24" height="24" viewBox="0 0 24 24" fill="none" xmlns="http://www.w3.org/2000/svg">
<path fill-rule="evenodd" clip-rule="evenodd" d="M15 13C17.7614 13 20 10.7614 20 8C20 5.23858 17.7614 3 15 3C12.7107 3 10.7808 4.53854 10.1877 6.63803C10.1288 6.84654 9.9443 7 9.72764 7C9.56502 7 9.41641 6.91214 9.32592 6.77702C8.60828 5.70546 7.38653 5 6 5C3.79086 5 2 6.79086 2 9C2 11.2091 3.79086 13 6 13H15ZM6 10C6.55228 10 7 9.55228 7 9C7 8.44772 6.55228 8 6 8C5.44772 8 5 8.44772 5 9C5 9.55228 5.44772 10 6 10ZM17 8C17 9.10457 16.1046 10 15 10C13.8954 10 13 9.10457 13 8C13 6.89543 13.8954 6 15 6C16.1046 6 17 6.89543 17 8Z" fill="black"/>
<path d="M6.5 14.5C5.94772 14.5 5.5 14.9477 5.5 15.5H4.5C4.22386 15.5 4 15.7239 4 16V18C4 18.2761 4.22386 18.5 4.5 18.5H5.56301C5.78503 19.3626 6.56808 20 7.5 20H11C12.1046 20 13 19.1046 13 18V15.5C13 14.9477 12.5523 14.5 12 14.5H6.5Z" fill="black"/>
<path d="M15 14.4986C14.7239 14.5009 14.5 14.7239 14.5 15V18.7324C14.5 18.8996 14.5836 19.0557 14.7227 19.1484L18.2227 21.4818C18.5549 21.7033 19 21.4651 19 21.0657V14.4343C19 14.0349 18.5479 13.7888 18.1832 13.9517C17.1221 14.4256 16.0611 14.4899 15 14.4986Z" fill="black"/>
</svg>
