<svg width="24" height="24" viewBox="0 0 24 24" fill="none" xmlns="http://www.w3.org/2000/svg">
<path d="M8 9.86852C8 9.06982 8.89015 8.59343 9.5547 9.03647L10.5547 9.70313C10.8329 9.8886 11 10.2008 11 10.5352V13.4648C11 13.7992 10.8329 14.1114 10.5547 14.2969L8.25192 15.8321C8.08766 15.9416 7.89465 16 7.69722 16H7C6.44772 16 6 15.5523 6 15V8.5C6 8.22386 6.22386 8 6.5 8C6.77614 8 7 8.22386 7 8.5V10.5C7 10.7761 7.22386 11 7.5 11C7.77614 11 8 10.7761 8 10.5V9.86852Z" fill="black"/>
<path d="M13 10.5352C13 10.2008 13.1671 9.8886 13.4453 9.70313L14.9087 8.72753C15.3752 8.41655 16 8.75094 16 9.31157V9.52343C16 9.80899 16.2387 10.0365 16.524 10.0229C16.7905 10.0101 17 9.79025 17 9.52343V8.5C17 8.22386 17.2239 8 17.5 8C17.7761 8 18 8.22386 18 8.5V15C18 15.5523 17.5523 16 17 16H16.3028C16.1054 16 15.9123 15.9416 15.7481 15.8321L13.4453 14.2969C13.1671 14.1114 13 13.7992 13 13.4648V10.5352Z" fill="black"/>
<path d="M2.24275 8.64565L3.74275 9.54565C4.07601 9.74561 4.5 9.50555 4.5 9.11691V8.7831C4.5 8.60746 4.40785 8.44471 4.25725 8.35435L2.75725 7.45435C2.42399 7.25439 2 7.49445 2 7.8831V8.21691C2 8.39254 2.09215 8.55529 2.24275 8.64565Z" fill="black"/>
<path d="M2.75725 16.5457L4.25725 15.6457C4.40785 15.5553 4.5 15.3925 4.5 15.2169V14.8831C4.5 14.4944 4.07601 14.2544 3.74275 14.4544L2.24275 15.3544C2.09215 15.4447 2 15.6075 2 15.7831V16.1169C2 16.5056 2.42399 16.7456 2.75725 16.5457Z" fill="black"/>
<path d="M2.59806 12.8804L4.09806 12.5804C4.33177 12.5336 4.5 12.3284 4.5 12.0901V11.9099C4.5 11.6716 4.33177 11.4664 4.09806 11.4196L2.59806 11.1196C2.28866 11.0577 2 11.2944 2 11.6099V12.3901C2 12.7056 2.28866 12.9423 2.59806 12.8804Z" fill="black"/>
<path d="M21.7572 8.64565L20.2572 9.54565C19.924 9.74561 19.5 9.50555 19.5 9.11691V8.7831C19.5 8.60746 19.5921 8.44471 19.7428 8.35435L21.2428 7.45435C21.576 7.25439 22 7.49445 22 7.8831V8.21691C22 8.39254 21.9079 8.55529 21.7572 8.64565Z" fill="black"/>
<path d="M21.2428 16.5457L19.7428 15.6457C19.5921 15.5553 19.5 15.3925 19.5 15.2169V14.8831C19.5 14.4944 19.924 14.2544 20.2572 14.4544L21.7572 15.3544C21.9079 15.4447 22 15.6075 22 15.7831V16.1169C22 16.5056 21.576 16.7456 21.2428 16.5457Z" fill="black"/>
<path d="M21.4019 12.8804L19.9019 12.5804C19.6682 12.5336 19.5 12.3284 19.5 12.0901V11.9099C19.5 11.6716 19.6682 11.4664 19.9019 11.4196L21.4019 11.1196C21.7113 11.0577 22 11.2944 22 11.6099V12.3901C22 12.7056 21.7113 12.9423 21.4019 12.8804Z" fill="black"/>
</svg>
