<svg width="24" height="24" viewBox="0 0 24 24" fill="none" xmlns="http://www.w3.org/2000/svg">
<path d="M7 10.5V7C7 5.89543 7.89543 5 9 5H11C12.1046 5 13 5.89543 13 7V10.5H7Z" fill="black"/>
<path fill-rule="evenodd" clip-rule="evenodd" d="M7 21C5.89543 21 5 20.1046 5 19V14C5 12.8954 5.89543 12 7 12H13C14.1046 12 15 12.8954 15 14V19C15 20.1046 14.1046 21 13 21H7ZM9.5 13.5V17.5H12.5V19.5H7.5V13.5H9.5Z" fill="black"/>
<path fill-rule="evenodd" clip-rule="evenodd" d="M18 8L16.1553 15.3787C16.0764 15.6943 16.3151 16 16.6404 16H17.5L17.95 14.5H21.05L21.5 16H22.3596C22.6849 16 22.9236 15.6943 22.8447 15.3787L21 8H18ZM20 11L20.6 13H18.4L19 11L19.5 9L20 11Z" fill="black"/>
</svg>
