<svg width="24" height="24" viewBox="0 0 24 24" fill="none" xmlns="http://www.w3.org/2000/svg">
<path fill-rule="evenodd" clip-rule="evenodd" d="M7 17V13.5H13V17C13 18.1046 12.1046 19 11 19H9C7.89543 19 7 18.1046 7 17Z" fill="black"/>
<path fill-rule="evenodd" clip-rule="evenodd" d="M7 3C5.89543 3 5 3.89543 5 5L5 10C5 11.1046 5.89543 12 7 12H13C14.1046 12 15 11.1046 15 10V5C15 3.89543 14.1046 3 13 3H7ZM7 4.5H9V6.5L11 6.5V4.5H13V10.5H11V8L9 8V10.5H7V4.5Z" fill="black"/>
<path fill-rule="evenodd" clip-rule="evenodd" d="M16.5202 10.25C16.5202 9.00736 17.5275 8 18.7702 8H19.7924C21.0227 8 22.0202 8.99742 22.0202 10.2278C22.0202 11.4448 21.3326 12.3073 20.2441 12.8516L18.7111 13.618C18.4398 13.7537 18.1185 14 18.1185 14.5H21.7702V16H16.5202V14.9861C16.5202 13.618 17.1087 12.7422 18.0403 12.2764L19.5732 11.5099C20.1536 11.2198 20.5202 10.8766 20.5202 10.2278C20.5202 9.82584 20.1943 9.5 19.7924 9.5H18.7702C18.3559 9.5 18.0202 9.83579 18.0202 10.25H16.5202Z" fill="black"/>
</svg>
