<svg width="24" height="24" viewBox="0 0 24 24" fill="none" xmlns="http://www.w3.org/2000/svg">
<path fill-rule="evenodd" clip-rule="evenodd" d="M7 7V10.5H13V7C13 5.89543 12.1046 5 11 5H9C7.89543 5 7 5.89543 7 7Z" fill="black"/>
<path fill-rule="evenodd" clip-rule="evenodd" d="M5 19C5 20.1046 5.89543 21 7 21H13C14.1046 21 15 20.1046 15 19V14C15 12.8954 14.1046 12 13 12H7C5.89543 12 5 12.8954 5 14V19ZM12.5 17.5H9.5V13.5H7.5V19.5H12.5V17.5Z" fill="black"/>
<path fill-rule="evenodd" clip-rule="evenodd" d="M16.5 10.25C16.5 9.00736 17.5074 8 18.75 8H19.7722C21.0026 8 22 8.99742 22 10.2278C22 11.4448 21.3124 12.3073 20.2239 12.8516L18.691 13.618C18.4196 13.7537 18.0984 14 18.0984 14.5H21.75V16H16.5V14.9861C16.5 13.618 17.0885 12.7422 18.0202 12.2764L19.5531 11.5099C20.1334 11.2198 20.5 10.8766 20.5 10.2278C20.5 9.82584 20.1742 9.5 19.7722 9.5H18.75C18.3358 9.5 18 9.83579 18 10.25H16.5Z" fill="black"/>
</svg>
