<svg width="24" height="24" viewBox="0 0 24 24" fill="none" xmlns="http://www.w3.org/2000/svg">
<path d="M7 10.5V7C7 5.89543 7.89543 5 9 5H11C12.1046 5 13 5.89543 13 7V10.5H7Z" fill="black"/>
<path fill-rule="evenodd" clip-rule="evenodd" d="M7 21C5.89543 21 5 20.1046 5 19V14C5 12.8954 5.89543 12 7 12H13C14.1046 12 15 12.8954 15 14V19C15 20.1046 14.1046 21 13 21H7ZM9.5 13.5V17.5H12.5V19.5H7.5V13.5H9.5Z" fill="black"/>
<path d="M19.5 12.5V8H21V12.5H22V14H21V16H19.5V14H16.1504L16.5116 8.81396L18 9.00002L17.8496 12.5H19.5Z" fill="black"/>
</svg>
