<svg width="24" height="24" viewBox="0 0 24 24" fill="none" xmlns="http://www.w3.org/2000/svg">
<path fill-rule="evenodd" clip-rule="evenodd" d="M5 5C5 3.89543 5.89543 3 7 3H13C14.1046 3 15 3.89543 15 5V10C15 11.1046 14.1046 12 13 12H7C5.89543 12 5 11.1046 5 10V5ZM9 4.5H7V10.5H9V8L11 8V10.5H13V4.5H11V6.5L9 6.5V4.5Z" fill="black"/>
<path d="M7 13.5V17C7 18.1046 7.89543 19 9 19H11C12.1046 19 13 18.1046 13 17V13.5H7Z" fill="black"/>
<path fill-rule="evenodd" clip-rule="evenodd" d="M18 8L16.1553 15.3787C16.0764 15.6943 16.3151 16 16.6404 16H17.5L17.95 14.5H21.05L21.5 16H22.3596C22.6849 16 22.9236 15.6943 22.8447 15.3787L21 8H18ZM20 11L20.6 13H18.4L19 11L19.5 9L20 11Z" fill="black"/>
</svg>
