<svg width="24" height="24" viewBox="0 0 24 24" fill="none" xmlns="http://www.w3.org/2000/svg">
<path d="M11 8H10V3H14V8H13V12C13.7403 12 14.3866 12.4022 14.7324 13H17V10C17 9.44771 17.4477 9 18 9H21C21.5523 9 22 9.44772 22 10V18C22 18.5523 21.5523 19 21 19H18C17.4477 19 17 18.5523 17 18V15H14.7324C14.3866 15.5978 13.7403 16 13 16H11C10.2597 16 9.61337 15.5978 9.26756 15H7V18C7 18.5523 6.55228 19 6 19H3C2.44772 19 2 18.5523 2 18V10C2 9.44771 2.44772 9 3 9H6C6.55228 9 7 9.44772 7 10V13H9.26756C9.61337 12.4022 10.2597 12 11 12V8Z" fill="white"/>
</svg>
