<svg width="24" height="24" viewBox="0 0 24 24" fill="none" xmlns="http://www.w3.org/2000/svg">
<path d="M8 10V13H9V15C8.25972 15 7.61337 15.4022 7.26756 16H5V14C5 13.4477 4.55228 13 4 13H2C1.44772 13 1 13.4477 1 14V20C1 20.5523 1.44772 21 2 21H4C4.55228 21 5 20.5523 5 20V18H7.26756C7.61337 18.5978 8.25972 19 9 19H11C11.7403 19 12.3866 18.5978 12.7324 18H15V20C15 20.5523 15.4477 21 16 21H18C18.5523 21 19 20.5523 19 20V14C19 13.4477 18.5523 13 18 13H16C15.4477 13 15 13.4477 15 14V16H12.7324C12.3866 15.4022 11.7403 15 11 15V13H12V10H8Z" fill="white"/>
</svg>
