<svg width="24" height="24" viewBox="0 0 24 24" fill="none" xmlns="http://www.w3.org/2000/svg">
<path d="M14 2H10V11H8.64732C8.23952 11 8.00323 11.4619 8.24188 11.7926L11.5946 16.4382C11.7941 16.7147 12.2059 16.7147 12.4054 16.4382L15.7581 11.7926C15.9968 11.4619 15.7605 11 15.3527 11H14V2Z" fill="black"/>
<path d="M4.18494 4.9728L7.54646 5.18144L7.45353 6.67856L5.01499 6.5272L3.7579 8.68327L5.24999 11.0319V12.8817L3.755 15.2663L4.99598 17.4198L7.669 17.2367L9.51651 18.256L10.7635 20.75H13.2364L14.4834 18.256L16.331 17.2367L19.004 17.4198L20.245 15.2663L18.75 12.8817V11.0319L20.2421 8.68327L18.985 6.5272L16.5464 6.67856L16.4535 5.18144L19.815 4.9728L21.9979 8.71673L20.25 11.4681V12.4504L21.995 15.2337L19.836 18.9803L16.669 18.7633L15.6165 19.344L14.1635 22.25H9.83647L8.38348 19.344L7.33099 18.7633L4.16401 18.9803L2.00499 15.2337L3.74999 12.4504V11.4681L2.00204 8.71673L4.18494 4.9728Z" fill="black"/>
</svg>
