<svg width="24" height="24" viewBox="0 0 24 24" fill="none" xmlns="http://www.w3.org/2000/svg">
<path d="M18.5 6C19.3284 6 20 5.32843 20 4.5C20 3.67157 19.3284 3 18.5 3C17.6716 3 17 3.67157 17 4.5C17 5.32843 17.6716 6 18.5 6Z" fill="black"/>
<path d="M6 5C5.44772 5 5 5.44772 5 6V8L3.42678 9.57322C3.26929 9.73071 3.38083 10 3.60355 10H10.3964C10.6192 10 10.7307 9.73071 10.5732 9.57322L9 8V6C9 5.44772 8.55228 5 8 5H6Z" fill="black"/>
<path d="M3 11.56C3 11.2507 3.25072 11 3.56 11L10.44 11C10.7493 11 11 11.2507 11 11.56L11 20C11 20.5523 10.5523 21 10 21H4C3.44772 21 3 20.5523 3 20V11.56Z" fill="black"/>
<path d="M20 9.5C20 10.3284 19.3284 11 18.5 11C17.6716 11 17 10.3284 17 9.5C17 8.67157 17.6716 8 18.5 8C19.3284 8 20 8.67157 20 9.5Z" fill="black"/>
<path d="M12.2648 6.33455C12.1001 6.4375 12 6.61804 12 6.81229V7.18779C12 7.38204 12.1001 7.56258 12.2648 7.66554L13.456 8.41004C14.5635 9.10219 16 8.306 16 7.00003C16 5.69404 14.5635 4.89785 13.456 5.59003L12.2648 6.33455Z" fill="black"/>
</svg>
