<svg width="24" height="24" viewBox="0 0 24 24" fill="none" xmlns="http://www.w3.org/2000/svg">
<path fill-rule="evenodd" clip-rule="evenodd" d="M12.454 2.9843C12.2753 2.59687 11.7247 2.59687 11.546 2.9843L9.29585 7.86254C9.22301 8.02045 9.07337 8.12917 8.90069 8.14964L3.56588 8.78217C3.14219 8.83241 2.97203 9.3561 3.28528 9.64578L7.22944 13.2932C7.3571 13.4113 7.41426 13.5872 7.38037 13.7578L6.3334 19.0269C6.25024 19.4454 6.69572 19.7691 7.06803 19.5607L11.7558 16.9367C11.9075 16.8517 12.0925 16.8517 12.2442 16.9367L16.9319 19.5607C17.3043 19.7691 17.7497 19.4454 17.6666 19.0269L16.6196 13.7578C16.5857 13.5872 16.6429 13.4113 16.7705 13.2932L20.7147 9.64578C21.028 9.3561 20.8578 8.83241 20.4341 8.78217L15.0993 8.14964C14.9266 8.12917 14.777 8.02045 14.7041 7.86254L12.454 2.9843ZM12.1995 8.26412C12.0995 8.13168 11.9005 8.13168 11.8005 8.26413L10.5647 9.90049C10.5347 9.9401 10.4937 9.9699 10.4468 9.98611L8.50864 10.6558C8.35177 10.71 8.29029 10.8992 8.38534 11.0353L9.55972 12.7163C9.58815 12.757 9.60382 12.8052 9.60474 12.8548L9.64272 14.9051C9.64579 15.071 9.80674 15.188 9.96551 15.1396L11.9272 14.5422C11.9746 14.5277 12.0253 14.5277 12.0728 14.5422L14.0345 15.1396C14.1932 15.188 14.3542 15.071 14.3573 14.9051L14.3952 12.8548C14.3962 12.8052 14.4118 12.757 14.4403 12.7163L15.6146 11.0353C15.7097 10.8992 15.6482 10.71 15.4913 10.6558L13.5532 9.98611C13.5063 9.9699 13.4652 9.9401 13.4353 9.90049L12.1995 8.26412Z" fill="#47A7FF"/>
</svg>
