<svg width="16" height="16" viewBox="0 0 16 16" fill="none" xmlns="http://www.w3.org/2000/svg">
<path d="M8.45401 0.984302C8.2753 0.596867 7.72465 0.596867 7.54595 0.984302L5.86011 4.6392C5.78727 4.7971 5.63763 4.90582 5.46495 4.9263L1.46798 5.4002C1.04429 5.45044 0.874128 5.97413 1.18738 6.26382L4.14244 8.99657C4.27011 9.11464 4.32726 9.29055 4.29337 9.46111L3.50895 13.4089C3.4258 13.8274 3.87128 14.151 4.24359 13.9426L7.75576 11.9767C7.90749 11.8917 8.09246 11.8917 8.2442 11.9767L11.7564 13.9426C12.1287 14.151 12.5742 13.8274 12.491 13.4089L11.7066 9.46111C11.6727 9.29055 11.7298 9.11463 11.8575 8.99657L14.8126 6.26382C15.1258 5.97413 14.9557 5.45044 14.532 5.4002L10.535 4.9263C10.3623 4.90582 10.2127 4.7971 10.1398 4.6392L8.45401 0.984302Z" fill="black"/>
</svg>
