<svg width="24" height="24" viewBox="0 0 24 24" fill="none" xmlns="http://www.w3.org/2000/svg">
<path d="M15.9806 3.69606C16.0889 3.15451 15.7377 2.62768 15.1961 2.51937C14.6546 2.41106 14.1277 2.76227 14.0194 3.30383L13.5194 5.80383C13.4111 6.34539 13.7623 6.87222 14.3039 6.98053C14.8455 7.08884 15.3723 6.73762 15.4806 6.19606L15.9806 3.69606Z" fill="black"/>
<path d="M9.9806 3.30384C9.87228 2.76228 9.34546 2.41107 8.8039 2.51938C8.26234 2.62769 7.91112 3.15451 8.01943 3.69607L8.51943 6.19607C8.62775 6.73763 9.15457 7.08885 9.69613 6.98054C10.2377 6.87223 10.5889 6.3454 10.4806 5.80384L9.9806 3.30384Z" fill="black"/>
<path d="M4.70712 5.29285C4.3166 4.90233 3.68343 4.90233 3.29291 5.29285C2.90238 5.68338 2.90238 6.31654 3.29291 6.70707L4.29291 7.70707C4.68343 8.09759 5.3166 8.09759 5.70712 7.70706C6.09765 7.31654 6.09765 6.68338 5.70712 6.29285L4.70712 5.29285Z" fill="black"/>
<path d="M20.7071 6.70707C21.0976 6.31654 21.0976 5.68338 20.7071 5.29285C20.3166 4.90233 19.6834 4.90233 19.2929 5.29285L18.2929 6.29285C17.9024 6.68338 17.9024 7.31654 18.2929 7.70706C18.6834 8.09759 19.3166 8.09759 19.7071 7.70707L20.7071 6.70707Z" fill="black"/>
<path d="M9.00001 8.99995H5.23608C5.08084 8.99995 4.92772 9.03609 4.78887 9.10552L3.5528 9.72356C3.21402 9.89295 3.00001 10.2392 3.00001 10.618V11.5857C3.00001 11.851 3.10537 12.1053 3.29291 12.2928L3.70712 12.7071C3.89466 12.8946 4.14901 12.9999 4.41423 12.9999H9.00001V8.99995Z" fill="black"/>
<path d="M10 8.99995H14V12.9999H10V8.99995Z" fill="black"/>
<path fill-rule="evenodd" clip-rule="evenodd" d="M19.2112 9.10552C19.0723 9.03609 18.9192 8.99995 18.7639 8.99995H15V12.9999H19.5858C19.851 12.9999 20.1054 12.8946 20.2929 12.7071L20.7071 12.2928C20.8947 12.1053 21 11.851 21 11.5857V10.618C21 10.2392 20.786 9.89295 20.4472 9.72356L19.2112 9.10552ZM16 9.99995H18.7639L20 10.618V11.5857L19.5858 11.9999H16V9.99995Z" fill="black"/>
<path d="M4.16796 14.4452C4.35343 14.167 4.66566 13.9999 5.00001 13.9999H19C19.3344 13.9999 19.6466 14.167 19.8321 14.4452L21.8321 17.4452C22.1384 17.9048 22.0142 18.5256 21.5547 18.832C21.0952 19.1384 20.4743 19.0142 20.168 18.5546L18.4648 15.9999H5.5352L3.83206 18.5546C3.52571 19.0142 2.90484 19.1384 2.44531 18.832C1.98579 18.5256 1.86161 17.9048 2.16796 17.4452L4.16796 14.4452Z" fill="black"/>
</svg>
