<svg width="24" height="24" viewBox="0 0 24 24" fill="none" xmlns="http://www.w3.org/2000/svg">
<path fill-rule="evenodd" clip-rule="evenodd" d="M3 16C3 16.5523 3.44772 17 4 17H10.126C10.5701 18.7252 12.1362 20 14 20C15.8638 20 17.4299 18.7252 17.874 17H21.0903C21.3285 17 21.5336 16.8318 21.5804 16.5983L21.9044 15.3643C21.966 15.1295 21.9401 14.8802 21.8316 14.6631L21.5 14L21.4213 13.6887C21.3932 13.5778 21.2934 13.5 21.1789 13.5H20.2361C19.4785 13.5 18.7925 13.0634 18.3319 12.4619C18.1881 12.274 18.0463 12.1031 17.9217 11.9592C17.7943 11.8123 17.9237 11.5706 18.1156 11.6025L20.4796 11.9966C20.4875 11.9979 20.4955 11.9989 20.5036 11.9994C20.5093 11.9998 20.515 12 20.5207 12H20.5955C20.7813 12 20.897 11.8059 20.7795 11.6619C20.307 11.0834 19.4605 10.6919 18.5168 10.3489C17.8452 10.1049 17.1417 9.9613 16.4313 9.88452L13.8433 9.60498L15.9116 8.12769L17.4358 7.21313C17.9409 6.91003 18.5189 6.75 19.1079 6.75H19.5C19.9142 6.75 20.25 6.41418 20.25 6C20.25 5.58582 19.9142 5.25 19.5 5.25H19.1079C18.247 5.25 17.4023 5.48401 16.6641 5.92688L15.1141 6.85693L15.0884 6.87231L15.0641 6.88965L12.2242 8.91821L8.06667 5.80005C7.37428 5.28076 6.53215 5 5.66667 5H3.75C3.33579 5 3 5.33579 3 5.75C3 6.16421 3.33579 6.5 3.75 6.5H5.81378C6.25853 6.5 6.6906 6.64819 7.04167 6.92126L10.7765 9.82617C10.8952 9.91846 10.9061 10.0939 10.7997 10.2002L10.3247 10.6753C10.1186 10.8813 9.83279 10.9871 9.54201 10.9662C7.74686 10.8369 5.91789 10.7446 4.03055 10.6774C3.46663 10.6574 3 11.1102 3 11.6745V16ZM16.5 16C16.5 17.3807 15.3807 18.5 14 18.5C12.6193 18.5 11.5 17.3807 11.5 16C11.5 14.6193 12.6193 13.5 14 13.5C15.3807 13.5 16.5 14.6193 16.5 16Z" fill="black"/>
</svg>
