<svg width="24" height="24" viewBox="0 0 24 24" fill="none" xmlns="http://www.w3.org/2000/svg">
<path d="M7.9538 10.5624C7.77079 10.2508 7.37675 10.1425 7.07369 10.3206L2.79941 12.8252C2.57133 12.9569 2.24297 13.6708 2.41826 13.9744C2.60126 14.286 2.9953 14.3943 3.29837 14.2161L7.50606 11.7868C7.81666 11.6075 8.12206 10.8538 7.9538 10.5624Z" fill="black"/>
<path fill-rule="evenodd" clip-rule="evenodd" d="M18.114 21C18.6033 21 19 20.6033 19 20.114L19 5.87466C19 4.88233 18.4477 3.9781 17.5797 3.54951L17.012 3.26915C16.6749 3.1027 16.306 3.0163 15.9323 3.0163H12.0677C11.694 3.0163 11.325 3.1027 10.9879 3.26915L10.4202 3.54951C9.5523 3.9781 8.99999 4.88234 8.99999 5.87466L8.99999 10.3109C8.99999 10.767 9.07796 11.2196 9.23054 11.6493L10.3626 14.8377C10.4007 14.9451 10.4202 15.0582 10.4202 15.1722V16.9811C10.4202 17.3064 10.2619 17.6114 9.99593 17.7987L9.42427 18.2012C9.15825 18.3885 8.99999 18.6936 8.99999 19.0189L8.99999 20.114C8.99999 20.6033 9.39665 21 9.88596 21C10.2949 21 10.6506 20.7202 10.747 20.3228L10.7559 20.286C10.8217 20.0147 11.0885 19.8505 11.3527 19.9135C13.3905 20.3997 14.6095 20.3997 16.6473 19.9135C16.9115 19.8505 17.1783 20.0147 17.2441 20.286L17.253 20.3228C17.3493 20.7202 17.7051 21 18.114 21ZM17.2803 12.9766C17.1945 13.2419 16.9169 13.3841 16.6548 13.3122C15.0071 12.8607 12.9929 12.8607 11.3452 13.3122C11.0831 13.3841 10.8055 13.2419 10.7197 12.9766L9.75969 10.0066C9.68241 9.76756 9.78646 9.50484 10.011 9.40543C12.3671 8.36249 15.6329 8.3625 17.989 9.40558C18.2136 9.50499 18.3176 9.76771 18.2403 10.0068L17.2803 12.9766Z" fill="black"/>
</svg>
