<svg width="49" height="48" viewBox="0 0 49 48" fill="none" xmlns="http://www.w3.org/2000/svg">
<path fill-rule="evenodd" clip-rule="evenodd" d="M5.37491 21.5003C5.61626 20.5348 6.20882 19.694 7.03686 19.1421L7.71615 18.6893C8.38952 18.2404 8.9109 17.5979 9.21145 16.8465L12.061 9.7226C12.498 8.63017 13.3898 7.76974 14.5355 7.50204C20.2534 6.16603 29.2467 6.16595 34.9646 7.50202C36.1102 7.76973 37.002 8.63015 37.439 9.72255L40.2886 16.8465C40.5891 17.5979 41.1105 18.2404 41.7838 18.6893L42.4631 19.1421C43.2912 19.694 43.8837 20.5348 44.1251 21.5003L44.6306 23.5222C44.7099 23.8395 44.75 24.1653 44.75 24.4923V29.6691C44.75 29.8894 44.7318 30.1094 44.6956 30.3267L44.3071 32.6577C44.1317 33.71 43.5552 34.609 42.75 35.2088V40C42.75 41.1046 41.8546 42 40.75 42H38.75C37.6454 42 36.75 41.1046 36.75 40V36.0001L32.75 36L30.75 35H18.75L16.75 36L12.75 36.0001V40C12.75 41.1046 11.8546 42 10.75 42H8.75C7.64543 42 6.75 41.1046 6.75 40V35.2088C5.94477 34.609 5.36832 33.71 5.19293 32.6577L4.80442 30.3267C4.7682 30.1094 4.75 29.8894 4.75 29.6691V24.4923C4.75 24.1653 4.79011 23.8394 4.86943 23.5222L5.37491 21.5003ZM7.94936 24.4021C8.40112 23.0467 9.82041 22.2676 11.2065 22.6143L15.0487 23.5752C16.0486 23.8253 16.75 24.7237 16.75 25.7544C16.75 26.995 15.7443 28.0007 14.5037 28.0007H10.5431C8.67704 28.0007 7.35931 26.1725 7.94936 24.4021ZM38.2935 22.6143C39.6796 22.2676 41.0989 23.0467 41.5506 24.4021C42.1407 26.1725 40.823 28.0007 38.9569 28.0007H34.9963C33.7557 28.0007 32.75 26.995 32.75 25.7544C32.75 24.7237 33.4514 23.8253 34.4513 23.5752L38.2935 22.6143ZM14.3198 11.1475C14.5838 10.4435 15.2205 9.9453 15.9685 9.86924C21.9524 9.26086 27.2943 9.24227 33.5295 9.87064C34.2785 9.94612 34.9165 10.4445 35.1808 11.1493L37.75 18.0006C27.6931 17.6117 22.0368 17.4104 11.75 18.0002L14.3198 11.1475Z" fill="black"/>
</svg>
