<svg width="24" height="24" viewBox="0 0 24 24" fill="none" xmlns="http://www.w3.org/2000/svg">
<path d="M8.31584 11.5642C7.96607 11.4732 7.6109 11.6753 7.52256 12.0156L6.27117 16.8089C6.203 17.0633 6.47563 17.8003 6.81425 17.891C7.16403 17.982 7.5192 17.7799 7.60754 17.4396L8.86504 12.7466C8.95787 12.4001 8.64089 11.6513 8.31584 11.5642Z" fill="black"/>
<path fill-rule="evenodd" clip-rule="evenodd" d="M18.1203 21C18.6096 21 19.0062 20.6033 19.0062 20.114L19.0062 5.86169C19.0062 4.86936 18.4539 3.96513 17.586 3.53654L17.0183 3.25618C16.6812 3.08973 16.3122 3.00333 15.9385 3.00333H12.0739C11.7002 3.00333 11.3313 3.08973 10.9942 3.25618L10.4265 3.53654C9.55855 3.96513 9.00623 4.86937 9.00623 5.86169L9.00623 10.311C9.00623 10.767 9.08421 11.2196 9.23678 11.6493L10.3688 14.8377C10.407 14.9451 10.4265 15.0582 10.4265 15.1722V16.9811C10.4265 17.3064 10.2682 17.6114 10.0022 17.7987L9.43051 18.2012C9.1645 18.3885 9.00623 18.6936 9.00623 19.0189L9.00623 20.114C9.00624 20.6033 9.4029 21 9.8922 21C10.3011 21 10.6569 20.7202 10.7532 20.3228L10.7621 20.286C10.8279 20.0147 11.0947 19.8505 11.3589 19.9136C13.3967 20.3997 14.6157 20.3997 16.6535 19.9136C16.9178 19.8505 17.1845 20.0147 17.2503 20.2861L17.2592 20.3228C17.3556 20.7202 17.7113 21 18.1203 21ZM17.2865 12.9766C17.2008 13.2419 16.9231 13.3841 16.661 13.3122C15.0133 12.8607 12.9992 12.8607 11.3515 13.3122C11.0894 13.3841 10.8117 13.2419 10.7259 12.9766L9.76593 10.0066C9.68865 9.76756 9.7927 9.50484 10.0173 9.40544C12.3733 8.3625 15.6392 8.36251 17.9952 9.40558C18.2198 9.50499 18.3238 9.76771 18.2466 10.0068L17.2865 12.9766Z" fill="black"/>
</svg>
