<svg width="24" height="24" viewBox="0 0 24 24" fill="none" xmlns="http://www.w3.org/2000/svg">
<path fill-rule="evenodd" clip-rule="evenodd" d="M13.6715 5.13682C11.2786 4.87988 8.39813 4.98483 6.40348 5.45162C5.8879 5.57228 5.48659 5.96008 5.28995 6.45244L4.00765 9.66322C3.8724 10.0019 3.63778 10.2915 3.33477 10.4938L3.02909 10.6978C2.65647 10.9466 2.38982 11.3256 2.28121 11.7607L2.05374 12.672C2.01805 12.815 2 12.9618 2 13.1092V15.4424C2 15.5417 2.00819 15.6408 2.02449 15.7388L2.19932 16.7894C2.27824 17.2637 2.53764 17.6689 2.9 17.9392V20.0986C2.9 20.5964 3.30294 21 3.8 21H4.7C5.19706 21 5.6 20.5964 5.6 20.0986V18.2958L7.4 18.2958L8.3 17.8451H13.7L14.6 18.2958L16.4 18.2958V20.0986C16.4 20.5964 16.8029 21 17.3 21H18.2C18.6971 21 19.1 20.5964 19.1 20.0986V17.9392C19.4624 17.6689 19.7218 17.2637 19.8007 16.7894L19.9755 15.7388C19.9918 15.6408 20 15.5417 20 15.4424V14.1046C20.3112 13.7926 20.4903 13.3444 20.4264 12.8521L20.0994 10.332L21.8452 8.48547C22.6765 7.60628 22.1762 6.19497 21.0314 5.98058L18.5336 5.51283L17.3169 3.28186C16.7376 2.21965 15.2408 2.2593 14.6831 3.28186L13.6715 5.13682ZM13.4797 9.81894L11.2447 7.45497L14.4424 6.8561L16 4.00001L17.5576 6.8561L20.7553 7.4549L18.5203 9.81888L18.9331 13H18.844L16 11.65L13.0611 13.0451L13.4797 9.81894ZM11.6087 10.0233C9.63478 9.99818 7.71137 10.0361 5.15 10.1832L6.30639 7.09466C6.4252 6.77734 6.71171 6.55281 7.04834 6.51853C8.15174 6.40617 9.20664 6.33845 10.2606 6.31713C9.64711 6.848 9.54336 7.83879 10.1547 8.48547L11.6087 10.0233ZM4.90543 12.2628C4.28168 12.1065 3.64301 12.4576 3.43971 13.0686C3.17419 13.8665 3.76717 14.6904 4.60692 14.6904H6.38916C6.94743 14.6904 7.4 14.2372 7.4 13.678C7.4 13.2135 7.08436 12.8086 6.63442 12.6959L4.90543 12.2628Z" fill="black"/>
</svg>
