<svg width="24" height="24" viewBox="0 0 24 24" fill="none" xmlns="http://www.w3.org/2000/svg">
<path fill-rule="evenodd" clip-rule="evenodd" d="M21 5.86935C21 5.45514 20.6642 5.11935 20.25 5.11935H13.8153C13.3875 5.11935 12.9674 5.18785 12.5694 5.31833L6.43892 4.09224C5.62835 3.93013 4.78949 3.98235 4.00529 4.24375L3.51303 4.40784C3.12008 4.53883 2.9077 4.96357 3.03869 5.35652C3.16968 5.74948 3.59442 5.96185 3.98737 5.83086L4.47963 5.66678C5.01619 5.48793 5.59014 5.45219 6.14475 5.56311L10.7977 6.49369L7.73989 9.98825C7.10189 10.7175 6.7502 11.6534 6.7502 12.6223V16.6194C6.7502 16.8955 6.97405 17.1194 7.2502 17.1194H8.87622C9.32026 18.8446 10.8864 20.1194 12.7502 20.1194C14.614 20.1194 16.1801 18.8446 16.6242 17.1194H20C20.5523 17.1194 21 16.6716 21 16.1194V11.7687C21 11.2307 20.5744 10.7889 20.0366 10.7717C19.4629 10.7534 18.8836 10.7372 18.2981 10.7228C18.1526 10.7192 18.0407 10.5927 18.0552 10.4479L18.4156 6.84448C18.4283 6.71668 18.5359 6.61935 18.6643 6.61935H20.25C20.6642 6.61935 21 6.28357 21 5.86935ZM14.3045 6.61935C13.9597 6.61935 13.6392 6.79697 13.4565 7.08935L11.7238 9.86161C11.5166 10.1931 11.7533 10.6235 12.1442 10.627C13.2579 10.6372 14.3453 10.6497 15.4102 10.666C15.5221 10.6678 15.6215 10.595 15.6536 10.4879L16.7176 6.94119C16.7658 6.78079 16.6457 6.61935 16.4782 6.61935H14.3045ZM15.2502 16.1194C15.2502 17.5001 14.1309 18.6194 12.7502 18.6194C11.3695 18.6194 10.2502 17.5001 10.2502 16.1194C10.2502 14.7386 11.3695 13.6194 12.7502 13.6194C14.1309 13.6194 15.2502 14.7386 15.2502 16.1194Z" fill="black"/>
</svg>
