<svg width="24" height="24" viewBox="0 0 24 24" fill="none" xmlns="http://www.w3.org/2000/svg">
<path fill-rule="evenodd" clip-rule="evenodd" d="M8.99999 5.87467C8.99999 5.60071 9.28996 5.61749 9.32811 5.88878L9.46339 6.85077C9.54849 7.45596 10.155 7.85504 10.756 7.74382C11.5432 7.59812 12.6852 7.44446 14 7.44446C15.3148 7.44446 16.4568 7.59812 17.244 7.74382C17.845 7.85504 18.4515 7.45596 18.5366 6.85077L18.6719 5.88877C18.71 5.61752 19 5.60075 19 5.87467V5.87467L19 20.114C19 20.6033 18.6033 21 18.114 21C17.7051 21 17.3493 20.7202 17.253 20.3228L17.2441 20.2861C17.1783 20.0147 16.9115 19.8505 16.6473 19.9136C14.6095 20.3997 13.3905 20.3997 11.3527 19.9136C11.0885 19.8505 10.8217 20.0147 10.7559 20.286L10.747 20.3228C10.6506 20.7202 10.2949 21 9.88596 21C9.39665 21 8.99999 20.6034 8.99999 20.114L8.99999 19.0189C8.99999 18.6936 9.15825 18.3886 9.42427 18.2013L9.99593 17.7987C10.2619 17.6114 10.4202 17.3064 10.4202 16.9811V15.1723C10.4202 15.0583 10.4007 14.9451 10.3626 14.8377L9.23054 11.6493C9.07796 11.2196 8.99999 10.767 8.99999 10.311L8.99999 5.87467V5.87467ZM16.6548 13.3123C16.9169 13.3841 17.1945 13.2419 17.2803 12.9766L18.2403 10.0068C18.3176 9.76772 18.2136 9.505 17.989 9.40559C15.6329 8.36251 12.3671 8.3625 10.011 9.40544C9.78646 9.50485 9.68241 9.76757 9.75969 10.0066L10.7197 12.9766C10.8055 13.2419 11.0831 13.3841 11.3452 13.3123C12.9929 12.8608 15.0071 12.8608 16.6548 13.3123ZM7.07369 10.3207C7.37675 10.1425 7.77079 10.2508 7.9538 10.5624C8.12206 10.8538 7.81666 11.6075 7.50606 11.7868L3.29837 14.2162C2.9953 14.3943 2.60126 14.286 2.41826 13.9744C2.24297 13.6708 2.57133 12.9569 2.79941 12.8252L7.07369 10.3207Z" fill="black"/>
<path d="M10.3384 5.85076L10.1025 4.17355C10.0415 3.73991 10.2698 3.31704 10.6658 3.13005L11.7972 2.59575C11.9308 2.5327 12.0766 2.5 12.2242 2.5H15.7758C15.9234 2.5 16.0692 2.5327 16.2028 2.59575L17.3342 3.13005C17.7302 3.31704 17.9584 3.73991 17.8975 4.17355L17.6616 5.85076C17.5765 6.45595 16.9692 6.85584 16.3665 6.75471C15.7531 6.6518 14.9307 6.55556 14 6.55556C13.0693 6.55556 12.2469 6.6518 11.6335 6.75471C11.0308 6.85584 10.4235 6.45595 10.3384 5.85076Z" fill="black"/>
</svg>
