<svg width="24" height="24" viewBox="0 0 24 24" fill="none" xmlns="http://www.w3.org/2000/svg">
<path fill-rule="evenodd" clip-rule="evenodd" d="M8.7612 19.6502C8.23778 19.4969 8.00001 18.9733 8.00001 18.4279L8.00001 5.2175C8.00001 4.44766 8.44186 3.74616 9.13619 3.41366L9.59037 3.19617C9.86003 3.06703 10.1552 3 10.4542 3H13.5458C13.8448 3 14.14 3.06703 14.4096 3.19616L14.8638 3.41366C15.5581 3.74616 16 4.44766 16 5.2175L16 18.4279C16 18.9733 15.7622 19.497 15.2388 19.6502C13.6459 20.1166 10.354 20.1166 8.7612 19.6502ZM14.6243 11.1273C14.5556 11.3331 14.3335 11.4434 14.1238 11.3877C12.8057 11.0374 11.1943 11.0374 9.87621 11.3877C9.66652 11.4434 9.44438 11.3331 9.37577 11.1273L8.60776 8.82321C8.54594 8.63774 8.62918 8.43392 8.80883 8.3568C10.6937 7.5477 13.3063 7.54771 15.1912 8.35692C15.3709 8.43404 15.4541 8.63786 15.3923 8.82332L14.6243 11.1273ZM14.9118 17.6471C14.9616 17.8463 14.8504 18.0509 14.6513 18.1009C13.1963 18.4664 10.8037 18.4664 9.34872 18.1009C9.14963 18.0509 9.03844 17.8462 9.08823 17.6471L9.40472 16.3811C9.45734 16.1706 9.67077 16.0432 9.88216 16.0921C11.5124 16.4692 12.4876 16.4692 14.1178 16.0921C14.3292 16.0432 14.5427 16.1706 14.5953 16.3811L14.9118 17.6471Z" fill="black"/>
<path d="M7.36751 8.28801C7.22116 8.05384 6.91268 7.98266 6.67851 8.12901L3.95051 9.83401C3.48218 10.1267 3.3398 10.7437 3.63251 11.212C3.77887 11.4462 4.08734 11.5174 4.32151 11.371L7.04951 9.66601C7.51785 9.3733 7.66022 8.75635 7.36751 8.28801Z" fill="black"/>
<path d="M7.37597 13.283C7.23897 13.0432 6.93354 12.9599 6.69378 13.0969L4.49615 14.3527C4.01663 14.6267 3.85003 15.2376 4.12404 15.7171C4.26105 15.9569 4.56648 16.0402 4.80623 15.9032L7.00387 14.6474C7.48339 14.3734 7.64998 13.7625 7.37597 13.283Z" fill="black"/>
<path d="M20.3675 11.212C20.6602 10.7437 20.5178 10.1267 20.0495 9.83401L17.3215 8.12901C17.0873 7.98266 16.7789 8.05384 16.6325 8.28801C16.3398 8.75635 16.4822 9.3733 16.9505 9.66601L19.6785 11.371C19.9127 11.5174 20.2211 11.4462 20.3675 11.212Z" fill="black"/>
<path d="M16.624 13.283C16.761 13.0432 17.0665 12.9599 17.3062 13.0969L19.5039 14.3527C19.9834 14.6267 20.15 15.2376 19.876 15.7171C19.739 15.9569 19.4335 16.0402 19.1938 15.9032L16.9961 14.6474C16.5166 14.3734 16.35 13.7625 16.624 13.283Z" fill="black"/>
</svg>
