<svg width="24" height="24" viewBox="0 0 24 24" fill="none" xmlns="http://www.w3.org/2000/svg">
<path d="M4 7C5.10457 7 6 6.10457 6 5C6 3.89543 5.10457 3 4 3C2.89543 3 2 3.89543 2 5C2 6.10457 2.89543 7 4 7Z" fill="black"/>
<path fill-rule="evenodd" clip-rule="evenodd" d="M21 3.47337C21 3.36031 20.9063 3.26966 20.7933 3.27421C19.3735 3.33144 18.0084 3.4904 16.8927 3.75108C16.3199 3.88493 15.874 4.31515 15.6555 4.86137L14.2307 8.42332C14.0804 8.79901 13.8198 9.12028 13.4831 9.3447L13.1434 9.57111C12.7294 9.84709 12.4331 10.2675 12.3125 10.7502L12.0597 11.7611C12.0201 11.9198 12 12.0827 12 12.2462V14.8346C12 14.9448 12.0091 15.0547 12.0272 15.1634L12.2215 16.3289C12.3033 16.82 12.5598 17.2443 12.921 17.5425C12.9697 17.5827 13 17.6417 13 17.7049V20.0001C13 20.5523 13.4477 21.0001 14 21.0001H15C15.5523 21.0001 16 20.5523 16 20.0001V18.2001C16 18.0897 16.0895 18.0001 16.2 18.0001L17.9528 18.0001C17.9838 18.0001 18.0145 17.9928 18.0422 17.979L18.9578 17.5212C18.9855 17.5073 19.0162 17.5001 19.0472 17.5001H20.8C20.9105 17.5001 21 17.4105 21 17.3001V9.01696C21 8.90612 20.9099 8.81639 20.7991 8.81719C19.2894 8.82811 17.7051 8.87801 15.8068 8.9829C15.6625 8.99087 15.557 8.84804 15.6078 8.7127L16.7849 5.57383C16.9169 5.2218 17.2352 4.97271 17.6093 4.93469C18.705 4.82328 19.7576 4.75143 20.8049 4.72054C20.9134 4.71734 21 4.62866 21 4.52013V3.47337ZM15.2283 11.3072C14.5352 11.1339 13.8256 11.5234 13.5997 12.2011C13.3047 13.0863 13.9635 14.0004 14.8966 14.0004H16.8768C17.4971 14.0004 18 13.4976 18 12.8773C18 12.3619 17.6493 11.9127 17.1494 11.7877L15.2283 11.3072Z" fill="black"/>
<path d="M7 5C7 4.44772 7.44772 4 8 4H11C11.5523 4 12 4.44772 12 5C12 5.55228 11.5523 6 11 6H8C7.44772 6 7 5.55228 7 5Z" fill="black"/>
<path d="M8 10C7.44772 10 7 10.4477 7 11C7 11.5523 7.44772 12 8 12H9C9.55228 12 10 11.5523 10 11C10 10.4477 9.55228 10 9 10H8Z" fill="black"/>
<path d="M7 17C7 16.4477 7.44772 16 8 16H9C9.55228 16 10 16.4477 10 17C10 17.5523 9.55228 18 9 18H8C7.44772 18 7 17.5523 7 17Z" fill="black"/>
<path d="M6 11C6 12.1046 5.10457 13 4 13C2.89543 13 2 12.1046 2 11C2 9.89543 2.89543 9 4 9C5.10457 9 6 9.89543 6 11Z" fill="black"/>
<path d="M4 19C5.10457 19 6 18.1046 6 17C6 15.8954 5.10457 15 4 15C2.89543 15 2 15.8954 2 17C2 18.1046 2.89543 19 4 19Z" fill="black"/>
</svg>
